<?xml version="1.0" standalone="no"?>
<!DOCTYPE svg PUBLIC "-//W3C//DTD SVG 20010904//EN"
 "http://www.w3.org/TR/2001/REC-SVG-20010904/DTD/svg10.dtd">
<svg version="1.0" xmlns="http://www.w3.org/2000/svg"
 width="1024.000000pt" height="606.000000pt" viewBox="0 0 1024.000000 606.000000"
 preserveAspectRatio="xMidYMid meet">

<g transform="translate(0.000000,606.000000) scale(0.100000,-0.100000)"
fill="#000000" stroke="none">
<path d="M4432 5383 c-12 -3 -27 -14 -33 -26 -9 -18 -9 -20 2 -9 7 6 19 12 26
12 24 0 183 -113 183 -131 0 -13 -45 4 -58 23 -16 22 -111 78 -132 77 -8 0
-33 -22 -55 -50 l-40 -49 -60 7 c-33 5 -97 8 -142 7 -64 0 -78 2 -66 11 14 10
7 17 -42 43 -32 18 -62 32 -67 32 -4 0 -8 4 -8 8 0 14 -73 32 -126 32 -75 0
-171 -52 -452 -243 -171 -116 -271 -253 -280 -385 -4 -55 -1 -70 28 -128 17
-36 38 -68 45 -70 15 -6 0 -30 -43 -68 -13 -12 -46 -45 -75 -73 -29 -29 -57
-53 -64 -53 -6 0 -15 -9 -18 -20 -4 -11 -9 -18 -13 -16 -14 8 -71 -50 -78 -79
-6 -27 -5 -29 8 -17 22 18 34 -3 14 -23 -20 -20 -23 -19 -42 10 -16 24 -15 27
0 44 17 18 16 19 -16 26 -137 28 -351 115 -403 164 -35 33 -150 101 -171 101
-7 0 -14 4 -14 9 0 10 -247 173 -342 225 -141 78 -302 113 -460 100 -49 -4
-86 -10 -81 -14 4 -5 53 -10 108 -11 73 -3 126 -11 195 -31 105 -31 149 -52
230 -113 30 -23 90 -66 134 -96 122 -84 158 -110 242 -173 152 -115 239 -154
432 -197 97 -21 101 -23 86 -40 -22 -24 -14 -47 9 -25 22 23 22 8 0 -16 -16
-18 -16 -18 0 -12 15 5 16 3 7 -21 -5 -14 -18 -34 -27 -43 -16 -16 -16 -16
-10 1 9 24 1 21 -29 -8 -14 -14 -31 -25 -38 -25 -18 0 -30 31 -15 41 6 4 8 12
4 19 -5 8 -1 18 10 26 10 8 17 15 14 17 -8 7 -104 39 -131 44 -18 3 -28 12
-28 22 0 24 -11 33 -26 20 -9 -7 -32 0 -82 25 -39 19 -72 41 -75 48 -3 10 -7
10 -17 1 -17 -16 -46 0 -54 29 -6 27 -85 76 -95 60 -4 -7 -16 -4 -31 8 -17 13
-20 20 -10 20 10 0 7 6 -9 19 -14 10 -31 16 -40 13 -8 -3 -12 -1 -8 4 3 6 -3
17 -14 24 -10 8 -19 20 -19 27 0 7 -9 10 -20 8 -12 -2 -31 0 -43 5 -21 8 -21
9 -2 10 17 0 16 3 -7 18 -16 9 -28 20 -28 25 0 4 5 5 12 1 7 -4 8 -3 4 4 -4 7
-14 12 -22 12 -16 0 -56 20 -65 34 -4 5 -16 6 -27 4 -21 -6 -37 15 -26 33 3 5
2 9 -3 8 -13 -3 -46 13 -68 34 -11 10 -33 21 -48 24 -21 4 -25 8 -15 15 8 5 4
6 -13 3 -15 -4 -46 -1 -70 5 -38 10 -44 10 -56 -6 -10 -14 -15 -15 -28 -4 -8
7 -15 10 -15 7 0 -3 -16 1 -36 9 -28 12 -39 12 -50 3 -11 -9 -21 -8 -45 1 -26
11 -32 11 -40 -1 -5 -8 -9 -9 -9 -3 0 16 -48 14 -54 -2 -3 -8 -3 -20 0 -28 4
-10 -2 -12 -20 -9 -23 5 -37 -10 -18 -19 14 -6 188 -348 214 -420 26 -72 -1
-49 -41 35 -65 139 -124 252 -145 278 -12 14 -39 56 -61 93 -35 58 -48 70
-103 98 -62 31 -65 31 -134 20 -39 -6 -78 -18 -86 -26 -13 -12 -16 -47 -19
-168 -3 -146 -23 -291 -44 -312 -5 -6 -9 -35 -9 -65 0 -46 6 -66 41 -124 33
-55 38 -71 28 -78 -21 -13 -23 -12 -44 37 -11 25 -25 50 -31 55 -13 11 -49
-122 -88 -325 -19 -98 -30 -134 -45 -145 -10 -9 -29 -35 -41 -58 -20 -39 -28
-85 -70 -418 -20 -156 -23 -174 -31 -169 -16 10 -21 -49 -17 -188 4 -135 6
-142 29 -159 13 -11 29 -23 35 -28 30 -25 118 -28 294 -12 63 6 126 11 140 11
23 -1 22 -2 -10 -18 l-35 -16 48 -4 c26 -2 47 -8 47 -13 0 -5 12 -8 28 -7 18
2 27 -2 27 -12 0 -11 -17 -15 -75 -17 -41 -1 -76 -6 -78 -12 -2 -5 -14 -6 -31
-1 -18 5 -33 3 -46 -6 -10 -8 -33 -14 -50 -14 -18 0 -35 -3 -39 -7 -15 -15
-199 -21 -231 -8 -18 8 -18 7 -7 -8 8 -9 28 -17 45 -19 18 -2 30 -7 27 -13 -5
-11 -14 -11 -57 -1 -25 6 -26 5 -8 -6 11 -7 53 -15 94 -19 43 -5 77 -13 82
-21 5 -7 9 -8 9 -2 0 6 15 15 33 20 38 12 117 6 117 -8 0 -6 7 -7 16 -4 14 5
16 1 10 -24 -4 -23 -2 -32 11 -37 9 -4 19 -1 21 5 2 7 8 12 14 12 7 0 6 -5 -1
-14 -9 -10 -9 -16 -1 -21 16 -10 -26 -39 -45 -31 -8 3 -17 1 -20 -4 -3 -5 3
-11 12 -13 10 -3 0 -4 -22 -3 -34 1 -40 -2 -43 -21 -4 -25 -22 -32 -22 -8 0
13 -22 21 -33 13 -2 -2 -11 3 -20 11 -10 7 -17 9 -17 3 0 -6 6 -12 13 -15 6
-2 9 -7 5 -11 -10 -11 -58 -14 -64 -5 -3 5 -14 9 -25 9 -10 0 -19 6 -19 13 0
18 -46 37 -59 24 -17 -17 -80 54 -97 110 -8 27 -17 81 -19 121 -3 40 -9 81
-14 90 -11 18 -12 11 -16 -123 -2 -62 14 -147 26 -140 5 4 9 -4 10 -17 0 -13
1 -59 2 -102 2 -78 3 -80 34 -99 29 -16 31 -21 22 -44 -20 -52 -14 -88 22
-134 49 -62 56 -69 64 -61 5 4 5 2 2 -4 -8 -14 25 -45 49 -46 11 -1 36 2 57 6
33 6 37 5 38 -14 1 -11 2 -26 3 -32 0 -7 29 -26 63 -43 40 -19 63 -36 63 -47
0 -23 98 -42 270 -53 52 -4 109 -10 125 -15 35 -10 248 -36 415 -50 63 -5 258
-27 434 -50 175 -22 359 -40 408 -40 104 0 309 -16 388 -30 30 -6 87 -12 125
-15 67 -4 120 -10 305 -35 80 -10 122 -17 325 -54 44 -8 112 -20 150 -26 39
-6 86 -16 105 -20 19 -5 60 -14 90 -20 30 -7 93 -21 140 -32 47 -11 101 -23
120 -25 19 -2 82 -12 140 -22 193 -35 361 -54 640 -76 312 -24 346 -26 1030
-59 736 -35 1809 -11 2162 50 101 17 117 22 140 41 9 8 21 12 27 9 6 -4 18 2
28 14 10 11 22 20 29 20 22 0 10 36 -27 77 -24 26 -36 48 -33 58 7 18 0 19
-26 3 -10 -7 -23 -9 -27 -5 -4 5 -2 12 5 16 7 4 14 20 15 36 2 27 8 31 102 63
55 19 114 45 132 58 18 14 45 24 64 24 41 0 211 57 324 109 104 48 225 119
225 132 0 5 7 9 15 9 19 0 82 64 77 78 -2 7 7 16 20 21 13 5 34 19 47 30 14
12 32 20 40 19 9 -2 24 6 34 18 21 27 21 29 1 48 -8 9 -11 16 -5 16 13 0 14
39 2 59 -6 9 -11 10 -15 2 -4 -6 -2 -11 3 -11 6 0 11 -4 11 -10 0 -14 -33 -12
-49 2 -11 11 -12 10 -6 -2 12 -20 15 -60 5 -60 -4 0 -10 9 -13 20 -3 11 -10
20 -16 20 -7 0 -7 -8 1 -25 9 -20 9 -28 -1 -38 -10 -9 -11 -8 -6 6 6 13 2 17
-19 17 -14 0 -26 5 -26 11 0 5 -4 7 -10 4 -6 -3 1 -17 16 -32 14 -14 23 -28
20 -31 -4 -3 -12 3 -20 13 -7 10 -18 15 -23 12 -6 -4 -13 0 -17 8 -3 8 -12 15
-21 15 -8 0 -15 4 -15 9 0 25 15 41 38 41 14 0 22 3 18 7 -4 4 -17 8 -29 8
-24 0 -29 20 -16 68 4 15 4 27 -2 27 -5 0 -9 -8 -10 -17 0 -13 -3 -11 -10 6
-7 19 -12 22 -21 13 -21 -21 -32 -13 -13 8 10 11 15 23 12 26 -7 8 18 34 32
34 6 0 11 9 11 19 0 11 5 23 10 26 12 7 14 55 2 55 -4 0 -14 -6 -21 -12 -11
-11 -13 -10 -8 5 4 10 2 17 -5 17 -6 0 -8 3 -5 7 4 3 0 17 -8 30 -9 13 -13 28
-10 33 3 5 -3 13 -12 19 -15 9 -15 10 -2 11 9 0 22 11 29 25 7 14 17 25 22 25
12 0 38 26 38 37 0 14 50 57 121 104 36 24 94 71 130 103 l65 59 -14 59 c-8
32 -19 58 -24 58 -5 0 -4 -9 2 -19 5 -11 10 -27 10 -35 0 -20 -40 -61 -41 -43
-1 6 -2 17 -3 22 -1 6 -6 29 -10 53 -5 23 -13 42 -18 42 -6 0 -7 -7 -4 -16 3
-8 2 -12 -3 -9 -10 6 -8 51 2 62 13 12 7 22 -12 18 -32 -6 -59 6 -65 28 -3 12
-1 24 4 25 6 2 10 15 10 28 0 17 -8 27 -25 34 -26 10 -34 30 -12 30 8 0 7 4
-3 10 -21 14 -30 12 -30 -4 0 -11 -5 -12 -25 -3 -14 7 -25 15 -25 19 0 3 -10
4 -22 0 -23 -5 -23 -5 -5 16 18 20 18 20 -3 15 -12 -3 -25 -1 -29 5 -12 19
-101 28 -112 11 -5 -8 -9 -9 -9 -4 0 7 -32 8 -92 3 -51 -3 -121 -7 -155 -9
-65 -2 -74 -13 -21 -27 18 -4 34 -14 36 -22 5 -13 3 -13 -11 -1 -9 7 -26 11
-37 8 -10 -3 -18 -1 -17 3 3 12 -47 53 -51 41 -2 -6 -8 -11 -13 -11 -4 0 -5 8
-2 18 6 15 5 15 -10 4 -16 -13 -100 -13 -113 1 -4 3 -16 2 -27 -4 -10 -6 -17
-7 -14 -2 3 5 -17 9 -46 9 -65 1 -238 14 -247 19 -4 2 -52 11 -108 19 -55 8
-113 18 -129 21 l-28 6 30 -25 c16 -14 26 -28 22 -32 -4 -4 -13 -2 -19 4 -7 7
-21 12 -33 12 -15 0 -16 3 -7 9 10 6 8 10 -10 15 -22 7 -22 7 -3 16 14 6 15 9
5 9 -8 1 -26 4 -40 8 l-25 6 23 -25 c12 -13 22 -27 22 -31 0 -10 -24 -4 -32 8
-4 6 -13 10 -20 10 -7 1 -12 7 -10 14 1 7 -5 11 -15 9 -10 -2 -17 -9 -16 -16
2 -6 -13 -1 -31 11 -18 12 -32 24 -31 27 5 9 -19 36 -39 43 -18 7 -18 6 -2
-17 22 -34 20 -43 -4 -21 -20 18 -21 18 -14 -1 5 -16 4 -15 -10 4 -10 12 -21
20 -26 17 -5 -3 -12 0 -16 6 -4 7 -3 9 2 6 6 -3 16 -2 24 4 12 7 12 9 -3 9
-10 0 -20 6 -23 14 -3 8 -13 17 -22 21 -14 5 -14 3 1 -13 16 -17 16 -21 2 -32
-12 -10 -15 -10 -15 3 0 10 -6 14 -13 11 -8 -3 -20 2 -27 11 -7 8 -18 15 -24
15 -6 1 -29 9 -50 19 -22 11 -46 17 -53 14 -7 -3 -13 -1 -13 5 0 5 -10 12 -22
15 -23 6 -160 55 -211 75 -16 7 -34 12 -42 12 -8 0 -16 4 -20 9 -3 5 -20 13
-38 16 -17 4 -51 18 -75 31 -42 23 -72 33 -42 14 10 -7 11 -10 2 -10 -7 0 -15
6 -18 13 -3 8 -11 14 -19 15 -8 1 -22 3 -30 4 -8 1 -16 7 -19 15 -6 15 -36 18
-36 2 0 -20 -20 3 -21 24 0 21 -1 21 -8 2 -5 -11 -4 -23 0 -26 9 -5 -11 -59
-22 -59 -3 0 -16 -9 -29 -20 -13 -11 -29 -20 -36 -20 -7 0 -14 -4 -16 -9 -1
-5 -19 -12 -38 -16 -31 -7 -33 -6 -21 9 7 9 22 16 33 16 20 0 31 8 80 52 19
18 28 35 26 50 -5 31 -17 50 -29 42 -6 -3 -13 3 -16 15 -3 12 -17 24 -32 27
-14 4 -33 12 -41 19 -8 7 -26 16 -40 20 -14 4 -36 16 -49 26 -13 10 -27 16
-32 13 -5 -3 -12 2 -15 10 -3 9 -12 16 -19 16 -7 0 -24 9 -38 20 -14 11 -32
17 -41 14 -18 -7 -55 31 -56 58 0 32 -43 68 -85 72 -22 2 -52 7 -67 11 -17 4
-28 3 -28 -3 0 -5 -9 -12 -20 -15 -25 -6 -26 11 -2 29 16 13 16 14 -5 20 -13
3 -23 10 -23 14 0 5 -16 14 -36 20 -27 9 -42 9 -65 0 -38 -16 -48 -6 -19 18
l24 19 -24 13 c-28 15 -41 26 -78 61 -15 14 -42 34 -59 44 -18 11 -33 22 -33
25 0 4 -16 12 -35 20 -19 8 -35 18 -35 22 0 5 -4 6 -10 3 -5 -3 -10 -1 -10 4
0 6 -5 11 -11 11 -6 0 -17 7 -26 16 -9 8 -21 13 -28 10 -7 -2 -33 -8 -59 -11
-25 -4 -43 -11 -40 -16 3 -5 -7 -9 -23 -9 -27 1 -27 1 -8 16 17 12 75 32 112
38 17 3 29 16 15 16 -17 0 -52 32 -46 42 4 5 -10 6 -30 3 -22 -5 -36 -3 -36 3
0 14 26 33 33 25 4 -3 7 -1 7 5 0 17 -36 33 -56 25 -10 -4 -22 0 -30 11 -7 10
-17 15 -22 12 -5 -3 -20 6 -33 21 -39 42 -127 103 -180 125 -41 17 -53 28 -69
64 -17 40 -22 44 -54 44 -20 0 -36 4 -36 9 0 5 -9 7 -20 4 -11 -3 -20 0 -20 6
0 6 6 11 13 11 6 0 3 6 -8 12 -11 6 -38 23 -60 37 -36 23 -115 36 -115 20 0
-9 -50 -18 -55 -10 -2 4 19 15 46 24 27 10 47 22 44 28 -4 5 -11 7 -16 4 -5
-4 -9 0 -9 7 0 15 -53 68 -68 68 -6 0 -14 9 -17 20 -3 11 -11 20 -16 20 -6 0
-7 5 -3 12 4 6 3 8 -4 4 -6 -3 -17 2 -24 11 -7 10 -34 29 -60 42 -26 13 -46
27 -43 31 5 8 -94 5 -145 -5 -32 -6 -33 -5 -17 9 11 8 37 18 59 21 l40 7 -22
23 c-19 20 -28 23 -73 18 -29 -4 -62 -7 -74 -7 -13 -1 -23 -4 -23 -8 0 -5 -12
-8 -27 -7 l-28 1 33 14 c19 8 53 17 75 20 61 9 74 27 15 22 -44 -5 -51 -2 -86
31 -47 44 -140 108 -167 114 -11 2 -30 2 -43 0z m99 -130 c13 -15 12 -15 -8
-4 -24 12 -29 21 -14 21 5 0 15 -7 22 -17z m59 -82 c0 -11 -31 -24 -39 -16 -3
3 1 10 9 15 19 12 30 12 30 1z m-81 -57 c-13 -7 -26 -10 -28 -8 -8 7 33 33 43
27 5 -3 -2 -12 -15 -19z m221 2 c0 -13 -39 -30 -49 -21 -5 6 29 34 42 35 4 0
7 -6 7 -14z m-280 -44 c0 -4 -15 -13 -32 -19 l-33 -12 24 19 c24 21 41 26 41
12z m215 0 c-13 -11 -65 -33 -65 -27 0 12 34 35 53 35 12 0 17 -4 12 -8z
m-805 -6 c0 -2 -7 -7 -16 -10 -8 -3 -12 -2 -9 4 6 10 25 14 25 6z m720 -44 c0
-4 -15 -16 -32 -26 l-33 -19 24 26 c24 27 41 34 41 19z m-790 -6 c0 -2 -7 -7
-16 -10 -8 -3 -12 -2 -9 4 6 10 25 14 25 6z m570 -4 c0 -5 -12 -14 -27 -21
-28 -13 -28 -13 -9 8 20 22 36 27 36 13z m-631 -46 c-2 -2 -17 -6 -34 -10 -22
-5 -26 -4 -15 4 14 9 59 15 49 6z m762 -17 c-14 -5 -32 -15 -40 -22 -9 -6 -8
-2 3 11 11 12 29 22 40 21 19 0 19 -1 -3 -10z m-216 -11 c-11 -6 -29 -18 -40
-27 -14 -11 -12 -7 4 12 14 15 32 27 40 27 12 -1 11 -3 -4 -12z m-620 -8 c3
-6 -1 -13 -10 -16 -13 -5 -12 -11 11 -41 32 -43 28 -49 -12 -18 -29 22 -33 34
-25 78 2 11 29 9 36 -3z m765 -37 c-1 -5 -17 -16 -36 -25 l-36 -16 23 24 c21
23 49 32 49 17z m-220 -17 c0 -2 -7 -7 -16 -10 -8 -3 -12 -2 -9 4 6 10 25 14
25 6z m-574 -30 c10 -8 17 -17 14 -19 -3 -3 -16 3 -29 14 -27 22 -15 26 15 5z
m1448 -5 c7 -10 -17 -21 -42 -21 -15 1 -14 3 2 15 23 17 33 19 40 6z m-1348
-32 c19 -22 19 -22 -3 -10 -13 6 -23 16 -23 21 0 15 5 12 26 -11z m613 8 c-2
-2 -17 -11 -34 -22 l-30 -18 19 21 c11 12 26 22 34 22 9 0 13 -1 11 -3z m-229
-11 c0 -2 -7 -7 -16 -10 -8 -3 -12 -2 -9 4 6 10 25 14 25 6z m895 -16 c-3 -5
-16 -10 -28 -10 -18 0 -19 2 -7 10 20 13 43 13 35 0z m-1314 -17 c13 -16 12
-17 -3 -4 -17 13 -22 21 -14 21 2 0 10 -8 17 -17z m1609 7 c0 -5 -9 -10 -21
-10 -11 0 -17 5 -14 10 3 6 13 10 21 10 8 0 14 -4 14 -10z m-1489 -32 c11 -21
11 -22 -4 -9 -10 7 -17 17 -17 22 0 15 9 10 21 -13z m1439 13 c0 -12 -39 -21
-45 -11 -3 5 1 11 7 13 21 9 38 8 38 -2z m-321 -19 c-7 -3 -22 -9 -31 -14 -22
-11 -23 -4 -3 16 9 8 23 12 32 9 14 -5 14 -8 2 -11z m-909 -9 c0 -5 -13 -17
-28 -27 l-27 -19 24 26 c26 28 31 32 31 20z m214 -3 c-12 -5 -25 -13 -29 -19
-3 -6 -11 -11 -17 -11 -6 0 -1 9 12 20 13 11 30 20 39 19 11 0 9 -3 -5 -9z
m951 -9 c-6 -10 -45 -22 -45 -14 0 3 8 12 17 19 18 13 37 9 28 -5z m222 -6 c2
-5 -12 -10 -29 -11 -18 0 -41 -4 -50 -8 -11 -5 -18 -4 -18 3 0 11 55 31 79 28
8 -1 16 -6 18 -12z m-547 -29 c0 -2 -14 -9 -31 -15 -27 -9 -30 -9 -19 4 11 13
50 22 50 11z m256 -14 c-7 -12 -46 -23 -46 -13 0 9 43 31 49 25 1 -1 0 -7 -3
-12z m159 -2 c-3 -5 -11 -10 -16 -10 -6 0 -7 5 -4 10 3 6 11 10 16 10 6 0 7
-4 4 -10z m-1136 -23 c-19 -13 -36 -22 -38 -21 -7 6 43 43 58 44 8 0 -1 -11
-20 -23z m-219 -12 c-13 -14 -28 -25 -34 -25 -11 1 40 50 51 50 4 0 -4 -11
-17 -25z m845 -5 c3 -5 2 -10 -4 -10 -5 0 -18 -3 -28 -7 -16 -6 -16 -5 -4 10
15 19 27 22 36 7z m285 -4 c0 -5 -60 -36 -69 -36 -12 1 42 40 55 40 8 0 14 -2
14 -4z m-971 -38 c-2 -2 -17 -14 -33 -28 -16 -14 -26 -18 -21 -10 16 29 28 40
43 40 8 0 13 -1 11 -2z m-239 -33 c-13 -14 -28 -25 -34 -25 -6 1 3 12 19 25
39 32 45 32 15 0z m849 11 c-2 -2 -15 -9 -29 -16 -23 -12 -24 -12 -11 3 7 10
20 17 29 17 8 0 13 -2 11 -4z m271 -14 c-8 -3 -24 -9 -35 -14 -16 -7 -16 -5 4
11 12 12 28 18 34 14 7 -4 6 -8 -3 -11z m-2650 -52 c0 -5 -5 -10 -11 -10 -5 0
-7 5 -4 10 3 6 8 10 11 10 2 0 4 -4 4 -10z m1680 -6 c-8 -8 -23 -20 -34 -25
-15 -7 -13 -3 7 15 31 29 47 35 27 10z m610 9 c0 -5 -15 -16 -33 -26 l-32 -19
24 26 c24 26 41 33 41 19z m289 -7 c-2 -2 -15 -9 -29 -16 -23 -12 -24 -12 -11
3 7 10 20 17 29 17 8 0 13 -2 11 -4z m-1129 -35 c-19 -16 -37 -27 -40 -25 -6
6 52 53 65 53 6 0 -6 -13 -25 -28z m1038 -36 c-2 -1 -14 -8 -28 -15 -25 -13
-25 -13 -6 8 10 12 23 19 28 16 5 -3 8 -7 6 -9z m982 5 c0 -5 -9 -10 -21 -10
-11 0 -17 5 -14 10 3 6 13 10 21 10 8 0 14 -4 14 -10z m-1885 -30 c-16 -16
-31 -28 -33 -25 -7 7 39 55 52 55 5 0 -3 -13 -19 -30z m625 26 c0 -2 -9 -6
-20 -9 -11 -3 -18 -1 -14 4 5 9 34 13 34 5z m1210 -16 c0 -5 -10 -10 -22 -10
-19 0 -20 2 -8 10 19 13 30 13 30 0z m-2030 -17 c-1 -9 -50 -47 -50 -39 0 5
41 46 47 46 2 0 3 -3 3 -7z m1641 -10 c13 -16 12 -17 -3 -4 -17 13 -22 21 -14
21 2 0 10 -8 17 -17z m343 8 c3 -5 -4 -11 -16 -14 -25 -7 -33 -3 -23 12 8 13
32 14 39 2z m-4325 -15 c-12 -10 -60 -16 -54 -6 3 5 18 10 32 10 15 0 24 -2
22 -4z m1711 -17 c0 -5 -4 -9 -10 -9 -5 0 -10 7 -10 16 0 8 5 12 10 9 6 -3 10
-10 10 -16z m1650 4 c0 -5 -12 -14 -28 -20 l-27 -13 24 20 c25 22 31 24 31 13z
m900 -2 c0 -10 -30 -24 -37 -17 -3 3 -2 9 2 15 8 13 35 15 35 2z m-1190 -8
c-8 -3 -22 -11 -30 -17 -13 -10 -13 -9 -1 7 7 9 21 17 30 16 13 0 14 -1 1 -6z
m974 -9 c5 -14 4 -15 -9 -4 -17 14 -19 20 -6 20 5 0 12 -7 15 -16z m-4064 -4
c-20 -13 -33 -13 -25 0 3 6 14 10 23 10 15 0 15 -2 2 -10z m1693 -20 c-7 -27
-13 -25 -11 4 1 14 5 23 9 20 4 -2 5 -13 2 -24z m-1754 17 c-2 -1 -12 -9 -22
-16 -15 -12 -17 -12 -11 3 3 9 13 16 22 16 8 0 13 -1 11 -3z m1731 -46 c0 -11
-3 -11 -16 0 -13 11 -14 9 -9 -17 4 -19 4 -25 -3 -16 -5 8 -12 13 -16 13 -20
-3 -25 1 -20 14 4 8 10 13 15 10 4 -3 13 4 20 16 9 17 13 19 20 8 5 -8 9 -20
9 -28z m800 14 c-13 -14 -26 -22 -29 -19 -3 3 5 14 18 25 33 27 39 24 11 -6z
m1760 16 c0 -5 -11 -11 -25 -13 -24 -5 -32 2 -18 15 9 10 43 8 43 -2z m178
-13 c-3 -7 -15 -14 -29 -16 -23 -2 -23 -2 -5 13 24 18 39 20 34 3z m-4463 -8
c-3 -5 -11 -10 -16 -10 -6 0 -7 5 -4 10 3 6 11 10 16 10 6 0 7 -4 4 -10z
m2325 -15 c-13 -14 -26 -23 -28 -20 -7 7 29 45 41 45 6 0 0 -11 -13 -25z
m-2396 -9 c-21 -15 -30 -14 -19 3 3 6 14 11 23 11 13 0 13 -2 -4 -14z m3136
10 c0 -3 -15 -15 -32 -27 l-33 -23 24 27 c22 24 41 35 41 23z m280 0 c0 -2
-12 -12 -27 -21 l-28 -18 19 21 c17 20 36 29 36 18z m870 -15 c0 -9 -52 -22
-60 -15 -7 7 23 24 43 24 9 0 17 -4 17 -9z m190 0 c0 -10 -24 -21 -43 -21 -7
0 -3 7 7 15 22 17 36 19 36 6z m-2760 -16 c0 -8 -7 -15 -15 -15 -8 0 -15 5
-15 11 0 5 5 7 10 4 6 -3 10 -1 10 4 0 6 2 11 5 11 3 0 5 -7 5 -15z m-1700 -5
c0 -5 -7 -10 -16 -10 -8 0 -12 5 -9 10 3 6 10 10 16 10 5 0 9 -4 9 -10z m2524
-13 c-2 -7 -14 -19 -27 -26 -21 -13 -21 -12 2 13 27 29 33 32 25 13z m-2594
-12 c-7 -9 -15 -13 -19 -10 -3 3 1 10 9 15 21 14 24 12 10 -5z m4463 -5 c-4
-5 -21 -12 -38 -15 l-30 -7 29 21 c28 18 58 19 39 1z m-2083 -31 c-12 -16 -25
-28 -28 -25 -5 6 36 56 45 56 3 0 -5 -14 -17 -31z m1010 27 c0 -3 -4 -8 -10
-11 -5 -3 -10 -1 -10 4 0 6 5 11 10 11 6 0 10 -2 10 -4z m870 -1 c0 -2 -15
-12 -32 -20 l-33 -16 24 21 c22 19 41 26 41 15z m-4100 -30 c0 -14 -4 -25 -8
-25 -4 0 -9 11 -10 25 -1 14 3 25 8 25 6 0 10 -11 10 -25z m33 5 c3 -10 -1
-24 -9 -31 -11 -9 -14 -6 -14 20 0 34 15 42 23 11z m2891 -5 c-15 -14 -29 -25
-32 -25 -3 0 5 11 18 25 13 14 27 25 32 25 5 0 -3 -11 -18 -25z m-3074 11 c0
-3 -4 -8 -10 -11 -5 -3 -10 -1 -10 4 0 6 5 11 10 11 6 0 10 -2 10 -4z m84 -11
c3 -8 1 -15 -4 -15 -6 0 -10 7 -10 15 0 8 2 15 4 15 2 0 6 -7 10 -15z m-124
-4 c0 -5 -7 -11 -15 -15 -15 -5 -20 5 -8 17 9 10 23 9 23 -2z m1712 -13 c-6
-6 -15 -8 -19 -4 -4 4 -1 11 7 16 19 12 27 3 12 -12z m2693 -14 c-38 -19 -44
-17 -16 6 12 11 27 17 33 14 5 -3 -3 -12 -17 -20z m-4294 -1 c10 -11 10 -14 2
-9 -14 8 -17 -3 -7 -28 9 -24 33 -20 27 4 -6 23 3 26 23 6 8 -8 11 -22 7 -31
-5 -14 -2 -16 18 -10 19 6 22 5 12 -6 -9 -9 -10 -16 -1 -26 8 -10 7 -18 -5
-31 -13 -15 -14 -20 -2 -42 16 -28 20 -53 5 -30 -9 13 -11 13 -19 1 -7 -11
-10 -7 -13 15 -2 23 -9 30 -32 34 -16 3 -32 12 -34 20 -5 13 -3 13 12 0 16
-13 18 -12 14 10 -1 14 -7 25 -13 26 -18 1 -50 17 -57 28 -5 7 -13 4 -22 -9
-9 -11 -15 -15 -16 -10 0 6 16 29 34 53 28 35 35 39 39 25 4 -14 5 -13 6 5 1
26 4 27 22 5z m2439 4 c0 -2 -12 -14 -26 -28 -25 -22 -26 -23 -15 -2 9 18 19
26 39 32 1 1 2 0 2 -2z m1659 -10 c-2 -2 -17 -11 -34 -22 l-30 -18 19 21 c11
12 26 22 34 22 9 0 13 -1 11 -3z m-892 -27 c-14 -11 -28 -20 -32 -20 -10 0 38
39 49 40 5 0 -3 -9 -17 -20z m-277 -6 c-8 -8 -23 -20 -34 -25 -15 -7 -13 -3 7
15 31 29 47 35 27 10z m-695 -24 c-10 -11 -20 -18 -23 -15 -3 3 3 14 13 25 10
11 20 18 23 15 3 -3 -3 -14 -13 -25z m1985 0 c-14 -10 -27 -17 -29 -15 -8 8
22 35 38 35 12 0 10 -5 -9 -20z m-4090 0 c0 -5 -2 -10 -4 -10 -3 0 -8 5 -11
10 -3 6 -1 10 4 10 6 0 11 -4 11 -10z m1269 -52 c-11 -9 -19 -21 -19 -27 0 -5
-4 -13 -10 -16 -14 -9 1 57 17 73 7 7 13 19 14 25 1 7 4 1 9 -13 5 -19 3 -29
-11 -42z m956 12 c-16 -16 -30 -28 -32 -26 -8 8 10 34 30 44 33 16 33 15 2
-18z m1665 22 c0 -5 -12 -14 -27 -21 -28 -13 -28 -13 -9 8 20 22 36 27 36 13z
m940 -2 c0 -5 -9 -10 -20 -10 -11 0 -20 5 -20 10 0 6 9 10 20 10 11 0 20 -4
20 -10z m-4837 -35 c-3 -30 -23 -61 -23 -34 0 8 5 20 12 27 8 8 8 12 1 12 -6
0 -13 6 -16 14 -4 9 0 13 11 11 12 -1 16 -10 15 -30z m-153 15 c0 -5 -5 -10
-11 -10 -5 0 -7 5 -4 10 3 6 8 10 11 10 2 0 4 -4 4 -10z m3169 7 c-2 -1 -13
-9 -24 -17 -19 -14 -19 -14 -6 3 7 9 18 17 24 17 6 0 8 -1 6 -3z m1776 -6 c6
-11 -33 -26 -43 -16 -4 3 0 10 8 15 19 12 27 12 35 1z m-5015 -11 c0 -5 -5
-10 -11 -10 -5 0 -7 5 -4 10 3 6 8 10 11 10 2 0 4 -4 4 -10z m2940 -6 c-8 -8
-23 -20 -34 -25 -13 -6 -10 0 9 15 34 29 43 33 25 10z m-2910 -4 c0 -5 -4 -10
-10 -10 -5 0 -10 5 -10 10 0 6 5 10 10 10 6 0 10 -4 10 -10z m1525 0 c3 -5 1
-10 -4 -10 -6 0 -11 5 -11 10 0 6 2 10 4 10 3 0 8 -4 11 -10z m2705 2 c0 -4
-15 -16 -32 -26 l-33 -19 24 26 c24 27 41 34 41 19z m-4454 -53 c14 -28 23
-53 21 -56 -5 -4 -57 91 -57 103 0 14 13 -3 36 -47z m5154 41 c0 -5 -12 -10
-26 -10 -14 0 -23 4 -19 10 3 6 15 10 26 10 10 0 19 -4 19 -10z m-5190 -33 c0
-5 -4 -5 -10 -2 -5 3 -10 14 -10 23 0 15 2 15 10 2 5 -8 10 -19 10 -23z m524
21 c-3 -4 -16 -8 -30 -8 -13 0 -24 4 -24 8 0 5 13 9 30 9 16 0 27 -4 24 -9z
m1046 8 c0 -2 -11 -11 -25 -20 -14 -9 -25 -13 -25 -8 0 5 10 14 23 20 27 13
27 13 27 8z m931 -32 c-11 -15 -21 -24 -21 -20 0 10 34 55 39 51 2 -2 -6 -16
-18 -31z m2937 14 c-3 -7 -14 -14 -26 -16 -12 -2 -22 -10 -22 -18 0 -8 -10
-14 -22 -14 -24 0 -22 3 24 36 37 26 52 30 46 12z m-1168 -1 c0 -2 -15 -14
-32 -27 l-33 -23 24 26 c21 23 41 35 41 24z m864 -6 c7 -10 -17 -21 -42 -21
-15 1 -14 3 2 15 23 17 33 19 40 6z m-4766 -19 c2 -7 -3 -12 -12 -12 -9 0 -16
7 -16 16 0 17 22 14 28 -4z m166 2 c3 -8 2 -12 -4 -9 -6 3 -10 10 -10 16 0 14
7 11 14 -7z m1039 -9 c-3 -9 -8 -14 -10 -11 -3 3 -2 9 2 15 9 16 15 13 8 -4z
m1037 -25 c-12 -17 -24 -29 -27 -26 -3 3 5 19 17 36 12 17 24 29 27 26 3 -3
-5 -19 -17 -36z m770 37 c0 -2 -12 -14 -27 -28 l-28 -24 24 28 c23 25 31 32
31 24z m-1930 -11 c0 -3 -4 -8 -10 -11 -5 -3 -10 -1 -10 4 0 6 5 11 10 11 6 0
10 -2 10 -4z m2953 -17 c-12 -4 -24 -12 -28 -18 -3 -6 -12 -11 -18 -11 -7 0 1
12 16 25 16 14 33 22 39 18 7 -4 3 -9 -9 -14z m1213 9 c4 -5 -7 -8 -24 -8 -18
0 -32 -4 -32 -10 0 -5 -6 -7 -14 -4 -8 3 -13 11 -10 17 5 13 68 16 80 5z
m-5586 -31 c0 -5 -4 -5 -10 -2 -5 3 -10 14 -10 23 0 15 2 15 10 2 5 -8 10 -19
10 -23z m3040 8 c-13 -14 -28 -25 -34 -25 -6 1 3 12 19 25 39 32 45 32 15 0z
m924 -1 c3 -8 2 -12 -4 -9 -6 3 -10 10 -10 16 0 14 7 11 14 -7z m1074 4 c-3
-7 -15 -15 -28 -16 -21 -3 -22 -2 -11 12 16 19 44 21 39 4z m-3618 -8 c0 -5
-4 -10 -10 -10 -5 0 -10 5 -10 10 0 6 5 10 10 10 6 0 10 -4 10 -10z m3880 -5
c-7 -8 -17 -12 -22 -9 -6 4 -5 10 3 15 22 14 33 10 19 -6z m-3848 -17 c-7 -7
-12 -8 -12 -2 0 14 12 26 19 19 2 -3 -1 -11 -7 -17z m2695 -8 c-14 -11 -29
-20 -34 -20 -11 1 37 40 49 40 6 0 -1 -9 -15 -20z m-4077 -34 c0 -5 -7 -3 -15
4 -8 7 -15 20 -15 28 0 13 3 12 15 -4 8 -10 15 -23 15 -28z m131 25 c13 -11
21 -23 16 -27 -10 -10 -57 16 -57 33 0 18 14 16 41 -6z m-167 -30 c-6 -6 -24
19 -24 34 1 6 7 1 15 -9 8 -11 12 -22 9 -25z m2236 24 c-7 -9 -15 -13 -19 -10
-3 3 1 10 9 15 21 14 24 12 10 -5z m148 -5 c-7 -10 -14 -18 -15 -16 -6 6 9 36
18 36 5 0 4 -9 -3 -20z m821 -10 c-13 -16 -25 -28 -27 -25 -5 5 37 55 45 55 2
0 -6 -13 -18 -30z m1731 20 c0 -9 -32 -30 -46 -30 -4 0 1 9 11 20 19 21 35 26
35 10z m290 0 c-20 -13 -43 -13 -35 0 3 6 16 10 28 10 18 0 19 -2 7 -10z m295
0 c3 -5 2 -10 -4 -10 -5 0 -13 5 -16 10 -3 6 -2 10 4 10 5 0 13 -4 16 -10z
m-5261 -44 c18 -29 20 -36 7 -36 -18 0 -73 58 -67 69 10 15 39 -1 60 -33z
m4016 41 c0 -2 -15 -14 -32 -27 l-33 -23 24 26 c21 23 41 35 41 24z m-1789
-64 c-11 -21 -20 -32 -21 -25 0 17 30 75 36 69 3 -3 -4 -22 -15 -44z m434 27
c-10 -11 -23 -20 -29 -20 -6 1 0 10 13 20 30 26 39 26 16 0z m2231 -6 c-22
-16 -36 -18 -36 -6 0 11 43 32 50 25 3 -3 -4 -11 -14 -19z m424 6 c0 -5 -4
-10 -10 -10 -5 0 -10 5 -10 10 0 6 5 10 10 10 6 0 10 -4 10 -10z m-5530 -44
c0 -5 -7 -1 -15 10 -8 10 -14 24 -14 29 0 6 6 1 14 -9 8 -11 15 -24 15 -30z
m34 5 c-6 -6 -24 19 -24 34 1 6 7 1 15 -9 8 -11 12 -22 9 -25z m271 16 c4 5 6
3 2 -2 -3 -6 1 -18 8 -28 11 -15 13 -15 18 -2 8 19 35 9 62 -22 16 -18 23 -21
33 -11 9 9 20 5 47 -22 19 -19 35 -38 35 -42 0 -14 -21 -9 -47 12 -14 11 -33
20 -42 20 -23 0 -71 23 -71 34 0 5 -7 3 -15 -4 -12 -10 -15 -10 -15 0 0 8 -3
11 -6 7 -3 -3 -17 5 -29 18 -13 12 -29 25 -36 27 -7 2 -10 11 -6 21 6 16 9 16
30 2 13 -8 27 -12 32 -8z m3705 10 c0 -2 -13 -13 -30 -25 -35 -26 -40 -22 -8
8 19 18 38 26 38 17z m810 -5 c0 -8 -43 -32 -57 -32 -3 0 2 9 12 20 18 20 45
27 45 12z m750 -23 c0 -6 -4 -7 -10 -4 -5 3 -10 11 -10 16 0 6 5 7 10 4 6 -3
10 -11 10 -16z m-3460 -4 c-7 -9 -15 -13 -17 -11 -7 7 7 26 19 26 6 0 6 -6 -2
-15z m114 1 c-10 -8 -21 -12 -24 -10 -5 6 21 24 34 24 6 0 1 -6 -10 -14z
m2817 -7 c-13 -11 -27 -17 -30 -13 -7 7 28 34 43 34 6 -1 0 -10 -13 -21z
m-1941 7 c0 -2 -12 -11 -27 -20 l-28 -17 24 20 c23 21 31 25 31 17z m1024 -26
c-16 -16 -30 -27 -33 -25 -6 7 40 55 52 55 5 0 -4 -13 -19 -30z m-4044 -24 c0
-6 -7 -2 -15 8 -8 11 -15 25 -15 30 0 6 7 2 15 -8 8 -11 15 -25 15 -30z m2220
7 c-11 -17 -11 -17 -6 0 3 10 6 24 7 30 0 9 2 9 5 0 3 -7 0 -20 -6 -30z
m-2260 -1 c0 -15 -2 -15 -10 -2 -13 20 -13 33 0 25 6 -3 10 -14 10 -23z m2755
8 c-10 -11 -23 -20 -29 -20 -6 1 0 10 13 20 30 26 39 26 16 0z m2825 11 c0
-26 -14 -71 -22 -71 -5 0 -16 -7 -24 -15 -8 -8 -22 -11 -31 -8 -14 5 -13 8 8
17 29 13 40 27 34 44 -2 6 2 12 10 12 8 0 15 4 15 10 0 5 -7 7 -15 4 -8 -4
-15 -1 -15 5 0 6 9 11 20 11 11 0 20 -4 20 -9z m-900 -26 c-14 -7 -27 -11 -30
-9 -6 7 22 24 40 23 9 0 5 -6 -10 -14z m-805 -19 c-16 -13 -32 -22 -34 -20 -5
5 42 43 54 44 6 0 -3 -11 -20 -24z m1075 16 c0 -11 -41 -34 -48 -27 -4 4 2 13
12 21 22 15 36 18 36 6z m-2955 -12 c-3 -5 -11 -10 -16 -10 -6 0 -7 5 -4 10 3
6 11 10 16 10 6 0 7 -4 4 -10z m125 1 c0 -5 -7 -12 -16 -15 -14 -5 -15 -4 -4
9 14 17 20 19 20 6z m260 -6 c0 -8 -2 -15 -4 -15 -2 0 -6 7 -10 15 -3 8 -1 15
4 15 6 0 10 -7 10 -15z m2748 -10 c-3 -3 -9 2 -12 12 -6 14 -5 15 5 6 7 -7 10
-15 7 -18z m469 -7 c-3 -7 -5 -2 -5 12 0 14 2 19 5 13 2 -7 2 -19 0 -25z
m-5522 1 c10 -30 0 -33 -13 -4 -6 14 -7 25 -2 25 5 0 12 -9 15 -21z m-35 -15
c0 -8 -4 -12 -10 -9 -5 3 -10 13 -10 21 0 8 5 12 10 9 6 -3 10 -13 10 -21z
m524 -33 c19 -21 19 -21 0 -21 -25 0 -83 51 -77 68 5 14 43 -9 77 -47z m2396
49 c0 -5 -10 -15 -22 -21 -23 -12 -23 -12 -4 10 21 23 26 26 26 11z m1070 -3
c0 -2 -14 -14 -31 -26 -28 -21 -30 -21 -20 -3 10 19 25 29 44 31 4 1 7 0 7 -2z
m1161 -14 c13 -16 12 -17 -3 -4 -10 7 -18 15 -18 17 0 8 8 3 21 -13z m-2521
-13 c-14 -11 -29 -20 -35 -20 -5 0 1 9 15 20 14 11 30 20 35 20 6 0 -1 -9 -15
-20z m1935 -4 c-16 -13 -32 -22 -34 -20 -8 7 32 44 48 44 11 0 6 -8 -14 -24z
m-2346 -33 c-1 -37 -3 -42 -8 -23 -7 24 -3 70 5 70 2 0 4 -21 3 -47z m2607 32
c-11 -8 -25 -15 -30 -15 -6 0 -2 7 8 15 11 8 25 15 30 15 6 0 2 -7 -8 -15z
m285 -2 c13 -16 12 -17 -3 -4 -10 7 -18 15 -18 17 0 8 8 3 21 -13z m439 7 c0
-5 -4 -10 -10 -10 -5 0 -10 5 -10 10 0 6 5 10 10 10 6 0 10 -4 10 -10z m-4914
-67 c-8 -8 -86 30 -86 42 0 25 14 23 52 -6 21 -17 37 -34 34 -36z m1739 19
c-9 -9 -25 11 -25 31 1 21 1 21 15 -3 7 -14 12 -27 10 -28z m2855 38 c0 -5 -2
-10 -4 -10 -3 0 -8 5 -11 10 -3 6 -1 10 4 10 6 0 11 -4 11 -10z m210 -11 c0
-5 -9 -9 -20 -9 -19 0 -26 11 -14 23 8 8 34 -3 34 -14z m-5400 -29 c0 -13 -1
-13 -10 0 -5 8 -10 22 -10 30 0 13 1 13 10 0 5 -8 10 -22 10 -30z m40 12 c0
-15 -2 -15 -10 -2 -13 20 -13 33 0 25 6 -3 10 -14 10 -23z m1930 23 c0 -2 -10
-10 -22 -16 -21 -11 -22 -11 -9 4 13 16 31 23 31 12z m1765 -7 c-11 -6 -26
-17 -32 -26 -7 -9 -15 -13 -18 -11 -8 9 35 49 53 49 14 -1 14 -2 -3 -12z
m1530 1 c11 -17 2 -18 -19 -3 -17 12 -17 14 -4 14 9 0 20 -5 23 -11z m79 -14
c16 -24 16 -25 -4 -25 -14 0 -19 4 -14 12 4 6 -1 17 -11 25 -16 11 -16 13 -3
13 9 0 23 -11 32 -25z m118 3 c-6 -6 -15 -8 -19 -4 -4 4 -1 11 7 16 8 5 17 7
19 4 3 -2 -1 -10 -7 -16z m-307 2 c3 -5 2 -10 -4 -10 -5 0 -13 5 -16 10 -3 6
-2 10 4 10 5 0 13 -4 16 -10z m270 -10 c3 -6 -4 -10 -17 -10 -18 0 -20 2 -8
10 19 12 18 12 25 0z m507 -14 c4 -18 -4 -34 -30 -60 -19 -20 -41 -36 -48 -36
-8 0 -14 -4 -14 -9 0 -5 -9 -11 -20 -14 -25 -6 -27 11 -2 20 9 4 28 17 42 30
14 13 28 23 32 23 5 0 8 7 8 15 0 8 6 15 13 16 9 0 9 2 0 5 -7 3 -9 12 -6 20
8 22 20 17 25 -10z m-5267 -6 c29 -18 54 -50 39 -50 -18 0 -84 43 -84 55 0 20
6 19 45 -5z m2115 0 c-24 -19 -40 -25 -40 -15 0 5 51 34 60 34 3 0 -6 -8 -20
-19z m-280 0 c-20 -13 -40 -13 -40 0 0 6 12 10 28 10 21 0 24 -2 12 -10z
m1353 -20 c-30 -32 -33 -34 -33 -22 0 12 39 52 51 52 6 0 -2 -13 -18 -30z
m852 10 c-16 -10 -32 -17 -35 -14 -7 8 31 34 49 34 10 0 4 -8 -14 -20z m303 7
c8 -10 2 -20 -24 -40 -34 -28 -54 -28 -54 -2 0 13 45 55 60 55 4 0 12 -6 18
-13z m-3234 -12 c-10 -8 -23 -14 -29 -14 -5 0 -1 6 9 14 11 8 24 15 30 15 5 0
1 -7 -10 -15z m636 0 c14 -16 10 -18 -14 -9 -9 3 -16 10 -16 15 0 14 16 11 30
-6z m2037 -5 c-14 -11 -29 -20 -33 -20 -4 0 1 9 11 20 10 11 25 20 33 20 9 0
6 -7 -11 -20z m-4357 -33 c0 -5 -7 -4 -15 3 -8 7 -15 20 -15 29 1 13 3 13 15
-3 8 -11 15 -24 15 -29z m720 -19 c0 -11 -5 -10 -45 9 -33 16 -43 32 -29 46 7
7 74 -44 74 -55z m-767 32 c3 -11 1 -20 -4 -20 -5 0 -9 2 -9 4 0 2 -3 11 -6
20 -3 9 -2 16 4 16 5 0 12 -9 15 -20z m1847 15 c0 -2 -10 -10 -22 -16 -21 -11
-22 -11 -9 4 13 16 31 23 31 12z m1748 -40 c-12 -14 -23 -25 -25 -25 -2 0 4
11 13 25 9 14 20 25 25 25 5 0 -1 -11 -13 -25z m1412 15 c0 -5 -2 -10 -4 -10
-3 0 -8 5 -11 10 -3 6 -1 10 4 10 6 0 11 -4 11 -10z m-4146 -35 c44 -39 35
-45 -24 -15 -39 20 -47 30 -33 43 11 11 16 9 57 -28z m4240 15 c4 -4 7 -12 5
-17 -2 -5 -20 2 -39 15 l-35 25 30 -7 c17 -4 34 -11 39 -16z m-3434 5 c0 -2
-10 -9 -22 -15 -22 -11 -22 -10 -4 4 21 17 26 19 26 11z m514 -44 c-7 -9 -24
13 -24 32 0 21 1 21 13 -3 8 -14 12 -27 11 -29z m461 29 c-10 -11 -21 -18 -23
-15 -3 3 3 12 14 20 27 20 30 18 9 -5z m1960 10 c-3 -5 -16 -15 -28 -21 -22
-12 -22 -12 -3 10 19 21 43 30 31 11z m380 -1 c11 -17 -1 -21 -15 -4 -8 9 -8
15 -2 15 6 0 14 -5 17 -11z m-4900 -39 c5 -17 4 -22 -3 -15 -5 6 -13 21 -17
35 -5 17 -4 22 3 15 5 -5 13 -21 17 -35z m3675 22 c-8 -3 -26 -14 -40 -26 -22
-19 -23 -19 -10 -1 22 29 43 44 54 37 6 -3 3 -8 -4 -10z m-3716 -42 c-7 -6
-24 22 -23 40 0 9 6 5 14 -10 7 -14 11 -27 9 -30z m4306 47 c0 -2 -15 -14 -32
-27 l-33 -23 24 26 c21 23 41 35 41 24z m851 -16 c35 -28 20 -32 -20 -4 -19
13 -27 23 -19 23 9 0 26 -9 39 -19z m-4243 -8 c39 -25 55 -43 48 -51 -11 -10
-80 31 -84 51 -4 21 2 21 36 0z m807 7 c-3 -5 -11 -10 -16 -10 -6 0 -7 5 -4
10 3 6 11 10 16 10 6 0 7 -4 4 -10z m3303 -15 c3 -18 3 -18 -10 -4 -7 9 -20
19 -28 23 -8 3 -4 4 10 3 16 -1 26 -9 28 -22z m582 5 c0 -5 -16 -10 -36 -10
-21 0 -33 4 -29 10 3 6 19 10 36 10 16 0 29 -4 29 -10z m-326 -21 c18 -17 1
-15 -34 3 -35 18 -35 18 -5 12 17 -4 34 -10 39 -15z m426 13 c0 -10 -60 -32
-86 -32 -18 1 -18 1 -1 11 10 6 21 8 24 5 3 -3 12 1 20 9 15 16 43 20 43 7z
m-4620 -66 c-5 -5 -28 -1 -53 9 -35 13 -44 21 -40 35 5 18 8 17 53 -8 28 -15
45 -31 40 -36z m2397 28 c-15 -15 -27 -23 -27 -19 0 12 42 56 48 50 3 -3 -7
-17 -21 -31z m1609 20 c18 -14 18 -14 -6 -3 -31 14 -36 19 -24 19 6 0 19 -7
30 -16z m424 7 c0 -5 -18 -9 -40 -9 -23 -1 -38 3 -35 9 8 12 75 12 75 0z
m-3985 -11 c-3 -5 -11 -10 -16 -10 -6 0 -7 5 -4 10 3 6 11 10 16 10 6 0 7 -4
4 -10z m685 -15 c13 -14 19 -25 14 -25 -11 1 -54 36 -54 44 0 13 18 5 40 -19z
m300 10 c-14 -8 -32 -14 -40 -14 -8 0 -1 7 15 14 39 18 57 18 25 0z m1970 5
c0 -5 -5 -10 -12 -10 -6 0 -20 -7 -30 -17 -10 -9 -18 -13 -18 -10 0 9 42 47
52 47 4 0 8 -4 8 -10z m915 1 c3 -6 -10 -7 -32 -4 -50 8 -55 13 -10 13 20 0
38 -4 42 -9z m-5365 -51 c0 -13 -1 -13 -10 0 -5 8 -10 22 -10 30 0 13 1 13 10
0 5 -8 10 -22 10 -30z m40 20 c0 -11 -2 -20 -4 -20 -2 0 -6 9 -9 20 -3 11 -1
20 4 20 5 0 9 -9 9 -20z m1560 5 c-7 -9 -15 -13 -19 -10 -3 3 1 10 9 15 21 14
24 12 10 -5z m3560 5 c0 -5 -2 -10 -4 -10 -3 0 -8 5 -11 10 -3 6 -1 10 4 10 6
0 11 -4 11 -10z m390 0 c0 -5 -11 -10 -25 -10 -14 0 -25 5 -25 10 0 6 11 10
25 10 14 0 25 -4 25 -10z m-4412 -36 l47 -37 -34 7 c-38 7 -71 32 -71 53 0 19
6 17 58 -23z m4107 26 c4 -7 -3 -8 -22 -4 -38 9 -42 14 -10 14 14 0 29 -5 32
-10z m83 -10 c5 -13 3 -13 -11 -1 -9 7 -24 11 -32 7 -10 -3 -13 -2 -10 5 10
15 47 7 53 -11z m146 12 c3 -5 -8 -9 -25 -10 -16 0 -27 4 -24 9 8 11 42 12 49
1z m-1889 -32 c-16 -16 -31 -28 -33 -25 -7 7 39 55 52 55 5 0 -3 -13 -19 -30z
m595 20 c-8 -6 -24 -16 -35 -22 -20 -11 -20 -11 -1 11 11 11 26 21 35 21 14 0
14 -2 1 -10z m1220 1 c0 -5 -9 -7 -20 -4 -11 3 -20 7 -20 9 0 2 9 4 20 4 11 0
20 -4 20 -9z m-3980 -16 c-7 -8 -18 -15 -24 -15 -6 0 -2 7 8 15 25 19 32 19
16 0z m840 0 c11 -13 10 -14 -4 -9 -9 3 -16 10 -16 15 0 13 6 11 20 -6z m115
5 c-3 -5 -19 -10 -36 -10 -16 0 -29 5 -29 10 0 6 16 10 36 10 21 0 33 -4 29
-10z m-1115 -52 c0 -13 -16 -9 -40 10 -14 12 -20 24 -16 31 6 9 14 7 32 -10
13 -12 24 -26 24 -31z m257 16 c-16 -9 -32 -13 -35 -9 -9 9 19 25 43 24 16 0
15 -2 -8 -15z m2853 12 c0 -2 -12 -12 -27 -21 l-28 -18 19 21 c17 20 36 29 36
18z m-4290 -37 c0 -11 -4 -17 -10 -14 -5 3 -10 15 -10 26 0 11 5 17 10 14 6
-3 10 -15 10 -26z m3305 -13 c-28 -37 -35 -42 -35 -27 0 13 51 73 57 67 3 -3
-7 -21 -22 -40z m-3346 -9 c1 -5 -3 -5 -9 -2 -5 3 -10 16 -9 28 0 21 1 21 9 2
5 -11 9 -24 9 -28z m1305 19 c-10 -8 -21 -12 -24 -10 -5 6 21 24 34 24 6 0 1
-6 -10 -14z m2764 0 c-2 -1 -19 -13 -38 -26 l-35 -23 29 31 c16 17 33 29 38
26 5 -3 8 -7 6 -8z m-1194 -21 c3 -8 1 -15 -4 -15 -6 0 -10 7 -10 15 0 8 2 15
4 15 2 0 6 -7 10 -15z m601 -29 c-15 -20 -29 -36 -32 -36 -6 0 18 43 35 63 27
31 25 9 -3 -27z m-2071 19 c-25 -19 -40 -19 -24 0 7 8 20 15 28 15 13 0 12 -3
-4 -15z m3351 -5 c3 -6 -1 -7 -9 -4 -18 7 -21 14 -7 14 6 0 13 -4 16 -10z
m-495 -3 c0 -2 -15 -14 -32 -27 l-33 -23 24 26 c21 23 41 35 41 24z m-4181
-55 c1 -7 -3 -10 -9 -7 -5 3 -10 18 -9 33 0 24 1 25 9 7 5 -11 9 -26 9 -33z
m1170 44 c-2 -2 -15 -9 -29 -15 -24 -11 -24 -11 -6 3 16 13 49 24 35 12z
m-1220 -33 c0 -25 -1 -26 -9 -8 -12 27 -12 35 0 35 6 0 10 -12 9 -27z m2911
17 c0 -5 -4 -10 -10 -10 -5 0 -10 5 -10 10 0 6 5 10 10 10 6 0 10 -4 10 -10z
m1930 0 c0 -5 -2 -10 -4 -10 -3 0 -8 5 -11 10 -3 6 -1 10 4 10 6 0 11 -4 11
-10z m73 -7 c-7 -2 -19 -2 -25 0 -7 3 -2 5 12 5 14 0 19 -2 13 -5z m-1641 -58
c-12 -36 -18 -44 -20 -28 -3 20 25 89 33 81 2 -2 -4 -26 -13 -53z m658 30
c-13 -14 -26 -23 -28 -20 -7 7 29 45 41 45 6 0 0 -11 -13 -25z m1020 15 c0 -5
-2 -10 -4 -10 -3 0 -8 5 -11 10 -3 6 -1 10 4 10 6 0 11 -4 11 -10z m-3650 -10
c-20 -13 -33 -13 -25 0 3 6 14 10 23 10 15 0 15 -2 2 -10z m-160 -5 c0 -2 -10
-10 -22 -16 -21 -11 -22 -11 -9 4 13 16 31 23 31 12z m1680 -28 c0 -5 -4 -5
-10 -2 -5 3 -10 14 -10 23 0 15 2 15 10 2 5 -8 10 -19 10 -23z m225 23 c3 -5
2 -10 -4 -10 -5 0 -13 5 -16 10 -3 6 -2 10 4 10 5 0 13 -4 16 -10z m1812 4
c-3 -3 -12 -4 -19 -1 -8 3 -5 6 6 6 11 1 17 -2 13 -5z m170 0 c-3 -3 -12 -4
-19 -1 -8 3 -5 6 6 6 11 1 17 -2 13 -5z m1879 -15 c42 -25 44 -41 5 -26 -17 6
-28 15 -25 19 3 4 -2 8 -10 8 -9 0 -16 5 -16 10 0 15 9 13 46 -11z m-2011 1
c3 -6 -1 -7 -9 -4 -18 7 -21 14 -7 14 6 0 13 -4 16 -10z m-745 -4 c0 -3 -15
-15 -32 -27 l-33 -23 24 27 c22 24 41 35 41 23z m973 -3 c-7 -2 -19 -2 -25 0
-7 3 -2 5 12 5 14 0 19 -2 13 -5z m-1727 -49 c-8 -21 -15 -31 -15 -22 -1 21
18 72 24 66 3 -3 -1 -22 -9 -44z m1598 37 c3 -4 -6 -6 -19 -3 -14 2 -25 6 -25
8 0 8 39 4 44 -5z m166 -1 c0 -5 -2 -10 -4 -10 -3 0 -8 5 -11 10 -3 6 -1 10 4
10 6 0 11 -4 11 -10z m1855 -6 c35 -23 31 -33 -9 -20 -19 6 -33 14 -30 17 2 4
-2 10 -8 12 -8 3 -6 6 5 6 10 1 29 -6 42 -15z m-6926 -39 l0 -20 -9 20 c-5 11
-9 27 -9 35 -1 13 0 13 9 0 5 -8 9 -24 9 -35z m5141 29 c0 -2 -7 -4 -15 -4 -8
0 -15 4 -15 10 0 5 7 7 15 4 8 -4 15 -8 15 -10z m1877 -5 c35 -22 40 -39 5
-20 -11 6 -22 7 -26 4 -3 -3 -6 1 -6 10 0 8 -10 18 -22 20 -18 3 -19 5 -4 6
10 0 34 -9 53 -20z m-7067 -11 c0 -19 -2 -20 -10 -8 -13 19 -13 30 0 30 6 0
10 -10 10 -22z m1190 18 c0 -2 -7 -6 -15 -10 -8 -3 -15 -1 -15 4 0 6 7 10 15
10 8 0 15 -2 15 -4z m1660 -11 c7 -8 8 -15 2 -15 -5 0 -15 7 -22 15 -7 8 -8
15 -2 15 5 0 15 -7 22 -15z m2215 5 c3 -6 -1 -7 -9 -4 -18 7 -21 14 -7 14 6 0
13 -4 16 -10z m160 -1 c11 -17 -1 -21 -15 -4 -8 9 -8 15 -2 15 6 0 14 -5 17
-11z m1936 -11 c24 -12 37 -24 30 -26 -6 -2 -18 1 -26 8 -8 6 -19 9 -25 5 -5
-3 -10 -1 -10 4 0 6 -7 11 -15 11 -8 0 -15 5 -15 10 0 15 15 12 61 -12z m768
2 c12 0 21 -6 21 -14 0 -12 -5 -12 -30 1 -17 8 -37 12 -45 9 -9 -3 -12 0 -8 9
4 11 10 12 23 5 10 -6 28 -10 39 -10z m-6903 1 c-3 -5 -16 -11 -28 -14 -22 -6
-22 -5 -4 8 22 17 40 20 32 6z m2788 -25 c-16 -14 -33 -25 -39 -25 -5 0 5 13
23 30 19 17 36 28 39 25 3 -3 -8 -16 -23 -30z m3966 25 c0 -6 -17 -7 -37 -4
-52 8 -54 13 -5 13 23 0 42 -4 42 -9z m54 -7 c5 -12 2 -15 -10 -10 -8 3 -21 6
-27 6 -7 0 -6 4 3 10 21 14 27 12 34 -6z m-2660 -2 c3 -5 -8 -6 -25 -4 -16 2
-29 6 -29 8 0 8 49 4 54 -4z m140 2 c9 -3 16 -11 16 -16 0 -7 -4 -7 -12 0 -7
5 -24 12 -38 15 -22 4 -22 4 -3 6 12 0 28 -2 37 -5z m1954 -10 c37 -18 42 -29
10 -18 -13 4 -29 7 -35 7 -7 0 -13 4 -13 8 0 4 -8 10 -17 12 -15 4 -14 5 3 6
11 0 35 -6 52 -15z m444 -3 c5 -4 -10 -7 -31 -6 -21 0 -37 3 -35 7 2 4 -4 9
-13 11 -10 2 2 2 27 0 25 -3 48 -8 52 -12z m-4792 -1 c0 -5 -4 -10 -10 -10 -5
0 -10 5 -10 10 0 6 5 10 10 10 6 0 10 -4 10 -10z m157 4 c-3 -3 -12 -4 -19 -1
-8 3 -5 6 6 6 11 1 17 -2 13 -5z m1770 -9 c0 -8 -4 -15 -9 -15 -4 0 -8 7 -8
15 0 8 4 15 8 15 5 0 9 -7 9 -15z m2517 5 c14 -5 26 -14 26 -20 0 -7 -6 -8
-17 -2 -10 5 -24 7 -32 4 -8 -3 -11 0 -7 6 3 6 -4 12 -16 15 -23 4 -23 4 -1 6
12 0 33 -3 47 -9z m90 1 c3 -5 -1 -12 -10 -15 -8 -3 -12 -2 -9 3 3 5 -7 12
-22 14 -27 4 -27 4 4 6 17 0 34 -3 37 -8z m-4459 -11 c8 -13 -5 -13 -25 0 -13
8 -13 10 2 10 9 0 20 -4 23 -10z m1925 -20 c0 -15 -5 -12 -26 11 -19 22 -19
22 4 10 12 -6 22 -16 22 -21z m48 11 l22 -18 -30 1 c-27 1 -45 16 -19 16 5 0
7 5 4 10 -9 15 0 12 23 -9z m302 9 c11 -8 7 -9 -15 -4 -37 8 -45 14 -19 14 10
0 26 -5 34 -10z m156 -6 c10 -8 13 -12 6 -9 -8 4 -26 11 -40 15 -22 7 -23 8
-6 9 11 1 29 -6 40 -15z m2074 0 c0 -2 -7 -4 -15 -4 -8 0 -15 4 -15 10 0 5 7
7 15 4 8 -4 15 -8 15 -10z m-6400 -14 c-8 -5 -17 -7 -19 -4 -3 3 1 9 9 14 8 5
17 7 19 4 3 -3 -1 -9 -9 -14z m2899 -9 c-13 -11 -28 -20 -32 -21 -4 0 5 11 20
24 15 13 30 23 32 20 2 -2 -7 -12 -20 -23z m-3049 10 c0 -5 -10 -11 -22 -14
-22 -6 -22 -6 -4 8 23 17 26 18 26 6z m4104 -12 c5 -5 6 -12 1 -16 -4 -5 -10
-2 -12 5 -3 6 -11 12 -18 12 -8 0 -17 5 -21 11 -7 13 35 3 50 -12z m346 -5 c0
-2 -9 0 -20 6 -11 6 -20 13 -20 16 0 2 9 0 20 -6 11 -6 20 -13 20 -16z m-2176
-33 c1 -22 -1 -38 -6 -35 -4 3 -8 24 -8 46 0 52 12 43 14 -11z m2276 40 c-23
-6 -23 -8 -6 -14 10 -4 16 -10 13 -13 -9 -9 -48 16 -42 27 4 5 18 9 33 8 l27
-1 -25 -7z m-5408 -31 c3 -16 3 -30 1 -30 -7 0 -21 45 -16 53 7 13 11 8 15
-23z m5008 20 c0 -5 -7 -10 -16 -10 -8 0 -12 5 -9 10 3 6 10 10 16 10 5 0 9
-4 9 -10z m450 0 c0 -5 -2 -10 -4 -10 -3 0 -8 5 -11 10 -3 6 -1 10 4 10 6 0
11 -4 11 -10z m-5513 -22 c-3 -8 -6 -5 -6 6 -1 11 2 17 5 13 3 -3 4 -12 1 -19z
m4888 12 c3 -5 1 -10 -4 -10 -6 0 -11 5 -11 10 0 6 2 10 4 10 3 0 8 -4 11 -10z
m265 -5 c11 -13 10 -14 -4 -9 -9 3 -16 10 -16 15 0 13 6 11 20 -6z m-1847 -15
c3 -11 1 -20 -4 -20 -5 0 -9 9 -9 20 0 11 2 20 4 20 2 0 6 -9 9 -20z m2274 13
c-4 -3 -2 -12 4 -20 8 -9 8 -13 1 -13 -6 0 -14 5 -17 10 -3 6 -18 11 -33 11
-24 1 -23 3 8 9 19 4 37 8 39 9 2 0 1 -2 -2 -6z m48 -3 c8 -13 -5 -13 -25 0
-13 8 -13 10 2 10 9 0 20 -4 23 -10z m-4795 -9 c0 -5 -10 -11 -22 -14 -22 -6
-22 -6 -4 8 23 17 26 18 26 6z m170 4 c0 -2 -9 -9 -20 -15 -16 -9 -18 -8 -14
5 5 13 34 22 34 10z m2675 -5 c-3 -5 -16 -15 -28 -21 -22 -12 -22 -12 -3 10
19 21 43 30 31 11z m1432 4 c-3 -3 -12 -4 -19 -1 -8 3 -5 6 6 6 11 1 17 -2 13
-5z m227 -19 c-4 -10 -12 -11 -35 -3 -36 13 -30 26 10 20 19 -3 28 -9 25 -17z
m386 5 c11 -8 7 -9 -15 -4 -37 8 -45 14 -19 14 10 0 26 -5 34 -10z m-1840 -25
c-13 -14 -28 -25 -33 -25 -6 0 0 11 13 25 13 14 28 25 33 25 6 0 0 -11 -13
-25z m1545 -8 c-14 -5 -31 -4 -42 2 -11 6 -13 11 -5 11 7 0 11 4 8 8 -3 5 10
4 29 -2 35 -11 35 -11 10 -19z m263 18 c12 -11 -5 -10 -38 2 l-35 14 34 -6
c19 -3 37 -7 39 -10z m142 -5 c8 -5 12 -11 10 -14 -3 -2 -14 2 -24 10 -22 15
-10 19 14 4z m-1519 -21 c21 -18 21 -20 4 -13 -11 4 -29 7 -41 7 -11 0 -21 6
-21 13 0 21 31 17 58 -7z m1217 -7 c15 -20 16 -42 0 -42 -6 0 -8 3 -5 6 8 9
-11 44 -24 44 -6 0 -6 -7 1 -20 10 -19 10 -20 -9 -8 -11 6 -17 16 -15 20 3 4
0 8 -5 8 -6 0 -11 5 -11 10 0 15 53 1 68 -18z m258 18 c42 -16 23 -21 -21 -5
-22 8 -32 14 -23 15 9 0 29 -5 44 -10z m-5040 -15 c-11 -8 -25 -15 -30 -15 -6
0 -2 7 8 15 11 8 25 15 30 15 6 0 2 -7 -8 -15z m183 11 c-2 -2 -15 -9 -29 -16
-23 -12 -24 -12 -11 3 7 10 20 17 29 17 8 0 13 -2 11 -4z m3506 -6 c11 0 31
-9 45 -20 l25 -20 -27 0 c-15 0 -33 6 -40 13 -7 6 -19 12 -25 13 -7 1 -22 2
-34 3 -12 0 -17 6 -13 12 3 6 16 8 28 5 11 -3 30 -6 41 -6z m1509 -6 c22 -21
20 -31 -1 -11 -10 8 -29 17 -43 20 l-25 4 27 2 c15 0 34 -6 42 -15z m-5894
-32 c0 -7 -4 -10 -10 -7 -5 3 -10 16 -10 28 0 18 2 19 10 7 5 -8 10 -21 10
-28z m40 6 c0 -25 -3 -29 -10 -18 -13 20 -13 50 0 50 6 0 10 -15 10 -32z
m3271 5 l24 -27 -24 15 c-14 9 -27 21 -29 27 -6 19 3 14 29 -15z m1301 -1 c18
-18 1 -27 -27 -12 -13 7 -41 14 -62 15 -45 3 -46 3 -39 13 7 12 114 -2 128
-16z m783 18 c3 -5 -1 -10 -10 -10 -9 0 -13 5 -10 10 3 6 8 10 10 10 2 0 7 -4
10 -10z m130 -1 c-3 -4 2 -9 10 -13 8 -3 15 -2 15 3 0 10 108 -6 133 -20 12
-6 17 -6 17 2 0 8 4 8 14 0 8 -6 18 -11 22 -10 24 4 54 -2 49 -10 -3 -6 10 -8
32 -5 l38 4 -34 -11 c-25 -7 -41 -7 -58 0 -13 6 -39 11 -58 11 -19 0 -35 4
-35 9 0 4 -11 6 -25 3 -14 -2 -33 2 -42 9 -14 12 -16 12 -8 0 6 -11 4 -13 -10
-8 -14 6 -16 3 -12 -15 l6 -23 -17 21 c-9 11 -30 26 -45 32 -29 12 -30 29 -3
29 8 0 13 -4 11 -8z m-757 -35 c30 -19 22 -30 -9 -13 -13 6 -41 13 -62 15 -46
4 -64 13 -47 24 15 10 88 -7 118 -26z m1087 26 c3 -6 -1 -7 -9 -4 -18 7 -21
14 -7 14 6 0 13 -4 16 -10z m146 -7 c13 -15 12 -15 -8 -5 -12 7 -30 12 -39 12
-16 0 -16 -1 2 -15 23 -17 11 -20 -18 -4 -17 9 -18 13 -7 20 22 14 55 10 70
-8z m-2504 -9 c-16 -9 -31 -13 -34 -10 -3 3 5 10 18 15 37 15 47 12 16 -5z
m-344 -26 c2 -18 3 -35 0 -38 -7 -8 -23 24 -23 48 0 34 17 26 23 -10z m1733
22 c32 0 74 -24 62 -36 -4 -4 -14 -1 -22 5 -8 7 -25 11 -38 10 -52 -5 -78 1
-78 17 0 12 6 15 23 10 12 -3 36 -6 53 -6z m-4256 -10 c0 -5 -10 -10 -22 -9
-22 0 -22 1 -3 9 11 5 21 9 23 9 1 1 2 -3 2 -9z m156 -5 c-11 -8 -22 -12 -25
-9 -6 6 19 24 34 24 6 -1 1 -7 -9 -15z m2974 8 c0 -5 -16 -18 -35 -31 -44 -28
-46 -15 -2 16 35 24 37 25 37 15z m1304 -7 c43 -18 53 -33 21 -33 -14 0 -25 4
-25 9 0 5 -4 6 -10 3 -5 -3 -10 -2 -10 3 0 5 -17 8 -37 6 -36 -4 -37 -3 -19
11 24 19 38 19 80 1z m1010 -2 c5 -12 2 -15 -10 -10 -8 3 -21 6 -27 6 -7 0 -6
4 3 10 21 14 27 12 34 -6z m36 6 c8 -5 12 -11 10 -14 -3 -2 -14 2 -24 10 -22
15 -10 19 14 4z m-2720 -4 c0 -11 -19 -15 -25 -6 -3 5 1 10 9 10 9 0 16 -2 16
-4z m2840 -18 c0 -5 -9 -4 -20 2 -11 6 -20 12 -20 14 0 2 9 2 20 -1 11 -3 20
-9 20 -15z m-961 -14 c33 -22 14 -29 -24 -10 -20 10 -33 12 -41 5 -8 -6 -14
-7 -18 0 -4 5 -15 8 -26 6 -13 -3 -20 2 -20 12 0 13 9 15 51 10 28 -4 63 -14
78 -23z m906 16 c8 -13 -5 -13 -25 0 -13 8 -13 10 2 10 9 0 20 -4 23 -10z
m1840 0 c3 -5 0 -10 -9 -10 -8 0 -17 -6 -19 -12 -3 -7 -6 -3 -6 10 -1 22 22
31 34 12z m-2628 -9 c26 -1 87 -50 63 -51 -9 0 -21 5 -26 10 -6 6 -33 13 -59
16 -27 2 -50 6 -53 8 -10 11 11 25 31 22 12 -3 32 -5 44 -5z m143 -1 c0 -5 -2
-10 -4 -10 -3 0 -8 5 -11 10 -3 6 -1 10 4 10 6 0 11 -4 11 -10z m435 -6 c44
-8 87 -16 96 -17 9 0 16 -7 16 -14 0 -8 -4 -10 -12 -3 -6 5 -34 12 -61 14 -27
2 -58 6 -69 9 -11 2 -26 0 -32 -6 -9 -6 -13 -6 -13 2 0 6 -7 11 -15 11 -8 0
-15 5 -15 10 0 13 11 13 105 -6z m330 6 c3 -5 -3 -10 -14 -10 -12 0 -21 5 -21
10 0 6 6 10 14 10 8 0 18 -4 21 -10z m99 -4 c34 -1 51 -6 54 -16 4 -13 3 -13
-11 -2 -10 9 -28 11 -51 7 -25 -5 -41 -2 -58 10 -19 14 -19 16 -3 9 11 -4 42
-8 69 -8z m-6354 -46 c0 -13 -1 -13 -10 0 -5 8 -10 22 -10 30 0 13 1 13 10 0
5 -8 10 -22 10 -30z m39 -5 c0 -5 -4 -3 -9 5 -5 8 -9 22 -9 30 0 16 17 -16 18
-35z m461 35 c-20 -13 -33 -13 -25 0 3 6 14 10 23 10 15 0 15 -2 2 -10z m180
1 c0 -5 -9 -11 -20 -14 -11 -3 -20 -1 -20 3 0 5 8 11 18 13 9 3 18 5 20 6 1 0
2 -3 2 -8z m5913 -4 c-2 -4 -37 -6 -78 -5 -40 1 -71 6 -69 10 3 4 38 7 78 5
41 -1 72 -5 69 -10z m-1020 -26 l21 -21 -26 0 c-14 0 -28 5 -30 12 -3 7 -22
13 -44 14 -55 2 -56 3 -48 15 11 19 103 5 127 -20z m1150 22 c-13 -2 -35 -2
-50 0 -16 2 -5 4 22 4 28 0 40 -2 28 -4z m148 -2 c18 -8 7 -9 -44 -7 -38 2
-70 6 -73 8 -9 9 94 8 117 -1z m99 0 c14 -4 32 -3 41 2 11 7 30 5 60 -6 l44
-15 -35 -1 c-19 0 -42 3 -50 9 -8 5 -19 5 -25 1 -5 -4 -32 -2 -60 4 -27 7 -39
13 -25 13 14 0 36 -3 50 -7z m251 -3 c33 2 50 -2 60 -14 12 -15 11 -16 -11 -8
-14 4 -38 8 -55 7 -16 -1 -45 0 -64 3 -26 4 -31 8 -20 15 8 5 21 6 29 2 8 -4
36 -6 61 -5z m-1527 -18 c23 0 66 -26 66 -40 0 -12 -44 1 -52 16 -5 8 -24 11
-54 8 -34 -3 -45 -1 -42 8 3 7 12 13 21 13 8 0 19 4 24 8 4 5 9 3 11 -2 2 -6
14 -11 26 -11z m426 12 c0 -5 -12 -8 -27 -7 -16 1 -31 -3 -35 -9 -5 -7 -8 -4
-8 7 0 13 8 17 35 17 19 0 35 -4 35 -8z m1267 -18 c13 -14 23 -27 21 -29 -2
-1 -21 6 -43 16 -22 9 -33 18 -25 19 10 1 9 4 -5 10 -19 8 -18 9 4 9 13 1 34
-10 48 -25z m-4197 -25 l45 -40 -47 31 c-47 31 -67 50 -51 50 4 0 28 -19 53
-41z m405 16 c-16 -14 -34 -25 -40 -25 -5 0 4 11 20 25 17 13 35 24 40 24 6 0
-3 -11 -20 -24z m-3175 0 c-7 -9 -15 -13 -19 -10 -3 3 1 10 9 15 21 14 24 12
10 -5z m5499 -37 c7 -12 6 -19 -4 -28 -12 -10 -15 -9 -15 4 0 9 -6 16 -14 16
-8 0 -16 5 -18 11 -5 14 -68 20 -68 7 0 -5 -4 -6 -10 -3 -18 11 -10 22 23 32
35 10 86 -8 106 -39z m461 36 c0 -12 -3 -14 -12 -6 -7 5 -22 12 -33 15 -13 3
-9 5 13 6 23 1 32 -3 32 -15z m1091 -4 c31 -25 23 -25 -26 0 -29 15 -33 20
-18 20 11 0 31 -9 44 -20z m-941 1 c0 -9 -99 -4 -109 5 -2 2 21 4 52 4 32 0
57 -4 57 -9z m317 -7 c61 -17 -19 -25 -97 -10 -14 3 -19 3 -12 0 20 -9 14 -23
-8 -17 -11 3 -18 9 -15 13 3 4 -4 10 -15 13 -10 3 -21 0 -23 -6 -1 -5 -17 -10
-34 -9 -21 0 -34 -5 -38 -16 -5 -14 -9 -12 -21 11 -16 29 -29 35 -37 15 -3 -7
-6 -5 -6 6 -1 18 6 19 142 13 78 -4 152 -10 164 -13z m-6257 -4 c-20 -13 -33
-13 -25 0 3 6 14 10 23 10 15 0 15 -2 2 -10z m6500 -9 c0 -5 -9 -11 -20 -14
-11 -3 -18 -1 -14 4 3 5 -2 9 -10 9 -8 0 -18 -4 -21 -10 -3 -5 -11 -10 -16
-10 -6 0 -8 4 -5 8 2 4 -15 8 -40 8 -25 1 -44 -4 -44 -10 0 -6 -5 -4 -10 4 -9
13 -11 13 -20 0 -8 -13 -10 -12 -10 3 0 15 12 17 105 17 58 0 105 -4 105 -9z
m-1013 -23 c7 -6 13 -17 13 -24 0 -12 -6 -11 -27 3 -15 10 -41 19 -58 19 -51
3 -55 4 -55 15 0 15 107 4 127 -13z m1417 1 c15 -12 25 -23 23 -25 -6 -6 -67
29 -67 39 0 13 17 8 44 -14z m90 -26 c3 -7 2 -13 -2 -13 -9 1 -62 47 -62 55 0
10 59 -28 64 -42z m-7238 22 c-20 -15 -36 -19 -36 -10 0 5 38 23 50 24 3 0 -4
-6 -14 -14z m6226 -4 c-1 -7 2 -10 6 -7 12 7 44 -28 35 -37 -3 -4 -13 -1 -21
6 -9 6 -13 7 -10 2 4 -6 -2 -11 -12 -11 -12 0 -16 5 -12 16 5 13 3 13 -11 1
-15 -12 -17 -11 -17 4 0 14 -3 15 -15 5 -8 -7 -12 -17 -9 -24 3 -6 0 -4 -8 5
-7 9 -19 14 -25 12 -14 -5 -16 -1 -8 19 3 8 22 13 49 13 25 0 42 4 39 9 -3 5
0 6 8 4 8 -3 13 -11 11 -17z m233 1 c-3 -3 -11 0 -18 7 -9 10 -8 11 6 5 10 -3
15 -9 12 -12z m525 9 c0 -10 -30 -24 -37 -17 -3 3 -2 9 2 15 8 13 35 15 35 2z
m-7290 -21 c0 -11 -2 -20 -4 -20 -2 0 -6 9 -9 20 -3 11 -1 20 4 20 5 0 9 -9 9
-20z m40 -13 c0 -5 -4 -5 -10 -2 -5 3 -10 14 -10 23 0 15 2 15 10 2 5 -8 10
-19 10 -23z m440 28 c0 -2 -10 -9 -22 -15 -22 -11 -22 -10 -4 4 21 17 26 19
26 11z m2984 -10 c-10 -8 -30 -14 -44 -14 -22 0 -21 2 10 13 48 18 57 19 34 1z
m2733 0 c12 -9 20 -22 17 -30 -4 -11 -9 -10 -25 6 -14 14 -33 19 -69 19 -27 0
-50 5 -50 10 0 16 103 12 127 -5z m171 -7 c25 -13 30 -31 5 -21 -11 4 -14 3
-9 -5 4 -7 3 -12 -3 -12 -5 0 -14 7 -19 16 -6 11 -17 15 -31 11 -11 -3 -21 -2
-21 3 0 4 -11 5 -25 2 -31 -6 -33 6 -2 18 24 10 70 5 105 -12z m332 7 c0 23
22 -16 26 -48 l4 -36 -32 10 c-43 12 -51 11 -42 -3 5 -8 0 -9 -16 -5 -13 3
-32 1 -43 -4 -15 -9 -18 -8 -15 2 3 8 19 18 36 23 18 5 32 13 32 18 0 5 9 6
20 3 11 -3 20 -2 20 4 0 14 -32 19 -58 7 -12 -5 -25 -6 -29 -2 -11 11 11 25
45 28 17 1 32 7 32 13 0 5 5 3 10 -5 5 -8 10 -11 10 -5z m997 -22 c-15 -16
-17 -16 -17 -1 0 9 6 18 13 21 20 7 22 -2 4 -20z m-347 8 c0 -5 -7 -11 -15
-15 -15 -5 -20 5 -8 17 9 10 23 9 23 -2z m-4030 -11 c13 -9 13 -10 0 -10 -8 0
-22 5 -30 10 -13 9 -13 10 0 10 8 0 22 -5 30 -10z m3820 0 c0 -5 -5 -10 -11
-10 -5 0 -7 5 -4 10 3 6 8 10 11 10 2 0 4 -4 4 -10z m100 2 c0 -8 -43 -32 -55
-32 -12 0 9 29 23 33 28 8 32 7 32 -1z m550 -2 c0 -5 -4 -10 -10 -10 -5 0 -10
5 -10 10 0 6 5 10 10 10 6 0 10 -4 10 -10z m-7555 -10 c-3 -5 -14 -10 -23 -10
-15 0 -15 2 -2 10 20 13 33 13 25 0z m5682 4 c-3 -3 -12 -4 -19 -1 -8 3 -5 6
6 6 11 1 17 -2 13 -5z m-4224 -29 c25 -10 21 -28 -5 -21 -13 3 -30 6 -38 6
-23 0 -43 16 -36 28 6 10 33 5 79 -13z m120 13 c12 -6 28 -18 37 -27 13 -13
13 -14 -5 -7 -11 4 -37 10 -57 13 -23 3 -38 11 -38 19 0 17 34 18 63 2z m135
-8 c42 -26 41 -32 -5 -24 -40 7 -63 20 -63 35 0 15 34 10 68 -11z m128 -4 c43
-29 29 -43 -21 -22 -34 15 -42 26 -28 39 9 10 10 9 49 -17z m5474 2 c11 -12
20 -29 20 -37 -1 -12 -3 -11 -12 4 -6 11 -20 28 -31 38 -11 9 -15 17 -9 17 6
0 20 -10 32 -22z m115 3 c-3 -6 -11 -8 -17 -5 -6 4 -5 9 3 15 16 10 23 4 14
-10z m-7275 -6 c-14 -7 -27 -11 -30 -9 -6 7 22 24 40 23 9 0 5 -6 -10 -14z
m6920 6 c0 -5 -13 -14 -30 -20 -32 -11 -41 2 -12 18 21 13 42 14 42 2z m310
-27 c12 -19 20 -38 16 -41 -3 -4 -7 -4 -9 -2 -2 2 -15 21 -30 42 -20 27 -24
37 -13 37 8 0 24 -16 36 -36z m-6052 12 c13 -13 -15 -23 -50 -19 -25 4 -38 10
-38 20 0 12 9 14 41 10 22 -3 43 -8 47 -11z m642 -15 c42 -35 35 -49 -12 -25
-36 18 -50 33 -42 46 8 13 17 9 54 -21z m4944 10 c3 -5 -2 -11 -12 -14 -9 -2
-26 -8 -37 -12 -17 -6 -17 -4 4 14 25 23 37 26 45 12z m-7085 -46 c0 -5 -4 -3
-9 5 -5 8 -9 22 -9 30 0 16 17 -16 18 -35z m91 41 c0 -2 -7 -7 -16 -10 -8 -3
-12 -2 -9 4 6 10 25 14 25 6z m1258 -2 c37 -10 26 -30 -18 -31 -42 -1 -62 13
-39 28 17 10 26 11 57 3z m6263 -3 c-7 -5 -10 -14 -7 -20 4 -6 3 -11 -3 -11
-14 0 -23 18 -16 30 3 6 14 10 23 10 14 0 14 -2 3 -9z m-7654 -33 c-3 -7 -5
-2 -5 12 0 14 2 19 5 13 2 -7 2 -19 0 -25z m6530 15 c3 -8 -9 -10 -41 -7 -27
3 -54 0 -68 -7 -29 -16 -48 -20 -48 -9 0 14 82 39 119 37 19 -1 36 -7 38 -14z
m-6242 -3 c-27 -12 -43 -12 -25 0 8 5 22 9 30 9 10 0 8 -3 -5 -9z m2029 -17
c17 -17 23 -29 16 -31 -14 -5 -62 28 -68 46 -7 22 25 12 52 -15z m-1018 -12
c-3 -4 -27 -8 -55 -9 -39 -1 -51 1 -51 12 0 8 12 16 28 18 31 4 84 -10 78 -21z
m2421 -3 c-3 -7 -5 -2 -5 12 0 14 2 19 5 13 2 -7 2 -19 0 -25z m3454 17 c-42
-19 -47 -19 -31 0 7 8 24 15 39 15 25 -1 25 -1 -8 -15z m-131 -3 c0 -9 -61
-34 -68 -28 -4 5 48 35 61 36 4 0 7 -4 7 -8z m-693 -17 c2 -7 -17 -11 -49 -10
-37 0 -52 -4 -50 -12 1 -7 -2 -13 -7 -13 -5 0 -11 6 -14 13 -4 10 -7 10 -18 0
-17 -17 -32 -17 -27 -1 5 14 98 37 137 35 14 -1 26 -7 28 -12z m1252 -26 c6
-17 8 -36 5 -41 -4 -6 -13 7 -20 28 -16 47 -16 44 -5 44 5 0 14 -14 20 -31z
m-5156 -9 c15 -16 27 -32 27 -35 0 -9 -55 20 -67 35 -33 41 4 41 40 0z m1154
-2 c-3 -7 -5 -2 -5 12 0 14 2 19 5 13 2 -7 2 -19 0 -25z m3503 24 c0 -4 -13
-13 -30 -19 -35 -13 -42 3 -7 17 28 11 37 12 37 2z m-5930 -10 c0 -4 -22 -15
-50 -23 -41 -13 -50 -13 -50 -2 0 8 10 18 23 23 28 11 77 13 77 2z m6485 -47
l6 -30 -20 35 c-24 41 -27 60 -7 40 8 -8 17 -28 21 -45z m-1495 26 c0 -4 -24
-7 -52 -7 -56 -1 -83 -6 -94 -17 -4 -4 -12 -7 -18 -7 -6 0 -5 5 2 13 25 24
162 40 162 18z m780 9 c0 -5 -10 -10 -22 -10 -19 0 -20 2 -8 10 19 13 30 13
30 0z m-3210 -37 c-1 -24 -2 -26 -11 -10 -5 9 -7 22 -4 27 10 17 15 11 15 -17z
m-1173 0 c4 -10 15 -27 25 -38 11 -11 14 -21 9 -23 -13 -4 -71 48 -71 65 0 19
30 16 37 -4z m4453 9 c0 -4 -17 -12 -37 -19 l-38 -11 24 19 c23 19 51 25 51
11z m-1033 -17 c2 -6 -20 -9 -54 -9 -32 1 -68 -2 -81 -7 -18 -7 -23 -6 -20 3
8 24 147 35 155 13z m848 -7 c-16 -4 -31 -5 -33 -3 -8 7 42 23 53 17 5 -3 -4
-9 -20 -14z m-5777 0 c-5 -14 -86 -39 -93 -27 -7 11 44 38 73 39 14 0 22 -5
20 -12z m-1178 -8 c0 -5 7 -10 16 -10 9 0 14 -7 12 -17 -2 -10 -12 -18 -23
-18 -11 0 -26 -4 -32 -8 -16 -10 -33 0 -33 19 0 8 5 14 10 14 6 0 10 7 10 15
0 8 9 15 20 15 11 0 20 -4 20 -10z m135 -8 c-3 -3 -11 0 -18 7 -9 10 -8 11 6
5 10 -3 15 -9 12 -12z m3602 -19 c-3 -10 -5 -4 -5 12 0 17 2 24 5 18 2 -7 2
-21 0 -30z m2184 11 c12 -15 11 -16 -11 -8 -28 9 -68 9 -117 -1 -20 -4 -33 -2
-33 4 0 11 33 17 101 20 32 1 51 -4 60 -15z m1109 -4 c0 -5 -9 -10 -21 -10
-11 0 -17 5 -14 10 3 6 13 10 21 10 8 0 14 -4 14 -10z m745 -30 c7 -22 6 -23
-9 -11 -9 7 -16 23 -16 34 0 26 15 12 25 -23z m-7714 21 c7 11 9 10 9 -4 0
-20 -22 -19 -26 1 -2 9 -1 9 3 1 4 -8 8 -7 14 2z m5657 1 c13 -1 22 -9 22 -18
0 -13 -3 -14 -14 -5 -10 8 -36 10 -80 6 -41 -4 -66 -3 -66 3 0 6 5 12 10 14
11 3 87 3 128 0z m1137 -2 c-27 -12 -43 -12 -25 0 8 5 22 9 30 9 10 0 8 -3 -5
-9z m-7090 -9 c-3 -2 0 -10 6 -18 14 -16 5 -17 -22 -3 -25 14 -25 29 1 27 10
-1 17 -3 15 -6z m3058 -28 c15 -20 24 -39 22 -42 -6 -6 -54 38 -66 62 -19 34
17 18 44 -20z m-838 17 c18 -8 17 -9 -7 -9 -16 -1 -28 4 -28 9 0 12 8 12 35 0z
m1895 -5 c0 -8 -4 -15 -10 -15 -5 0 -10 7 -10 15 0 8 5 15 10 15 6 0 10 -7 10
-15z m1659 6 c14 -9 7 -31 -10 -31 -6 0 -7 5 -3 11 4 8 -12 9 -55 5 -56 -6
-72 0 -54 17 9 10 106 8 122 -2z m-4464 -10 c-17 -16 -85 -40 -85 -31 0 5 12
16 28 24 30 17 72 22 57 7z m725 -1 c12 -8 9 -10 -13 -10 -16 0 -26 4 -22 10
8 12 16 12 35 0z m90 0 c12 -8 11 -10 -7 -10 -12 0 -25 5 -28 10 -8 13 15 13
35 0z m205 0 c8 -13 -5 -13 -25 0 -13 8 -13 10 2 10 9 0 20 -4 23 -10z m89 -5
c11 -8 15 -15 9 -15 -19 0 -43 12 -43 21 0 13 12 11 34 -6z m3188 -3 c4 -4
-26 -8 -68 -9 -42 -1 -72 3 -68 7 18 17 120 18 136 2z m1558 8 c0 -5 -12 -10
-27 -10 -22 0 -25 2 -13 10 20 13 40 13 40 0z m890 -11 c0 -6 -4 -7 -10 -4 -5
3 -10 11 -10 16 0 6 5 7 10 4 6 -3 10 -11 10 -16z m-6105 1 c4 -6 -5 -10 -19
-10 -14 0 -26 5 -26 10 0 6 9 10 19 10 11 0 23 -4 26 -10z m5045 0 c0 -5 -10
-10 -22 -10 -19 0 -20 2 -8 10 19 13 30 13 30 0z m-6473 -34 c4 -5 -17 -5 -51
-1 -65 8 -86 14 -86 24 0 9 126 -12 137 -23z m4904 17 c5 -5 -17 -8 -54 -7
-77 1 -80 2 -72 14 7 11 113 6 126 -7z m-5086 -3 c8 -12 -56 -17 -122 -10 -18
2 -8 6 27 10 86 11 88 11 95 0z m1520 0 c4 -6 -5 -10 -20 -10 -15 0 -24 4 -20
10 3 6 12 10 20 10 8 0 17 -4 20 -10z m356 0 c5 0 9 -4 9 -9 0 -4 -11 -6 -25
-3 -14 2 -25 9 -25 14 0 6 7 7 16 4 9 -3 20 -6 25 -6z m307 -8 c2 -7 -2 -10
-12 -6 -9 3 -16 11 -16 16 0 13 23 5 28 -10z m1482 9 c0 -5 3 -16 6 -25 3 -9
2 -16 -4 -16 -5 0 -12 11 -14 25 -3 14 -1 25 3 25 5 0 9 -4 9 -9z m1203 -3 c9
0 17 -3 17 -9 0 -12 -76 -15 -89 -4 -10 11 14 25 32 19 12 -4 30 -7 40 -6z
m-5063 -8 c0 -5 -19 -10 -42 -10 -24 0 -53 -3 -65 -6 -13 -4 -23 -2 -23 4 0 6
21 13 48 15 26 2 55 4 65 5 9 1 17 -2 17 -8z m1975 0 c17 -7 14 -9 -13 -9 -20
-1 -31 3 -27 9 7 12 13 12 40 0z m210 -13 c7 -7 4 -8 -8 -3 -10 3 -25 6 -33 6
-8 0 -14 5 -14 11 0 12 40 2 55 -14z m2750 3 c14 -5 7 -9 -27 -11 -27 -2 -48
0 -48 4 0 5 -5 5 -10 2 -15 -9 -43 3 -35 15 6 10 82 3 120 -10z m-4458 -6 c48
-19 59 -37 14 -24 -32 9 -71 28 -71 35 0 8 13 6 57 -11z m1403 6 c12 -8 9 -10
-12 -10 -16 0 -28 5 -28 10 0 13 20 13 40 0z m392 -10 c12 -11 16 -20 9 -20
-21 0 -52 20 -46 31 9 13 13 12 37 -11z m751 3 c4 -10 16 -30 28 -45 13 -15
19 -31 15 -35 -10 -10 -76 62 -76 82 0 21 26 19 33 -2z m976 -14 c9 -27 9 -30
-4 -19 -8 7 -15 21 -15 31 0 28 7 23 19 -12z m571 13 c39 -5 42 -6 19 -12 -27
-8 -97 -5 -106 4 -11 10 10 27 26 21 9 -4 36 -10 61 -13z m183 2 c15 -3 27 -9
27 -13 0 -5 -18 -5 -39 -1 -22 4 -44 4 -48 0 -11 -11 -56 8 -48 20 6 10 27 8
108 -6z m1987 6 c0 -5 -8 -10 -17 -10 -15 0 -16 2 -3 10 19 12 20 12 20 0z
m163 3 c-7 -2 -19 -2 -25 0 -7 3 -2 5 12 5 14 0 19 -2 13 -5z m-7083 -12 c0
-5 -32 -11 -70 -13 -66 -3 -92 5 -52 15 32 9 122 7 122 -2z m1810 5 c0 -2 -11
-6 -25 -8 -14 -3 -25 -1 -25 3 0 5 11 9 25 9 14 0 25 -2 25 -4z m162 -6 c6 0
8 -3 4 -7 -9 -10 -56 -11 -56 -3 0 13 14 21 28 15 7 -3 19 -5 24 -5z m674 -11
c19 -21 19 -21 -9 -8 -15 7 -27 16 -27 21 0 14 16 9 36 -13z m1899 6 c0 -12
-36 -8 -50 6 -7 7 -1 9 20 7 17 -2 30 -8 30 -13z m-4313 -7 c-18 -18 -14 -28
9 -25 12 1 24 -4 26 -10 3 -8 -4 -13 -15 -13 -17 0 -20 -6 -18 -35 2 -25 0
-33 -8 -26 -6 4 -18 9 -26 9 -33 2 -75 16 -82 26 -5 7 -8 6 -9 -4 0 -8 -5 -4
-9 10 -8 24 -8 24 -9 3 -1 -25 -21 -32 -21 -8 0 8 -4 15 -10 15 -5 0 -10 -6
-10 -13 0 -15 -55 -16 -68 -2 -4 4 0 6 9 2 13 -4 16 -1 12 14 -6 23 12 26 21
2 5 -12 10 -13 18 -5 16 16 2 41 -20 35 -11 -2 -23 0 -26 5 -6 10 32 21 69 20
25 -1 38 -20 22 -31 -8 -6 -8 -7 3 -4 8 2 14 13 12 23 -3 18 -3 18 10 2 11
-15 46 -22 86 -19 6 1 12 10 12 21 0 12 7 20 17 20 13 0 14 -3 5 -12z m1028 2
c0 -8 -61 -40 -76 -40 -13 0 0 18 24 32 31 20 52 23 52 8z m3164 -1 c21 -1 25
-3 11 -6 -11 -3 -25 -9 -31 -14 -13 -11 -74 8 -74 23 0 6 12 8 31 4 17 -3 46
-7 63 -7z m181 5 c12 -5 14 -9 4 -14 -15 -10 -41 -1 -33 11 6 11 8 11 29 3z
m-4792 -19 c1 -6 -28 -11 -70 -11 -86 -2 -99 13 -15 19 75 5 83 4 85 -8z m370
8 c-7 -2 -19 -2 -25 0 -7 3 -2 5 12 5 14 0 19 -2 13 -5z m1697 -2 c0 -5 -11
-11 -25 -13 -24 -5 -32 2 -18 15 9 10 43 8 43 -2z m661 -1 c28 -16 23 -32 -6
-18 -14 6 -25 15 -25 20 0 11 7 10 31 -2z m-831 -10 c-20 -13 -43 -13 -35 0 3
6 16 10 28 10 18 0 19 -2 7 -10z m1039 -34 c-9 -9 -50 25 -43 36 4 6 14 2 27
-11 12 -11 19 -23 16 -25z m4058 38 c-3 -3 -12 -4 -19 -1 -8 3 -5 6 6 6 11 1
17 -2 13 -5z m168 -4 c3 -6 -1 -7 -9 -4 -18 7 -21 14 -7 14 6 0 13 -4 16 -10z
m-7335 -10 c0 -12 -84 -12 -120 0 -18 6 -4 8 48 9 42 1 72 -3 72 -9z m208 -21
c-12 -23 -14 -23 -30 -7 -17 17 -17 18 1 18 11 0 23 5 26 11 13 20 15 2 3 -22z
m987 -33 c6 -5 -1 -5 -15 -1 -32 10 -60 34 -60 53 0 11 9 7 33 -14 17 -16 37
-33 42 -38z m3251 10 c-2 -6 -8 0 -14 14 -5 14 -7 29 -4 34 7 12 24 -33 18
-48z m2671 48 c-3 -3 -12 -4 -19 -1 -8 3 -5 6 6 6 11 1 17 -2 13 -5z m168 -4
c-3 -5 -11 -10 -16 -10 -6 0 -7 5 -4 10 3 6 11 10 16 10 6 0 7 -4 4 -10z
m-5130 -10 c4 -6 -5 -10 -19 -10 -14 0 -26 5 -26 10 0 6 9 10 19 10 11 0 23
-4 26 -10z m855 -5 c10 -12 10 -15 -3 -15 -8 0 -20 7 -27 15 -10 12 -10 15 3
15 8 0 20 -7 27 -15z m-2240 -5 c0 -5 -4 -10 -10 -10 -5 0 -10 5 -10 10 0 6 5
10 10 10 6 0 10 -4 10 -10z m1215 -10 c-28 -12 -37 -12 -30 0 3 6 16 10 28 9
21 0 21 -1 2 -9z m1200 -10 c10 -11 15 -23 12 -27 -8 -7 -47 25 -47 39 0 14
16 9 35 -12z m1415 4 c0 -8 -4 -12 -10 -9 -5 3 -10 10 -10 16 0 5 5 9 10 9 6
0 10 -7 10 -16z m-2530 -5 c0 -10 -39 -18 -45 -9 -3 5 1 10 7 12 20 7 38 5 38
-3z m1028 -9 c14 -23 5 -26 -20 -6 -21 16 -23 26 -5 26 7 0 18 -9 25 -20z
m595 -22 c29 -49 25 -69 -7 -39 -12 12 -27 21 -33 21 -7 0 -11 41 -4 58 5 12
23 -5 44 -40z m-3513 22 c0 -5 -4 -10 -10 -10 -5 0 -10 5 -10 10 0 6 5 10 10
10 6 0 10 -4 10 -10z m538 -4 c7 -4 21 -4 32 -1 13 4 29 -1 44 -13 l25 -19
-52 5 c-29 2 -60 9 -71 14 -13 7 -21 6 -27 -3 -7 -12 -11 -11 -19 1 -5 8 -10
19 -10 23 0 9 61 4 78 -7z m6332 0 c0 -3 -4 -8 -10 -11 -5 -3 -10 -1 -10 4 0
6 5 11 10 11 6 0 10 -2 10 -4z m1426 -31 c-3 -8 -12 -12 -20 -9 -12 5 -12 8 2
23 18 18 28 10 18 -14z m-6556 21 c0 -2 -9 -6 -20 -9 -11 -3 -20 -1 -20 4 0 5
9 9 20 9 11 0 20 -2 20 -4z m1362 -40 c11 -20 10 -20 -13 -5 -13 9 -26 25 -28
35 -3 16 -1 17 13 5 10 -8 22 -24 28 -35z m3485 38 c-3 -3 -12 -4 -19 -1 -8 3
-5 6 6 6 11 1 17 -2 13 -5z m-4782 -14 c-28 -12 -45 -12 -45 0 0 6 15 10 33 9
27 0 29 -2 12 -9z m1198 -8 c23 -25 10 -35 -14 -11 -10 10 -19 21 -19 24 0 11
18 4 33 -13z m3462 8 c-3 -5 -12 -10 -18 -10 -7 0 -6 4 3 10 19 12 23 12 15 0z
m-5365 -22 c0 -6 12 -21 28 -34 17 -15 22 -24 12 -24 -17 0 -60 47 -60 67 0 8
5 11 10 8 6 -3 10 -11 10 -17z m3222 -3 c4 -20 3 -23 -8 -14 -16 13 -19 39 -5
39 5 0 11 -11 13 -25z m156 -1 c7 -14 8 -23 2 -19 -15 9 -32 45 -22 45 5 0 14
-12 20 -26z m-2748 -14 c-8 -5 -22 -9 -30 -9 -10 0 -8 3 5 9 27 12 43 12 25 0z
m1374 -41 c-7 -11 -44 22 -44 40 0 10 7 8 25 -9 13 -12 22 -27 19 -31z m74 16
c9 -19 9 -25 -1 -25 -15 0 -38 35 -30 44 12 11 20 6 31 -19z m435 -19 c32 -58
19 -78 -16 -24 -15 23 -27 48 -27 55 0 26 19 12 43 -31z m2614 38 c-3 -3 -12
-4 -19 -1 -8 3 -5 6 6 6 11 1 17 -2 13 -5z m350 0 c-3 -3 -12 -4 -19 -1 -8 3
-5 6 6 6 11 1 17 -2 13 -5z m-477 -14 c0 -5 -4 -10 -10 -10 -5 0 -10 5 -10 10
0 6 5 10 10 10 6 0 10 -4 10 -10z m2230 1 c0 -5 -9 -11 -20 -14 -13 -3 -20 0
-20 9 0 8 9 14 20 14 11 0 20 -4 20 -9z m-1930 -11 c0 -5 -5 -10 -11 -10 -5 0
-7 5 -4 10 3 6 8 10 11 10 2 0 4 -4 4 -10z m-4740 -20 c-8 -5 -17 -7 -19 -4
-3 3 1 9 9 14 8 5 17 7 19 4 3 -3 -1 -9 -9 -14z m2725 -29 c-8 -8 -35 22 -35
38 0 12 5 10 20 -9 10 -14 17 -27 15 -29z m165 34 c20 -24 6 -28 -15 -5 -10
11 -13 20 -8 20 6 0 16 -7 23 -15z m1453 8 c-7 -2 -19 -2 -25 0 -7 3 -2 5 12
5 14 0 19 -2 13 -5z m-6333 -13 c0 -5 -7 -10 -15 -10 -8 0 -15 5 -15 10 0 6 7
10 15 10 8 0 15 -4 15 -10z m6207 -6 c-3 -3 -12 -4 -19 -1 -8 3 -5 6 6 6 11 1
17 -2 13 -5z m420 0 c-3 -3 -12 -4 -19 -1 -8 3 -5 6 6 6 11 1 17 -2 13 -5z
m-3120 -23 c7 -10 9 -21 6 -24 -7 -8 -33 18 -33 32 0 17 14 13 27 -8z m90 -27
c-10 -10 -37 16 -37 34 0 13 4 12 22 -5 12 -13 19 -25 15 -29z m2506 39 c-7
-2 -19 -2 -25 0 -7 3 -2 5 12 5 14 0 19 -2 13 -5z m-133 -13 c0 -5 -4 -10 -10
-10 -5 0 -10 5 -10 10 0 6 5 10 10 10 6 0 10 -4 10 -10z m420 6 c0 -3 -4 -8
-10 -11 -5 -3 -10 -1 -10 4 0 6 5 11 10 11 6 0 10 -2 10 -4z m-4807 -36 c3
-11 1 -20 -4 -20 -5 0 -9 2 -9 4 0 2 -3 11 -6 20 -3 9 -2 16 4 16 5 0 12 -9
15 -20z m3365 -8 c20 -31 1 -27 -22 5 -12 16 -14 24 -6 21 7 -2 20 -14 28 -26z
m1345 21 c-7 -2 -21 -2 -30 0 -10 3 -4 5 12 5 17 0 24 -2 18 -5z m-2245 -50
c12 -25 20 -48 17 -51 -8 -8 -64 51 -65 69 0 16 9 29 19 29 3 -1 16 -22 29
-47z m730 22 c14 -29 -2 -34 -18 -6 -12 24 -13 31 -2 31 5 0 14 -11 20 -25z
m865 18 c-7 -2 -19 -2 -25 0 -7 3 -2 5 12 5 14 0 19 -2 13 -5z m530 0 c-7 -2
-21 -2 -30 0 -10 3 -4 5 12 5 17 0 24 -2 18 -5z m-768 -13 c3 -6 -1 -7 -9 -4
-18 7 -21 14 -7 14 6 0 13 -4 16 -10z m138 3 c-7 -2 -21 -2 -30 0 -10 3 -4 5
12 5 17 0 24 -2 18 -5z m520 0 c-7 -2 -21 -2 -30 0 -10 3 -4 5 12 5 17 0 24
-2 18 -5z m-2479 -19 c11 -30 6 -37 -14 -19 -11 10 -17 22 -14 26 8 14 21 11
28 -7z m1593 10 c-3 -3 -12 -4 -19 -1 -8 3 -5 6 6 6 11 1 17 -2 13 -5z m116
-1 c-7 -2 -19 -2 -25 0 -7 3 -2 5 12 5 14 0 19 -2 13 -5z m642 -3 c-3 -5 -10
-10 -16 -10 -5 0 -9 5 -9 10 0 6 7 10 16 10 8 0 12 -4 9 -10z m-2269 -17 c20
-27 16 -38 -6 -18 -20 18 -26 35 -14 35 4 0 13 -8 20 -17z m2157 10 c-7 -2
-21 -2 -30 0 -10 3 -4 5 12 5 17 0 24 -2 18 -5z m-5915 -34 c-3 -8 -7 -3 -11
10 -4 17 -3 21 5 13 5 -5 8 -16 6 -23z m5789 25 c-3 -3 -12 -4 -19 -1 -8 3 -5
6 6 6 11 1 17 -2 13 -5z m-99 -11 c-10 -2 -26 -2 -35 0 -10 3 -2 5 17 5 19 0
27 -2 18 -5z m-569 -30 c13 -28 13 -28 -8 -9 -22 20 -27 36 -13 36 5 0 14 -12
21 -27z m315 19 c3 -5 -1 -9 -9 -9 -8 0 -15 4 -15 9 0 4 4 8 9 8 6 0 12 -4 15
-8z m113 2 c-3 -3 -12 -4 -19 -1 -8 3 -5 6 6 6 11 1 17 -2 13 -5z m-598 -34
l16 -24 -28 18 c-15 10 -27 23 -27 28 0 16 22 4 39 -22z m374 23 c-7 -2 -19
-2 -25 0 -7 3 -2 5 12 5 14 0 19 -2 13 -5z m-3539 -18 c3 -8 1 -15 -3 -15 -5
0 -11 7 -15 15 -3 8 -1 15 3 15 5 0 11 -7 15 -15z m1964 -20 c17 -36 15 -41
-8 -20 -20 18 -27 45 -12 45 5 0 14 -11 20 -25z m91 -35 c0 -10 -6 -8 -19 9
-11 13 -20 31 -20 40 0 12 5 10 20 -9 11 -14 20 -32 19 -40z m381 37 c0 -7 9
-29 20 -50 27 -50 25 -61 -6 -30 -27 27 -45 93 -25 93 6 0 11 -6 11 -13z m811
-50 c12 -22 12 -22 -10 -3 -11 11 -21 23 -21 28 0 14 19 -1 31 -25z m174 4
l20 -24 -22 12 c-13 6 -23 19 -23 28 0 9 1 14 3 12 1 -2 11 -15 22 -28z
m-1380 -23 c11 -16 12 -24 4 -27 -12 -4 -39 25 -39 41 0 16 19 8 35 -14z m78
-18 c10 -16 14 -30 8 -30 -10 0 -41 39 -41 52 0 17 17 6 33 -22z m-1441 -24
c73 -14 151 -27 173 -30 54 -7 262 -53 274 -60 5 -4 36 -11 68 -17 32 -6 63
-15 69 -20 7 -5 16 -9 20 -8 5 2 27 -2 49 -8 22 -6 51 -14 65 -17 14 -3 36
-15 50 -26 l25 -21 -70 6 c-38 4 -74 11 -79 16 -6 5 -23 9 -38 9 -16 0 -31 7
-34 15 -4 10 -17 13 -45 10 -21 -2 -39 1 -39 6 0 5 -13 9 -29 9 -17 0 -33 5
-36 10 -3 6 -18 7 -32 4 -19 -5 -24 -4 -19 5 6 9 0 10 -19 5 -16 -4 -30 -2
-34 4 -4 6 -49 18 -101 26 -149 24 -161 26 -224 52 -33 13 -71 24 -85 24 -14
0 -35 7 -45 15 -26 20 -20 19 136 -9z m1871 -18 c2 -13 8 -31 12 -40 5 -12 3
-18 -6 -18 -18 0 -41 52 -33 74 8 20 20 13 27 -16z m787 0 c0 -6 -7 -5 -15 2
-8 7 -15 17 -15 22 0 6 7 5 15 -2 8 -7 15 -17 15 -22z m174 16 c9 -24 7 -28
-9 -14 -17 14 -20 30 -6 30 5 0 12 -7 15 -16z m-1404 -16 c0 -6 7 -20 17 -30
20 -22 1 -24 -21 -2 -18 17 -21 44 -6 44 6 0 10 -5 10 -12z m5044 -3 c3 -8 1
-15 -4 -15 -6 0 -10 7 -10 15 0 8 2 15 4 15 2 0 6 -7 10 -15z m-4114 -21 c30
-8 89 -26 130 -40 41 -13 83 -24 93 -24 10 0 16 -4 13 -9 -3 -4 -35 -1 -71 7
-53 13 -70 14 -85 4 -27 -17 -40 -15 -40 6 0 12 -16 22 -58 35 -31 9 -68 18
-82 18 -21 1 -145 -14 -295 -37 -29 -4 -36 -3 -25 5 8 5 36 13 62 16 31 5 48
12 48 21 0 16 16 19 22 5 2 -6 36 -5 88 3 92 14 115 13 200 -10z m-840 -27 c0
-6 -9 -2 -20 8 -11 10 -17 22 -13 28 6 10 33 -19 33 -36z m4810 33 c0 -5 -4
-10 -10 -10 -5 0 -10 5 -10 10 0 6 5 10 10 10 6 0 10 -4 10 -10z m-3589 -42
c11 -21 11 -22 -4 -9 -10 7 -17 17 -17 22 0 15 9 10 21 -13z m179 1 c0 -6 -4
-7 -10 -4 -5 3 -10 11 -10 16 0 6 5 7 10 4 6 -3 10 -11 10 -16z m3343 14 c-7
-2 -19 -2 -25 0 -7 3 -2 5 12 5 14 0 19 -2 13 -5z m-4353 -23 c0 -5 -5 -10
-11 -10 -5 0 -7 5 -4 10 3 6 8 10 11 10 2 0 4 -4 4 -10z m-384 -48 c-10 -9
-36 14 -36 32 0 20 1 20 20 -4 10 -14 17 -26 16 -28z m854 38 c0 -5 -7 -7 -15
-4 -8 4 -15 8 -15 10 0 2 7 4 15 4 8 0 15 -4 15 -10z m-799 -32 c11 -21 11
-22 -4 -9 -10 7 -17 17 -17 22 0 15 9 10 21 -13z m1244 -8 c3 -5 1 -10 -4 -10
-6 0 -11 5 -11 10 0 6 2 10 4 10 3 0 8 -4 11 -10z m185 -6 c0 -8 -4 -12 -10
-9 -5 3 -10 10 -10 16 0 5 5 9 10 9 6 0 10 -7 10 -16z m-1512 -49 c-8 -8 -128
-13 -132 -6 -3 5 5 7 17 6 12 -2 40 1 62 4 36 7 62 4 53 -4z m57 5 c-3 -5 -11
-10 -16 -10 -6 0 -7 5 -4 10 3 6 11 10 16 10 6 0 7 -4 4 -10z m734 -10 c11 -7
-7 -9 -59 -8 -82 1 -99 6 -79 20 16 10 114 2 138 -12z m147 0 c32 -11 63 -26
69 -32 7 -8 6 -9 -5 -6 -8 3 -40 11 -70 18 -80 18 -82 19 -75 30 8 14 13 13
81 -10z m-1442 -15 c-4 -8 -10 -12 -15 -9 -14 8 -10 24 6 24 9 0 12 -6 9 -15z
m196 9 c0 -3 -7 -12 -15 -20 -8 -9 -15 -13 -15 -11 0 3 -3 12 -6 21 -4 12 0
16 15 16 12 0 21 -3 21 -6z m70 -7 c0 -5 9 -7 20 -4 11 3 22 1 25 -3 9 -14
-13 -22 -33 -11 -21 11 -48 -1 -38 -18 5 -7 1 -9 -8 -5 -9 3 -16 11 -16 18 0
6 -4 4 -10 -4 -5 -8 -12 -11 -16 -7 -13 12 28 47 52 45 13 -1 24 -6 24 -11z
m1844 -3 c3 -8 2 -12 -4 -9 -6 3 -10 10 -10 16 0 14 7 11 14 -7z m-1009 -3
c-6 -5 -37 -11 -70 -14 -33 -3 -68 -9 -78 -12 -9 -4 -17 -3 -17 3 0 6 17 14
38 17 20 4 42 8 47 10 23 8 88 5 80 -4z m-1285 -11 c0 -5 -5 -10 -11 -10 -5 0
-7 5 -4 10 3 6 8 10 11 10 2 0 4 -4 4 -10z m60 0 c0 -5 -4 -10 -10 -10 -5 0
-10 5 -10 10 0 6 5 10 10 10 6 0 10 -4 10 -10z m54 -6 c3 -8 2 -12 -4 -9 -6 3
-10 10 -10 16 0 14 7 11 14 -7z m576 0 c0 -2 -9 -4 -20 -4 -11 0 -20 4 -20 9
0 5 9 7 20 4 11 -3 20 -7 20 -9z m-100 -10 c0 -2 -12 -4 -26 -4 -14 0 -23 4
-20 9 6 8 46 4 46 -5z m1270 -25 c83 -42 106 -66 29 -30 -24 11 -62 27 -83 34
-22 8 -42 19 -44 25 -6 20 13 14 98 -29z m-1700 27 c0 -3 -4 -8 -10 -11 -5 -3
-10 -1 -10 4 0 6 5 11 10 11 6 0 10 -2 10 -4z m903 -26 c-13 -11 -165 -52
-171 -46 -8 9 -2 12 78 33 77 20 106 24 93 13z m-790 -45 c20 -3 37 -10 37
-15 0 -14 -64 -12 -94 1 -28 13 -27 29 2 24 9 -2 34 -7 55 -10z m1807 -36 c30
-16 48 -28 40 -25 -8 3 -39 12 -67 21 -29 9 -53 21 -53 26 0 15 23 9 80 -22z
m-1250 12 c-20 -11 -157 -25 -147 -15 8 8 80 21 132 22 21 1 26 -1 15 -7z
m-420 -11 c11 -7 -3 -10 -45 -10 -42 0 -56 3 -45 10 8 5 29 10 45 10 17 0 37
-5 45 -10z m220 -10 c0 -13 -120 -13 -140 0 -10 7 9 10 63 10 45 0 77 -4 77
-10z m1675 -70 c22 -10 33 -19 24 -19 -24 -1 -79 20 -79 30 0 12 8 11 55 -11z
m70 -38 c-3 -3 -11 0 -18 7 -9 10 -8 11 6 5 10 -3 15 -9 12 -12z m192 -34 c40
-13 60 -24 49 -26 -17 -4 -34 2 -116 36 -46 19 -2 12 67 -10z m136 -5 c4 -2 7
-8 7 -13 0 -9 -36 0 -80 19 -21 9 -18 10 20 5 25 -4 48 -8 53 -11z"/>
<path d="M1220 4080 c0 -5 5 -10 10 -10 6 0 10 5 10 10 0 6 -4 10 -10 10 -5 0
-10 -4 -10 -10z"/>
<path d="M1260 4055 c0 -8 5 -15 10 -15 6 0 10 7 10 15 0 8 -4 15 -10 15 -5 0
-10 -7 -10 -15z"/>
<path d="M1280 2441 c0 -10 24 -21 43 -21 7 0 3 7 -7 15 -22 17 -36 19 -36 6z"/>
<path d="M1308 4853 c6 -2 18 -2 25 0 6 3 1 5 -13 5 -14 0 -19 -2 -12 -5z"/>
<path d="M1275 4770 c3 -5 8 -10 11 -10 2 0 4 5 4 10 0 6 -5 10 -11 10 -5 0
-7 -4 -4 -10z"/>
<path d="M2720 4140 c0 -11 -4 -20 -10 -20 -5 0 -10 -10 -9 -22 l0 -23 9 21
c5 12 13 25 19 29 14 8 14 35 1 35 -5 0 -10 -9 -10 -20z"/>
<path d="M2775 4120 c-3 -5 -1 -10 4 -10 6 0 11 5 11 10 0 6 -2 10 -4 10 -3 0
-8 -4 -11 -10z"/>
<path d="M870 4075 c0 -5 5 -17 10 -25 5 -8 10 -10 10 -5 0 6 -5 17 -10 25 -5
8 -10 11 -10 5z"/>
<path d="M7716 3437 c3 -10 9 -15 12 -12 3 3 0 11 -7 18 -10 9 -11 8 -5 -6z"/>
<path d="M7974 3331 c13 -14 23 -18 30 -11 12 12 8 15 -24 25 -25 8 -25 8 -6
-14z"/>
<path d="M9395 3200 c3 -5 14 -10 23 -10 15 0 15 2 2 10 -20 13 -33 13 -25 0z"/>
<path d="M9546 3081 c-4 -5 -2 -12 3 -15 5 -4 12 -2 15 3 4 5 2 12 -3 15 -5 4
-12 2 -15 -3z"/>
<path d="M9525 3040 c3 -5 8 -10 11 -10 2 0 4 5 4 10 0 6 -5 10 -11 10 -5 0
-7 -4 -4 -10z"/>
<path d="M513 2900 c0 -30 2 -43 4 -27 2 15 2 39 0 55 -2 15 -4 2 -4 -28z"/>
<path d="M9615 2890 c-3 -5 -1 -10 4 -10 6 0 11 5 11 10 0 6 -2 10 -4 10 -3 0
-8 -4 -11 -10z"/>
<path d="M501 2784 c0 -11 3 -14 6 -6 3 7 2 16 -1 19 -3 4 -6 -2 -5 -13z"/>
<path d="M9490 2642 c0 -4 -18 -18 -40 -32 -41 -26 -47 -34 -30 -45 6 -3 10
-2 10 3 0 4 20 19 45 31 47 24 55 35 30 45 -8 3 -15 2 -15 -2z"/>
<path d="M717 2574 c9 -15 19 -22 20 -17 3 7 17 8 38 3 19 -4 35 -7 36 -6 0 0
2 11 5 24 4 21 1 22 -56 22 l-60 0 17 -26z"/>
<path d="M9375 2560 c-3 -5 1 -10 9 -10 9 0 16 5 16 10 0 6 -4 10 -9 10 -6 0
-13 -4 -16 -10z"/>
<path d="M9657 2559 c7 -7 15 -10 18 -7 3 3 -2 9 -12 12 -14 6 -15 5 -6 -5z"/>
<path d="M9520 2520 c0 -5 5 -10 10 -10 6 0 10 5 10 10 0 6 -4 10 -10 10 -5 0
-10 -4 -10 -10z"/>
<path d="M9526 2486 c3 -8 15 -11 32 -8 24 5 25 6 7 13 -31 12 -45 10 -39 -5z"/>
<path d="M9370 2461 c0 -5 -8 -12 -17 -14 -14 -4 -12 -5 5 -6 13 -1 22 5 22
14 0 8 -2 15 -5 15 -3 0 -5 -4 -5 -9z"/>
<path d="M9480 2460 c0 -5 5 -10 11 -10 5 0 7 5 4 10 -3 6 -8 10 -11 10 -2 0
-4 -4 -4 -10z"/>
<path d="M9515 2450 c3 -5 8 -10 11 -10 2 0 4 5 4 10 0 6 -5 10 -11 10 -5 0
-7 -4 -4 -10z"/>
<path d="M9380 2421 c-12 -24 -13 -54 -1 -47 8 5 22 66 15 66 -2 0 -8 -9 -14
-19z"/>
<path d="M9400 2390 c0 -5 5 -10 10 -10 6 0 10 5 10 10 0 6 -4 10 -10 10 -5 0
-10 -4 -10 -10z"/>
<path d="M9632 2160 c0 -14 2 -19 5 -12 2 6 2 18 0 25 -3 6 -5 1 -5 -13z"/>
<path d="M9353 2136 c-9 -11 -8 -15 10 -20 26 -6 29 -4 21 18 -7 19 -15 20
-31 2z"/>
<path d="M9585 2140 c-3 -5 -1 -10 4 -10 6 0 11 5 11 10 0 6 -2 10 -4 10 -3 0
-8 -4 -11 -10z"/>
<path d="M9552 2080 c1 -22 6 -30 20 -30 10 0 18 5 18 10 0 6 -4 10 -10 10 -5
0 -10 5 -10 10 0 6 8 10 18 10 14 0 15 2 2 10 -27 17 -39 11 -38 -20z"/>
<path d="M4620 970 c0 -5 5 -10 10 -10 6 0 10 5 10 10 0 6 -4 10 -10 10 -5 0
-10 -4 -10 -10z"/>
</g>
</svg>
