<?xml version="1.0" standalone="no"?>
<!DOCTYPE svg PUBLIC "-//W3C//DTD SVG 20010904//EN"
 "http://www.w3.org/TR/2001/REC-SVG-20010904/DTD/svg10.dtd">
<svg version="1.0" xmlns="http://www.w3.org/2000/svg"
 width="1024.000000pt" height="597.000000pt" viewBox="0 0 1024.000000 597.000000"
 preserveAspectRatio="xMidYMid meet">

<g transform="translate(0.000000,597.000000) scale(0.100000,-0.100000)"
fill="#000000" stroke="none">
<path d="M0 2985 l0 -2985 5120 0 5120 0 0 2985 0 2985 -5120 0 -5120 0 0
-2985z m4035 2035 c3 -5 -1 -10 -10 -10 -9 0 -13 5 -10 10 3 6 8 10 10 10 2 0
7 -4 10 -10z m-45 -21 c0 -5 4 -8 8 -5 5 3 23 -8 42 -25 18 -17 38 -28 45 -25
15 5 68 -28 59 -37 -4 -3 3 -4 16 -2 16 3 20 0 16 -11 -4 -11 -2 -12 12 -5 11
6 24 6 33 0 11 -7 8 -9 -11 -9 -24 -1 -24 -1 -3 -10 12 -5 27 -18 33 -29 9
-17 8 -20 -5 -15 -8 4 -15 2 -15 -4 0 -6 -10 -8 -22 -5 -16 3 -19 2 -10 -5 10
-7 10 -11 -2 -21 -8 -7 -20 -10 -25 -6 -7 3 -8 0 -5 -9 8 -21 -22 -32 -41 -16
-18 15 -20 -1 -2 -19 10 -11 10 -13 0 -7 -8 4 -13 1 -13 -7 0 -24 -62 -64
-112 -71 -32 -5 -48 -12 -48 -22 0 -17 2 -17 35 -2 14 6 28 8 32 5 8 -9 -111
-124 -137 -132 -11 -4 -20 -11 -20 -16 0 -5 -7 -9 -15 -9 -7 0 -18 -6 -22 -13
-4 -8 -21 -22 -38 -33 -16 -10 -37 -26 -45 -35 -14 -15 -18 -15 -35 -3 -13 10
-36 13 -79 9 -55 -5 -91 -15 -54 -15 21 0 98 -41 98 -52 0 -15 -82 -88 -106
-94 -13 -3 -26 -15 -29 -25 -4 -10 -11 -19 -16 -19 -6 0 -7 -6 -3 -12 5 -9 2
-9 -9 1 -15 12 -17 11 -17 -3 0 -11 -5 -14 -12 -10 -6 4 -8 3 -5 -4 11 -17 -3
-41 -21 -35 -11 5 -14 2 -9 -10 3 -9 2 -18 -3 -18 -6 -1 -14 -3 -20 -4 -5 -1
-18 -3 -27 -5 -11 -1 -13 -3 -5 -7 15 -6 16 -33 0 -33 -6 0 -8 -3 -5 -6 3 -4
2 -15 -4 -26 -7 -13 -16 -17 -31 -12 -14 4 -18 2 -14 -5 4 -6 2 -11 -4 -11 -6
0 -4 -8 6 -17 17 -17 17 -18 -10 -21 -25 -3 -26 -5 -10 -16 17 -13 11 -42 -6
-31 -13 8 -70 -23 -70 -39 0 -25 13 -25 32 0 11 14 23 23 26 20 3 -3 -2 -14
-10 -23 -22 -26 -29 -51 -16 -59 6 -4 8 -3 5 3 -4 6 0 14 9 17 9 3 12 2 9 -4
-9 -15 -9 -139 0 -180 4 -19 16 -46 25 -60 26 -36 106 -114 122 -118 7 -2 22
-12 33 -22 24 -21 91 -51 99 -43 3 3 2 -8 -3 -24 -5 -16 -31 -61 -59 -99 -28
-38 -88 -122 -133 -187 -59 -84 -85 -114 -92 -105 -6 9 -7 7 -3 -6 4 -11 -4
-36 -22 -65 -55 -92 -55 -91 -29 -91 12 0 34 8 47 17 21 15 23 15 12 1 -7 -9
-9 -18 -3 -20 5 -1 1 -21 -10 -42 -10 -22 -19 -45 -19 -52 0 -6 -6 -12 -12
-11 -36 1 -58 -4 -58 -14 0 -7 12 -10 30 -7 25 4 31 1 36 -18 14 -57 47 -30
114 95 31 57 39 66 68 69 17 2 32 1 32 -1 0 -19 -54 -93 -70 -97 -26 -6 -26
-26 -1 -22 13 2 20 -5 24 -28 6 -28 37 -45 37 -19 0 5 6 7 13 3 6 -4 9 -4 5 1
-9 9 20 65 64 124 l33 43 91 2 c94 3 114 8 114 30 0 8 7 20 16 27 10 8 38 45
64 84 83 125 99 147 150 206 28 31 64 75 79 96 15 21 65 74 111 118 120 116
166 163 245 247 68 72 71 74 89 56 11 -10 24 -18 30 -18 6 1 0 10 -13 20 l-23
20 45 53 c83 95 91 102 187 151 85 44 129 77 130 98 0 4 -15 15 -32 23 -29 14
-31 14 -14 0 11 -8 14 -15 8 -15 -7 0 -12 -5 -12 -11 0 -6 7 -9 15 -5 13 4 14
2 5 -14 -6 -11 -14 -20 -17 -20 -3 0 -3 3 0 7 4 3 2 12 -4 19 -9 11 -14 11
-26 -1 -21 -21 -33 -18 -28 7 6 30 65 88 89 88 17 0 18 2 6 10 -11 7 -9 11 12
19 14 5 28 15 30 22 3 9 7 7 11 -5 5 -11 3 -15 -5 -10 -8 5 -9 0 -5 -15 4 -18
3 -20 -9 -10 -11 9 -14 8 -14 -5 0 -9 -6 -16 -14 -16 -8 0 -17 -8 -20 -17 -4
-10 -4 -14 0 -10 4 4 16 -1 27 -10 15 -14 36 -18 96 -17 64 0 83 4 121 28 l45
27 -32 -29 c-18 -16 -33 -32 -33 -37 0 -5 -20 -38 -44 -74 -24 -36 -50 -84
-56 -106 -22 -74 18 -151 48 -93 l12 23 -3 -25 c-2 -16 5 -34 18 -48 l21 -23
58 56 c32 30 61 55 66 55 4 0 10 14 14 30 6 33 89 149 152 215 26 27 48 40 69
41 16 1 48 5 70 8 96 15 153 9 208 -22 28 -17 51 -35 49 -42 -1 -6 2 -9 8 -5
11 7 120 -61 120 -75 0 -11 -41 -20 -54 -12 -21 13 -34 10 -29 -8 7 -26 -61
-33 -83 -9 -24 26 -184 74 -170 50 7 -11 -6 -15 -33 -12 -7 2 -10 -2 -7 -8 3
-5 0 -15 -7 -23 -20 -20 -41 -60 -45 -87 -2 -14 -13 -38 -25 -55 -12 -17 -21
-33 -21 -36 1 -3 -3 -16 -8 -30 -26 -68 -51 -161 -58 -215 -4 -33 -10 -69 -14
-80 -5 -13 -3 -12 7 4 14 24 15 24 21 4 5 -15 13 -19 26 -16 11 3 17 9 14 14
-3 5 0 9 5 9 6 0 11 -7 11 -16 0 -8 5 -12 10 -9 6 3 10 -4 10 -17 0 -18 2 -20
10 -8 8 13 10 12 10 -4 0 -15 3 -16 15 -6 8 7 15 17 15 23 0 5 10 24 23 41 13
17 36 63 52 101 29 70 42 88 57 79 4 -3 8 -1 8 5 0 5 -4 12 -9 15 -11 7 16 88
34 102 8 6 12 13 10 16 -3 3 2 11 10 18 12 10 18 11 28 1 9 -10 8 -11 -5 -6
-10 4 -18 3 -18 -3 0 -6 21 -10 50 -9 27 1 50 5 50 9 0 3 18 5 40 4 22 -2 40
0 40 4 0 4 18 6 40 5 22 -1 40 2 40 7 0 4 12 5 26 2 20 -5 25 -4 20 5 -6 9 0
10 20 5 20 -5 25 -4 19 6 -6 9 -3 10 14 1 11 -7 21 -8 21 -3 0 5 12 7 26 4 18
-3 25 -1 20 6 -11 18 56 -19 115 -64 31 -24 110 -77 174 -119 65 -41 112 -75
104 -75 -8 0 -21 6 -28 13 -11 10 -13 9 -8 -5 8 -22 -11 -23 -41 -2 -23 16
-30 6 -10 -14 7 -7 10 -12 7 -13 -2 0 -11 -2 -19 -4 -60 -13 -86 -14 -121 -5
-22 6 -42 19 -45 28 -16 48 -29 61 -83 80 -94 34 -119 35 -139 4 -35 -55 -43
-59 -136 -67 l-90 -7 55 -49 c55 -50 69 -57 69 -38 0 5 4 8 9 5 5 -3 7 -15 4
-25 -3 -10 0 -22 6 -25 6 -4 11 -14 11 -22 0 -18 -35 -11 -62 13 -23 21 -33
-1 -11 -27 10 -11 24 -20 33 -21 10 0 11 -2 3 -6 -42 -16 -141 -148 -163 -215
-6 -21 -15 -38 -20 -38 -4 0 -11 -8 -15 -17 -5 -14 -3 -15 6 -6 14 14 39 -5
32 -24 -3 -7 0 -13 5 -13 6 0 14 10 18 22 7 22 7 22 34 -10 14 -18 31 -32 36
-32 18 0 93 61 151 121 30 32 60 56 66 52 6 -3 7 -1 3 5 -9 15 43 62 77 69 15
3 30 10 33 14 3 5 14 9 25 9 11 0 18 3 16 8 -3 4 8 8 25 8 17 1 34 7 39 15 7
11 9 11 9 1 0 -10 5 -10 21 -2 11 7 27 9 34 6 7 -2 16 2 19 10 3 8 11 14 18
14 9 0 8 -3 -2 -10 -8 -5 -11 -10 -7 -10 4 0 19 7 32 16 13 9 29 13 34 10 5
-4 12 -2 16 3 3 5 13 10 23 9 28 0 82 10 166 31 59 16 82 18 93 10 7 -6 13 -9
13 -5 0 3 19 -12 41 -34 23 -22 59 -50 80 -62 21 -12 35 -26 32 -31 -3 -6 -1
-7 4 -4 27 17 293 -177 273 -197 -8 -8 -13 -7 -18 0 -11 18 -156 119 -190 133
-18 8 -32 17 -32 22 0 5 -5 9 -10 9 -6 0 -29 12 -51 26 -41 26 -51 26 -55 -1
-2 -12 2 -12 17 -5 11 6 19 7 19 1 0 -5 10 -11 23 -15 13 -3 46 -22 73 -43 27
-21 50 -37 52 -35 7 7 22 0 17 -8 -3 -5 3 -10 15 -10 12 0 18 -4 15 -10 -4 -6
-3 -10 2 -9 20 3 34 -2 28 -11 -3 -5 -1 -10 5 -10 6 0 21 -9 33 -21 12 -11 38
-30 57 -40 37 -21 34 -21 -64 7 -27 7 -53 11 -59 7 -6 -3 -7 -1 -3 5 4 7 -6
15 -26 20 -18 5 -55 19 -83 29 -27 11 -58 19 -68 18 -9 -2 -15 0 -12 5 7 11
-20 20 -56 20 -17 0 -38 4 -48 9 -21 12 -63 3 -55 -11 4 -6 0 -15 -7 -20 -12
-8 -11 -9 1 -5 8 2 24 1 35 -4 19 -7 19 -8 -2 -8 -28 -1 -53 -11 -53 -22 0 -4
19 -6 43 -4 29 3 36 2 22 -4 -11 -5 -23 -7 -27 -5 -4 3 -9 0 -13 -6 -3 -5 -2
-10 4 -10 5 0 18 -3 28 -6 15 -5 15 -4 3 5 -10 7 -11 11 -2 11 21 0 51 -36 41
-51 -5 -9 -9 -9 -9 -3 0 12 -38 26 -78 28 -12 1 -21 -3 -19 -9 2 -5 14 -10 26
-9 12 0 21 -6 22 -15 0 -12 3 -11 9 4 7 18 8 19 15 3 4 -10 16 -18 27 -18 10
0 17 -4 14 -9 -3 -4 4 -17 16 -27 12 -11 18 -14 15 -8 -9 15 41 25 50 11 3 -5
2 -8 -3 -4 -5 3 -22 -5 -38 -18 l-29 -23 27 1 c17 1 24 6 21 15 -3 8 0 12 7 9
7 -2 12 -11 10 -21 -3 -18 13 -22 24 -5 4 8 9 8 17 0 13 -13 30 -15 22 -2 -8
14 13 23 31 13 13 -7 8 -12 -24 -25 -40 -16 -64 -47 -37 -47 8 0 15 7 15 15 0
12 4 13 19 6 10 -6 21 -8 24 -4 4 3 12 1 20 -5 18 -15 60 -3 53 14 -3 8 1 14
8 14 9 0 12 -8 8 -25 -4 -23 -13 -30 -34 -26 -5 0 -8 -4 -8 -10 0 -7 11 -9 30
-5 28 5 30 4 27 -19 -1 -13 -6 -27 -10 -31 -3 -3 -4 6 -2 22 l4 29 -12 -27
c-7 -17 -19 -28 -31 -29 -14 0 -10 -4 12 -10 21 -6 30 -14 27 -22 -4 -7 5 0
19 16 14 15 30 27 36 27 5 0 10 5 10 12 0 6 2 9 5 6 10 -10 -7 -38 -23 -38 -8
0 -13 -3 -9 -6 3 -4 -4 -15 -16 -25 -16 -14 -17 -17 -5 -13 11 4 20 0 24 -10
8 -21 34 3 26 24 -4 12 -2 12 14 -1 13 -11 30 -15 53 -12 31 5 32 4 22 -15 -8
-15 -8 -22 2 -25 8 -3 6 -10 -8 -21 -20 -17 -19 -17 3 -6 14 7 21 17 18 26 -3
8 -1 14 5 14 7 0 9 -10 5 -23 -5 -22 -3 -23 44 -21 28 1 47 -3 44 -8 -3 -5
-13 -7 -21 -4 -8 3 -12 2 -9 -2 3 -5 33 -9 67 -10 35 -1 65 -5 68 -9 3 -5 26
-9 51 -11 51 -3 51 -3 53 -31 2 -24 12 -28 21 -6 3 8 0 15 -6 15 -6 0 -8 3 -5
6 4 4 13 2 21 -5 7 -6 30 -14 51 -16 33 -5 36 -3 30 15 -4 14 -2 20 9 20 17 0
30 -16 19 -23 -5 -2 -2 -2 6 0 8 2 23 -6 33 -17 22 -24 40 -26 32 -5 -4 9 0
15 10 15 9 0 18 0 21 0 3 0 4 -3 3 -7 -2 -5 -6 -7 -10 -6 -4 2 -5 -4 -1 -13 4
-11 9 -12 16 -5 16 16 30 13 24 -3 -4 -10 -1 -13 9 -9 17 6 19 30 2 36 -7 2 1
4 18 3 17 -1 39 -7 48 -15 12 -10 16 -10 16 -1 0 9 3 10 14 1 16 -13 77 -18
94 -7 7 4 12 4 12 -1 0 -9 67 -9 77 1 3 3 13 6 22 5 12 0 10 -3 -4 -8 -16 -7
-12 -10 23 -15 47 -9 57 -25 15 -27 -28 -2 -28 -2 -3 -6 14 -3 31 -10 39 -16
11 -9 13 -9 8 -1 -4 8 11 18 42 28 60 19 62 20 55 2 -3 -8 3 -17 14 -20 16 -5
19 -15 18 -51 l-1 -45 18 22 c10 13 16 17 12 11 -3 -7 0 -13 7 -13 9 0 9 -3
-2 -10 -27 -19 73 7 127 32 11 6 26 7 33 3 6 -4 20 1 32 12 11 10 23 18 27 17
3 -1 19 3 34 9 18 6 26 14 23 24 -3 8 -2 12 3 9 12 -8 71 14 71 26 0 5 4 7 9
4 5 -4 22 -1 37 5 42 15 22 0 -33 -26 -35 -17 -42 -24 -26 -24 12 -1 25 4 28
9 3 6 19 10 34 10 15 0 32 5 39 12 9 9 12 9 12 1 0 -7 -5 -15 -10 -18 -6 -4
-8 -11 -5 -16 4 -5 0 -12 -9 -15 -8 -3 -12 -12 -9 -20 3 -7 -2 -17 -11 -20 -9
-3 -13 -10 -11 -15 3 -4 -3 -17 -13 -27 -10 -10 -16 -24 -14 -32 4 -11 2 -11
-11 1 -10 9 -12 18 -6 26 6 7 6 13 0 17 -5 4 -12 2 -16 -4 -3 -5 -11 -10 -17
-10 -6 0 -1 8 10 19 12 10 22 26 22 35 0 9 5 16 10 16 6 0 10 4 10 10 0 5 -11
9 -24 8 -14 -1 -24 -5 -23 -8 5 -19 -30 -80 -52 -90 l-26 -12 23 22 c28 26 28
28 -3 22 -34 -6 -59 -51 -39 -69 16 -15 28 -17 19 -3 -4 6 1 7 11 3 11 -4 15
-3 10 5 -3 6 -1 14 5 18 8 4 9 3 5 -4 -4 -7 -2 -12 4 -12 6 0 8 -4 5 -10 -3
-5 -2 -10 3 -10 15 0 23 28 9 33 -8 2 -8 5 0 10 6 4 18 1 26 -7 8 -8 29 -24
48 -35 19 -12 28 -21 22 -21 -7 0 -13 -5 -13 -11 0 -6 7 -9 15 -5 10 4 15 -1
15 -14 0 -13 7 -20 20 -20 25 0 25 9 3 26 -27 19 -11 25 21 9 16 -8 39 -15 52
-15 13 0 24 -6 24 -12 0 -7 5 -5 11 5 12 21 4 38 -16 30 -8 -3 -15 0 -15 6 0
15 37 14 43 -1 4 -10 8 -9 16 2 9 12 11 11 11 -7 0 -13 5 -23 11 -23 6 0 9 7
5 15 -6 17 2 19 22 7 7 -5 10 -16 7 -24 -5 -12 -1 -14 19 -11 16 3 26 1 26 -7
0 -7 6 -6 16 4 21 21 37 20 30 -2 -4 -10 1 -27 9 -38 11 -14 15 -15 14 -4 -3
28 1 40 12 40 5 0 9 -8 7 -17 -1 -10 1 -24 5 -30 6 -9 2 -13 -10 -13 -14 0
-15 -2 -4 -9 8 -5 11 -16 8 -24 -4 -11 -1 -14 9 -10 10 4 12 0 7 -13 -4 -10
-2 -15 4 -11 5 3 10 1 10 -6 0 -7 4 -20 8 -29 5 -12 -4 -23 -34 -42 -23 -15
-41 -31 -41 -36 0 -6 -5 -10 -12 -10 -6 0 -2 10 9 22 22 25 20 46 -9 66 -10 7
-18 19 -17 25 0 9 2 9 6 0 2 -7 10 -13 16 -13 6 0 4 7 -5 16 -18 19 -40 11
-31 -11 3 -10 -1 -15 -13 -16 -16 0 -15 -2 4 -9 12 -5 22 -12 22 -15 0 -4 -4
-3 -10 0 -5 3 -10 1 -10 -4 0 -6 7 -11 15 -11 8 0 15 -9 15 -19 0 -21 -18 -43
-56 -68 -27 -17 -32 -43 -9 -43 28 0 95 40 95 57 0 9 3 14 6 10 8 -8 60 19 97
49 16 13 34 24 40 24 8 0 7 -3 -2 -9 -9 -6 -10 -11 -2 -15 6 -4 8 -12 5 -18
-4 -7 -9 -6 -14 2 -9 15 -40 6 -40 -10 0 -6 5 -8 10 -5 6 3 10 -1 10 -9 0 -17
-10 -20 -25 -8 -6 4 -7 3 -2 -2 4 -6 7 -19 8 -30 0 -21 0 -21 10 -1 l9 20 -3
-20 c-3 -25 -205 -138 -289 -162 -32 -9 -58 -20 -58 -24 0 -12 -159 -61 -172
-53 -6 4 -8 3 -5 -3 4 -7 -19 -19 -61 -31 -157 -48 -245 -72 -264 -72 -10 0
-47 -6 -81 -14 -65 -15 -179 -35 -236 -43 -19 -2 -41 -7 -50 -12 -9 -4 -38 -9
-66 -10 -27 -1 -115 -10 -195 -21 -226 -29 -390 -49 -455 -54 -64 -6 -218 -23
-275 -31 -113 -16 -310 -34 -405 -36 -335 -6 -613 0 -710 17 -16 3 -93 9 -171
13 -77 5 -150 13 -161 19 -11 6 -51 18 -89 26 -60 12 -70 12 -77 -1 -10 -16
-50 -11 -102 12 -16 7 -48 16 -70 20 -22 3 -69 13 -105 22 -36 9 -96 15 -134
14 -65 -1 -68 0 -50 15 18 15 18 15 -3 5 -13 -7 -56 -8 -112 -4 -107 7 -187
-10 -291 -63 -36 -18 -93 -39 -128 -48 -72 -18 -167 -22 -157 -6 3 6 -1 7 -9
4 -9 -3 -16 -1 -16 5 0 6 -3 10 -7 9 -16 -4 -160 45 -198 67 -22 12 -67 30
-100 40 -33 9 -88 30 -124 46 -35 16 -68 29 -73 29 -10 0 -27 7 -130 54 -31
14 -63 26 -72 26 -8 0 -22 3 -31 6 -13 6 -14 9 -3 16 9 6 6 7 -9 3 -18 -5 -34
5 -78 46 -30 28 -52 55 -49 60 3 5 -2 6 -10 3 -9 -4 -44 12 -82 36 -37 23 -92
51 -122 61 -31 11 -71 28 -90 39 -19 12 -57 26 -86 32 -28 6 -76 22 -106 36
-67 31 -288 102 -350 112 -25 5 -75 20 -110 34 -116 48 -175 58 -346 60 -89 2
-166 6 -173 10 -6 4 -36 5 -66 2 -74 -8 -236 -9 -326 -1 -218 17 -344 51 -390
103 -16 18 -29 30 -29 27 0 -14 -27 23 -53 73 -21 39 -28 65 -27 100 1 26 2
64 2 85 l0 37 20 -25 c16 -21 18 -28 7 -41 -10 -12 -10 -22 1 -52 21 -58 61
-112 87 -118 17 -5 23 -12 20 -24 -4 -14 9 -22 68 -39 40 -11 83 -21 94 -21
12 0 21 -6 21 -14 0 -11 19 -15 83 -18 77 -3 109 3 94 18 -3 4 -44 10 -91 14
-46 5 -94 15 -107 23 -13 8 -48 22 -77 32 -66 21 -105 54 -142 119 -29 50 -40
93 -20 81 6 -3 10 -1 10 4 0 6 -4 11 -10 11 -5 0 -10 5 -10 11 0 5 4 8 9 5 5
-4 5 10 0 32 -5 20 -7 53 -4 72 2 19 2 27 -1 18 -10 -33 -20 -18 -17 25 l3 42
-15 -30 c-8 -16 -14 -43 -15 -60 0 -33 -15 -63 -25 -53 -4 3 0 26 8 50 8 24
23 85 32 135 9 51 21 90 26 87 5 -3 5 -13 -1 -24 -5 -10 -10 -28 -10 -40 0
-17 10 -9 43 36 50 67 95 114 109 114 6 0 8 7 4 15 -3 9 0 15 10 15 8 0 19 11
24 25 9 23 20 30 43 26 4 -1 7 6 5 16 -2 11 6 19 22 23 14 3 25 12 25 20 0 8
9 16 20 18 16 2 17 1 5 -7 -12 -8 -11 -10 7 -9 14 2 19 7 15 18 -3 8 29 -28
72 -80 75 -92 244 -273 479 -513 l115 -117 39 19 c104 52 173 72 296 88 26 3
47 8 47 12 0 3 24 6 54 6 30 0 52 3 49 8 -2 4 -13 7 -24 7 -10 0 -19 3 -19 8
0 4 -33 32 -72 62 -40 30 -75 57 -78 60 -3 3 -27 23 -55 44 -27 22 -57 47 -66
55 -8 9 -28 25 -44 36 -44 32 -139 121 -254 239 -58 60 -141 144 -183 186 -43
42 -78 80 -78 84 0 5 17 24 38 42 31 28 34 33 17 34 -19 1 -19 1 -2 15 11 7
25 11 32 9 7 -3 16 -1 20 5 3 6 0 9 -8 5 -8 -3 -18 0 -22 6 -5 8 -11 8 -21 -1
-10 -9 -14 -9 -14 0 0 6 7 14 15 17 12 5 13 9 4 20 -10 12 -14 10 -25 -12 -8
-14 -14 -33 -14 -41 0 -8 -4 -12 -10 -8 -13 8 -43 -41 -34 -57 5 -9 4 -10 -3
-3 -16 15 -103 145 -103 154 0 4 -11 22 -25 41 -14 19 -25 41 -25 50 0 9 -11
27 -25 40 l-26 24 -23 -29 -23 -29 -5 25 c-2 14 1 31 9 37 7 7 13 9 13 3 0 -5
10 -7 22 -3 12 3 17 7 11 9 -16 6 -5 33 13 33 8 0 14 4 14 10 0 5 6 7 14 4 13
-5 30 28 27 54 -1 6 4 12 12 12 8 0 41 13 73 30 57 29 58 30 26 30 -19 0 -31
-4 -27 -10 3 -6 -1 -7 -10 -3 -13 5 -14 7 -3 14 7 5 21 9 31 9 9 0 17 5 17 11
0 5 5 7 12 3 7 -4 8 -3 4 4 -5 8 7 14 34 18 22 4 43 11 46 15 9 14 58 10 82
-7 23 -16 30 -6 10 14 -7 7 -8 12 -4 12 5 0 3 7 -4 15 -14 17 -30 20 -30 6 0
-5 8 -12 17 -14 10 -3 -1 -3 -24 0 -30 4 -50 1 -67 -11 -14 -9 -34 -16 -44
-16 -11 0 -25 -6 -31 -14 -6 -8 -23 -16 -36 -19 -20 -3 -23 -2 -14 9 6 8 16
11 21 8 6 -4 5 3 -2 15 -9 19 -6 28 27 71 21 27 43 47 50 45 7 -2 10 2 6 11
-10 27 -22 16 -108 -99 -20 -26 -40 -45 -46 -42 -5 4 -12 0 -15 -8 -2 -7 -10
-14 -17 -15 -7 -1 -23 -3 -37 -5 -14 -2 -16 -2 -6 0 14 4 16 7 7 13 -10 5 -7
13 10 29 12 11 18 21 12 21 -6 0 -4 13 6 34 9 18 20 32 24 29 4 -3 5 7 2 20
-5 18 -2 28 10 34 15 9 15 13 1 52 -14 41 -13 44 5 48 11 3 18 12 17 21 -2 8
3 17 11 20 10 3 13 -3 9 -27 -2 -17 -1 -31 4 -31 14 0 8 64 -7 84 -17 23 -19
36 -5 36 6 0 10 -10 11 -22 1 -20 2 -19 9 5 5 16 6 36 3 45 -4 15 -3 15 6 2 9
-13 11 -12 11 3 0 10 5 15 10 12 5 -3 10 2 10 11 0 16 1 16 14 -1 11 -16 17
-17 29 -7 12 10 17 10 23 1 4 -8 3 -9 -4 -5 -7 4 -12 2 -12 -4 0 -7 6 -10 13
-7 6 2 20 -2 29 -10 15 -14 15 -17 2 -30 -8 -9 -12 -18 -9 -21 3 -4 10 0 15 8
11 18 16 14 29 -30 l11 -35 -6 40 c-6 48 -47 103 -97 130 -20 11 -37 24 -37
28 0 5 4 6 9 3 5 -4 11 -1 13 4 2 6 21 15 43 20 58 14 326 40 405 40 84 0 187
-19 168 -32 -9 -6 -8 -8 7 -7 27 4 65 -10 65 -22 0 -6 5 -7 10 -4 14 9 198
-114 206 -137 3 -10 8 -17 12 -17 21 3 32 -2 26 -13 -4 -6 -3 -8 3 -5 5 3 24
-3 42 -14 27 -16 32 -25 28 -45 -5 -30 12 -44 20 -15 9 33 25 25 18 -9 -7 -34
10 -42 20 -10 8 25 21 26 35 0 13 -24 184 -110 308 -153 86 -31 91 -34 75 -49
-30 -26 -39 -28 -74 -18 -44 13 -66 5 -84 -30 -23 -44 -18 -60 6 -20 28 45 41
53 56 34 7 -10 13 -11 18 -5 3 6 11 11 16 11 6 0 -3 -11 -18 -25 -20 -18 -22
-23 -9 -18 11 3 27 14 36 23 9 9 38 27 63 39 26 13 47 25 47 27 0 3 -4 2 -10
-1 -5 -3 -10 -4 -10 -2 0 2 18 16 41 31 23 16 38 33 36 40 -12 32 -19 106 -9
106 5 0 10 -6 9 -12 -1 -37 4 -68 11 -68 5 0 6 26 4 58 -3 42 1 68 12 91 9 17
14 36 10 42 -3 6 3 13 15 16 12 3 21 12 21 19 0 8 3 13 8 13 19 -3 25 2 12 11
-12 9 -7 18 33 55 27 25 54 42 60 38 7 -3 9 -3 5 2 -9 10 11 37 22 30 4 -3 15
6 24 20 18 27 39 34 30 10 -4 -8 -11 -12 -18 -8 -6 3 -5 0 2 -8 15 -17 33 -18
48 -4 9 7 9 12 0 17 -7 5 -6 8 3 8 12 0 11 3 -2 13 -16 11 -13 16 30 57 26 25
40 36 32 26 -13 -18 -12 -19 11 -12 14 4 33 8 42 9 9 1 14 5 12 9 -3 4 3 8 13
8 10 0 25 4 33 10 12 7 12 12 -4 29 -10 11 -24 18 -30 15 -15 -7 88 87 139
128 22 18 33 24 25 14 -15 -19 -14 -19 15 -1 39 25 44 30 21 21 -19 -7 -19 -6
-1 14 10 11 20 18 22 16 3 -2 14 5 25 16 12 12 28 18 39 15 10 -3 17 -1 13 4
-3 5 0 9 6 9 6 0 8 6 4 13 -4 6 2 3 13 -8 11 -11 18 -24 16 -30 -2 -5 3 -1 11
9 9 11 16 25 16 30 0 6 -4 5 -9 -2 -7 -11 -9 -11 -13 0 -4 9 2 14 18 16 13 1
24 -3 24 -9z m175 -39 c3 -6 -1 -7 -9 -4 -18 7 -21 14 -7 14 6 0 13 -4 16 -10z
m1008 -17 c-7 -2 -13 -12 -13 -20 0 -9 -3 -14 -6 -10 -10 10 4 37 18 36 10 0
10 -2 1 -6z m-80 -17 c4 -10 1 -13 -7 -10 -17 6 -30 -12 -20 -27 4 -7 9 -8 13
-1 4 7 13 6 25 -3 17 -13 16 -14 -10 -11 -16 2 -32 4 -36 5 -13 2 -9 24 9 43
19 22 19 22 26 4z m-193 -32 c0 -8 -19 -13 -24 -6 -3 5 1 9 9 9 8 0 15 -2 15
-3z m305 -14 c-3 -5 -16 -10 -28 -9 -20 1 -20 2 3 9 14 4 26 8 28 9 2 1 0 -3
-3 -9z m-509 -75 c-18 -27 -22 -91 -6 -97 6 -2 2 -8 -7 -14 -16 -10 -18 -7
-18 35 0 35 -4 46 -17 49 -12 2 -18 -3 -18 -14 0 -10 -7 -26 -16 -36 -14 -15
-15 -20 -4 -34 11 -13 11 -17 1 -24 -8 -4 -10 -13 -6 -20 4 -7 2 -16 -6 -21
-10 -6 -6 -8 14 -7 15 1 27 6 27 11 0 4 4 5 10 2 6 -3 7 1 4 9 -3 9 -2 16 4
16 6 0 13 -6 15 -12 3 -7 6 -2 6 11 1 20 3 21 16 11 8 -7 15 -18 15 -26 0 -29
20 -22 38 13 41 82 47 90 69 88 11 -1 28 -9 38 -18 9 -9 30 -17 46 -17 16 0
29 -4 29 -9 0 -5 -9 -7 -20 -4 -20 5 -78 -25 -101 -54 -13 -15 -12 -15 11 -4
23 11 23 11 7 -3 -11 -8 -26 -12 -35 -9 -11 5 -14 2 -9 -10 4 -10 1 -17 -6
-17 -8 0 -6 -4 3 -10 12 -8 10 -10 -9 -10 -18 0 -22 4 -17 17 4 10 4 14 0 11
-4 -4 -15 -3 -25 2 -14 8 -21 6 -29 -10 -6 -11 -14 -19 -18 -19 -28 5 -41 -2
-35 -18 6 -17 5 -17 -14 0 -14 12 -23 15 -28 8 -4 -7 -14 -4 -27 8 -19 19 -19
21 -4 51 9 18 13 36 10 41 -3 5 2 9 11 9 11 0 13 4 8 13 -4 6 -8 19 -9 27 -1
8 -2 25 -3 36 -2 30 -26 37 -62 19 -16 -9 -29 -11 -29 -6 0 5 11 12 25 15 14
4 25 11 25 17 0 8 4 8 14 0 11 -9 17 -8 28 2 7 8 27 18 43 24 17 5 31 15 31
21 1 7 2 15 3 19 0 4 10 -3 22 -16 19 -20 20 -24 5 -46z m174 14 c0 -6 -4 -7
-10 -4 -5 3 -10 11 -10 16 0 6 5 7 10 4 6 -3 10 -11 10 -16z m-280 1 c0 -5 -5
-10 -11 -10 -5 0 -7 5 -4 10 3 6 8 10 11 10 2 0 4 -4 4 -10z m857 -15 c0 -8
-4 -12 -9 -9 -5 3 -6 10 -3 15 9 13 12 11 12 -6z m-582 -33 c-3 -3 -11 0 -18
7 -9 10 -8 11 6 5 10 -3 15 -9 12 -12z m-399 -44 c-9 -5 -14 -13 -11 -18 3 -5
-4 -11 -15 -15 -11 -3 -20 -9 -21 -13 -5 -38 -2 -78 6 -85 6 -4 1 -7 -10 -5
-17 2 -21 -3 -23 -34 -2 -21 -8 -38 -14 -38 -5 0 -8 -6 -5 -14 3 -8 3 -17 0
-20 -11 -10 -10 -60 0 -74 5 -7 7 -15 3 -19 -3 -3 -6 -1 -6 5 0 7 -3 12 -7 12
-5 0 -9 -16 -9 -35 -1 -19 3 -32 7 -29 5 3 9 -5 9 -18 0 -18 -2 -20 -10 -8 -8
13 -10 13 -14 0 -3 -8 -7 -25 -9 -37 -3 -22 -87 -104 -87 -86 -8 155 -7 203 5
213 7 6 12 19 10 28 -1 9 5 26 14 37 15 18 15 19 -2 6 -9 -8 -20 -11 -24 -7
-3 3 -1 6 5 6 6 0 10 8 9 18 -2 28 39 103 85 154 53 58 122 111 127 96 2 -6
-4 -15 -13 -20z m-215 13 c5 9 9 9 9 3 0 -7 -9 -22 -20 -35 -10 -13 -19 -19
-20 -12 0 6 4 14 10 18 5 3 8 11 6 18 -1 7 -1 8 2 3 2 -4 8 -2 13 5z m1246
-13 c-3 -8 -6 -5 -6 6 -1 11 2 17 5 13 3 -3 4 -12 1 -19z m-587 7 c0 -7 -30
-13 -34 -7 -3 4 4 9 15 9 10 1 19 0 19 -2z m35 -5 c-3 -5 -12 -10 -18 -10 -7
0 -6 4 3 10 19 12 23 12 15 0z m-1361 -19 c3 -5 -1 -14 -8 -20 -10 -9 -16 -9
-21 -1 -4 6 -1 9 7 8 7 -2 12 3 11 10 -3 14 3 16 11 3z m41 -1 c3 -6 -1 -7 -9
-4 -18 7 -21 14 -7 14 6 0 13 -4 16 -10z m590 -19 c5 -18 -10 -58 -27 -71 -16
-12 -55 -140 -57 -185 -5 -172 -12 -292 -17 -307 -4 -14 -9 -16 -24 -8 -23 12
-40 13 -40 1 0 -5 12 -12 26 -15 17 -5 24 -12 20 -21 -3 -8 -1 -15 5 -15 6 0
7 -5 3 -12 -5 -8 -10 -5 -17 9 -12 26 -67 55 -67 34 0 -5 13 -14 30 -21 48
-20 47 -44 -3 -98 -196 -213 -218 -238 -210 -246 4 -3 2 -6 -3 -6 -6 0 -37
-36 -70 -80 -62 -83 -77 -91 -142 -74 -19 6 -21 9 -10 23 11 14 11 14 -2 4
-23 -17 -83 0 -109 31 -7 9 -17 14 -21 11 -4 -2 -22 11 -40 30 -19 19 -29 35
-22 35 7 0 3 9 -8 20 -15 15 -18 25 -10 44 5 13 6 27 3 30 -10 10 37 106 67
136 3 3 21 23 40 45 20 22 38 40 40 40 3 0 21 12 40 27 35 28 28 37 -13 17
-21 -10 -21 -10 -3 5 11 9 26 16 33 16 17 0 88 80 86 97 0 8 2 12 5 9 10 -11
31 15 25 31 -4 11 -2 14 5 9 7 -4 12 -2 12 3 0 6 -5 11 -12 11 -6 0 -8 3 -5 6
4 4 13 1 22 -6 9 -7 18 -10 22 -6 3 3 1 6 -6 6 -7 0 -9 5 -4 13 4 6 8 17 8 22
0 6 8 9 18 9 9 -1 14 2 12 7 -3 4 11 19 32 33 21 15 32 26 25 26 -6 0 -12 5
-12 11 0 5 10 9 23 7 16 -2 22 2 21 15 -2 15 1 16 14 5 13 -11 15 -10 9 10 -4
17 -2 22 8 18 10 -3 12 0 8 12 -3 9 -3 14 1 10 4 -3 20 7 35 23 16 16 34 29
40 29 7 0 10 4 7 8 -3 5 6 15 19 22 14 7 25 19 25 27 0 7 4 13 9 13 6 0 18 13
27 29 10 17 21 28 25 25 5 -2 18 9 30 26 13 16 32 31 43 31 19 1 19 2 2 6 -15
4 -16 7 -5 14 21 13 27 11 34 -10z m775 10 c0 -4 -11 -6 -25 -3 -14 2 -25 6
-25 8 0 2 11 4 25 4 14 0 25 -4 25 -9z m538 -33 c15 -57 8 -59 -10 -3 -9 25
-12 45 -8 45 4 0 12 -19 18 -42z m-498 22 c-20 -13 -33 -13 -25 0 3 6 14 10
23 10 15 0 15 -2 2 -10z m90 -150 c15 -14 37 -32 49 -40 13 -8 34 -23 46 -32
13 -10 28 -18 34 -18 6 0 11 -4 11 -10 0 -5 7 -10 15 -10 9 0 18 -7 21 -15 3
-8 14 -17 25 -20 10 -4 19 -15 19 -26 0 -21 -16 -26 -23 -6 -2 6 -8 -3 -13
-20 l-9 -32 -40 37 c-49 45 -149 120 -172 129 -16 6 -16 5 -3 -8 8 -8 40 -31
70 -51 30 -20 75 -54 98 -76 l44 -41 -28 -34 c-27 -35 -28 -35 -105 -33 -43 1
-80 4 -83 7 -3 3 -26 4 -51 3 -43 -2 -46 -1 -40 19 5 21 4 20 -7 -1 -9 -19 -9
-25 3 -33 37 -23 -6 -5 -63 27 -70 40 -108 67 -185 132 -60 52 -66 62 -46 81
13 12 14 11 8 -10 -7 -23 -7 -23 11 -8 11 8 39 21 64 28 25 7 57 22 72 32 14
11 33 19 42 19 9 0 16 5 16 10 0 6 3 9 8 8 10 -3 56 13 62 22 3 4 25 14 50 22
43 14 46 14 59 -6 8 -12 27 -32 41 -46z m-583 -60 c-3 -11 -1 -20 4 -20 5 0 9
6 9 14 0 8 5 18 12 22 7 4 8 3 4 -4 -4 -7 -3 -12 3 -12 5 0 11 5 13 12 3 9 6
9 12 0 4 -8 -2 -16 -18 -22 -14 -5 -34 -18 -45 -29 -26 -26 -33 -14 -16 27 15
35 30 44 22 12z m1047 -5 c3 -8 1 -15 -4 -15 -6 0 -10 7 -10 15 0 8 2 15 4 15
2 0 6 -7 10 -15z m29 -72 c-5 -76 -13 -112 -25 -119 -7 -5 -9 -2 -5 9 3 9 1
22 -6 29 -18 20 -19 38 -2 32 8 -4 13 -10 10 -14 -3 -5 -2 -11 3 -14 4 -2 9 4
9 15 1 11 -5 23 -13 26 -16 6 -19 33 -3 33 5 0 7 -4 4 -10 -3 -5 -1 -10 4 -10
11 0 13 11 14 57 0 12 3 21 7 18 4 -2 5 -26 3 -52z m-1928 -23 c3 -5 2 -10 -4
-10 -5 0 -13 5 -16 10 -3 6 -2 10 4 10 5 0 13 -4 16 -10z m1632 -62 c-3 -7 -5
-2 -5 12 0 14 2 19 5 13 2 -7 2 -19 0 -25z m-2136 -5 c-12 -20 -14 -14 -5 12
4 9 9 14 11 11 3 -2 0 -13 -6 -23z m2384 -2 c3 -5 2 -12 -3 -15 -5 -3 -9 1 -9
9 0 17 3 19 12 6z m-2398 -43 c-3 -8 -6 -5 -6 6 -1 11 2 17 5 13 3 -3 4 -12 1
-19z m2416 -14 c-3 -8 -9 -14 -14 -14 -4 0 -5 7 -2 17 5 12 3 14 -7 8 -8 -5
-11 -4 -6 3 9 16 36 3 29 -14z m-1226 -16 c0 -13 -1 -17 -4 -10 -4 10 -8 10
-21 0 -12 -9 -11 -6 2 10 11 12 20 22 20 22 1 0 2 -10 3 -22z m-2913 -4 c3 -8
2 -12 -4 -9 -6 3 -10 10 -10 16 0 14 7 11 14 -7z m2905 -41 c0 -11 -3 -13 -6
-5 -2 6 -9 10 -14 6 -5 -3 -9 0 -9 5 0 6 7 11 15 11 8 0 15 -8 14 -17z m714
-6 c-3 -5 -11 -6 -18 -3 -7 2 -19 -1 -26 -7 -11 -10 -11 -9 -2 3 12 16 56 23
46 7z m47 9 c0 -2 -7 -7 -16 -10 -8 -3 -12 -2 -9 4 6 10 25 14 25 6z m-1436
-25 c3 -5 -1 -11 -9 -14 -9 -4 -12 -1 -8 9 6 16 10 17 17 5z m644 -3 c-2 -8 5
-12 16 -10 15 3 16 1 5 -11 -12 -12 -15 -12 -25 2 -7 9 -10 19 -8 23 8 12 14
9 12 -4z m6 -61 c7 -6 4 -7 -6 -3 -13 4 -18 0 -18 -16 0 -18 2 -19 17 -7 15
12 16 12 8 -1 -5 -8 -8 -23 -7 -32 2 -10 -1 -18 -7 -18 -6 0 -7 8 -4 17 5 12
2 15 -9 11 -13 -6 -14 -1 -7 30 5 20 9 42 10 47 0 6 3 3 6 -5 3 -8 11 -19 17
-23z m1251 15 c-3 -3 -11 0 -18 7 -9 10 -8 11 6 5 10 -3 15 -9 12 -12z m-4065
-45 c0 -2 -10 -12 -22 -23 l-23 -19 19 23 c18 21 26 27 26 19z m-40 -62 c0 -8
-4 -15 -10 -15 -5 0 -7 7 -4 15 4 8 8 15 10 15 2 0 4 -7 4 -15z m2814 3 c-5
-8 -2 -9 9 -5 27 10 19 -9 -9 -21 -14 -7 -23 -9 -21 -5 2 5 7 16 10 26 4 9 9
17 12 17 4 0 3 -5 -1 -12z m-2871 -15 c-7 -2 -13 -11 -13 -19 0 -8 -7 -17 -15
-20 -8 -4 -15 -12 -15 -20 0 -12 -26 -42 -63 -73 -15 -12 -17 -11 -17 9 0 16
4 20 16 16 8 -3 12 -2 9 3 -3 5 -1 12 5 16 5 3 10 15 10 26 0 11 5 17 10 14 6
-4 8 -11 5 -16 -4 -5 -1 -9 6 -9 6 0 9 8 6 20 -4 15 0 20 13 20 13 0 18 6 15
20 -3 15 1 20 18 19 12 0 16 -3 10 -6z m3310 -38 c-36 -44 -43 -50 -43 -40 0
6 71 85 77 85 2 0 -13 -20 -34 -45z m-437 -9 c-9 -18 -16 -23 -19 -14 -3 7 -6
-2 -6 -19 -1 -18 -5 -33 -11 -33 -5 0 -10 -10 -11 -22 0 -13 -3 -17 -6 -10 -3
7 -1 20 3 30 8 17 11 28 13 49 1 13 42 55 48 49 2 -1 -3 -15 -11 -30z m-2916
-50 c0 -2 -8 -10 -17 -17 -16 -13 -17 -12 -4 4 13 16 21 21 21 13z m3653 -51
c-3 -9 -8 -14 -10 -11 -3 3 -2 9 2 15 9 16 15 13 8 -4z m-3753 1 c0 -2 -7 -9
-15 -16 -13 -11 -14 -10 -9 4 5 14 24 23 24 12z m-28 -63 c-3 -16 -7 -22 -10
-15 -4 13 4 42 11 42 2 0 2 -12 -1 -27z m2892 -2 c3 -5 -2 -15 -11 -22 -11
-10 -14 -10 -9 -2 5 9 2 11 -9 7 -11 -5 -13 -10 -5 -19 8 -10 6 -13 -7 -11
-10 0 -17 -5 -15 -12 1 -7 -5 -15 -13 -18 -8 -3 -13 -9 -11 -13 3 -4 -4 -7
-13 -8 -16 -1 -18 3 -10 35 l8 37 -20 -24 c-10 -13 -19 -39 -20 -60 0 -28 -2
-32 -8 -16 -9 23 2 61 27 89 31 34 104 58 116 37z m-2860 -59 c3 -5 -3 -21
-14 -36 -18 -28 -18 -28 -29 -8 -13 25 -14 35 -2 28 5 -3 11 1 15 9 6 16 22
20 30 7z m2551 -102 c-10 -11 -20 -18 -23 -15 -7 6 18 35 31 35 5 0 2 -9 -8
-20z m-2614 -18 c-6 -2 -11 -15 -11 -29 0 -21 -3 -23 -14 -13 -8 6 -13 18 -10
26 15 48 13 47 30 33 10 -8 12 -15 5 -17z m3029 -2 c0 -5 -5 -10 -11 -10 -5 0
-7 5 -4 10 3 6 8 10 11 10 2 0 4 -4 4 -10z m50 -4 c0 -2 -8 -10 -17 -17 -16
-13 -17 -12 -4 4 13 16 21 21 21 13z m1645 -46 c-3 -5 -12 -10 -18 -10 -7 0
-6 4 3 10 19 12 23 12 15 0z m-1720 -70 c-3 -5 -16 -15 -28 -21 -19 -9 -19 -8
3 10 28 23 34 26 25 11z m-80 -54 c-16 -13 -32 -22 -35 -19 -6 5 41 42 55 43
6 0 -3 -11 -20 -24z m-64 -4 c-7 -2 -18 1 -23 6 -8 8 -4 9 13 5 13 -4 18 -8
10 -11z m-2826 -42 c-3 -5 4 -19 16 -31 l23 -23 -22 -14 c-12 -8 -22 -21 -22
-28 0 -8 -6 -14 -13 -14 -8 0 -22 -9 -32 -20 -14 -16 -21 -18 -28 -8 -6 9 -7
8 -4 -4 4 -10 -7 -29 -29 -50 -18 -18 -34 -38 -34 -43 0 -6 -9 -16 -20 -23
-11 -7 -20 -18 -20 -25 0 -7 -9 -18 -20 -24 -16 -11 -18 -10 -14 2 4 8 10 15
15 15 5 0 9 6 9 14 0 8 17 32 38 54 38 40 71 89 54 78 -7 -4 -7 4 -3 21 5 16
13 27 19 26 6 -2 9 6 7 17 -3 14 2 20 16 20 13 0 19 7 19 22 0 25 28 60 41 52
5 -3 7 -9 4 -14z m2805 -34 c0 -2 -8 -10 -17 -17 -16 -13 -17 -12 -4 4 13 16
21 21 21 13z m-2760 -54 c-8 -3 -22 -10 -30 -16 -8 -6 -7 -1 4 11 10 13 23 20
29 16 7 -4 6 -8 -3 -11z m-41 -36 c-2 -2 -15 -9 -29 -15 -24 -11 -24 -11 -6 3
16 13 49 24 35 12z m2712 -19 c-10 -9 -11 -8 -5 6 3 10 9 15 12 12 3 -3 0 -11
-7 -18z m-2762 -20 c-2 -1 -13 -9 -24 -17 -19 -14 -19 -14 -6 3 7 9 18 17 24
17 6 0 8 -1 6 -3z m5528 -42 c0 -8 -4 -12 -9 -9 -5 3 -6 10 -3 15 9 13 12 11
12 -6z m-5582 -15 c-3 -5 -12 -10 -18 -10 -7 0 -6 4 3 10 19 12 23 12 15 0z
m2765 6 c0 -2 -8 -10 -17 -17 -16 -13 -17 -12 -4 4 13 16 21 21 21 13z m-2800
-50 c0 -2 -7 -7 -16 -10 -8 -3 -12 -2 -9 4 6 10 25 14 25 6z m5750 -6 c0 -5
-2 -10 -4 -10 -3 0 -8 5 -11 10 -3 6 -1 10 4 10 6 0 11 -4 11 -10z m-53 -54
c-2 -5 -10 -11 -18 -14 -11 -3 -11 -2 1 7 13 10 13 13 -2 25 -10 7 -15 16 -11
20 9 9 35 -24 30 -38z m428 10 c25 -18 70 -44 100 -56 31 -12 54 -24 52 -27
-2 -2 -38 10 -80 27 -41 16 -81 30 -89 31 -10 0 -10 2 1 6 9 4 3 10 -18 19
-18 8 -30 18 -26 24 9 15 12 13 60 -24z m-3395 10 c0 -2 -8 -10 -17 -17 -16
-13 -17 -12 -4 4 13 16 21 21 21 13z m3157 -2 c-3 -3 -12 -4 -19 -1 -8 3 -5 6
6 6 11 1 17 -2 13 -5z m-5937 -8 c0 -2 -8 -10 -17 -17 -16 -13 -17 -12 -4 4
13 16 21 21 21 13z m5877 -12 c-3 -3 -12 -4 -19 -1 -8 3 -5 6 6 6 11 1 17 -2
13 -5z m-112 -34 c3 -5 -1 -10 -9 -10 -9 0 -16 5 -16 10 0 6 4 10 9 10 6 0 13
-4 16 -10z m55 0 c0 -13 -11 -13 -30 0 -12 8 -11 10 8 10 12 0 22 -4 22 -10z
m130 -26 c0 -2 -7 -4 -15 -4 -8 0 -15 4 -15 10 0 5 7 7 15 4 8 -4 15 -8 15
-10z m197 -10 c-3 -3 -12 -4 -19 -1 -8 3 -5 6 6 6 11 1 17 -2 13 -5z m-62 -24
c3 -5 2 -10 -4 -10 -5 0 -13 5 -16 10 -3 6 -2 10 4 10 5 0 13 -4 16 -10z
m-3731 -36 c4 -10 1 -14 -6 -12 -15 5 -23 28 -10 28 5 0 13 -7 16 -16z m3566
12 c0 -2 -7 -7 -16 -10 -8 -3 -12 -2 -9 4 6 10 25 14 25 6z m105 -6 c3 -5 -1
-10 -9 -10 -9 0 -16 5 -16 10 0 6 4 10 9 10 6 0 13 -4 16 -10z m-3481 -16 c3
-9 2 -23 -4 -32 -8 -15 -9 -14 -10 6 0 13 -4 20 -10 17 -5 -3 -10 1 -10 9 0
21 26 21 34 0z m3623 -10 c-3 -3 -12 -4 -19 -1 -8 3 -5 6 6 6 11 1 17 -2 13
-5z m423 -9 c19 -7 28 -14 20 -14 -8 0 -28 6 -45 14 -39 17 -21 18 25 0z
m-213 -1 c-3 -3 -12 -4 -19 -1 -8 3 -5 6 6 6 11 1 17 -2 13 -5z m-272 -32 c-8
-8 -45 -10 -45 -2 0 13 11 18 31 13 11 -3 17 -8 14 -11z m212 12 c-3 -3 -12
-4 -19 -1 -8 3 -5 6 6 6 11 1 17 -2 13 -5z m-60 -30 c-3 -3 -12 -4 -19 -1 -8
3 -5 6 6 6 11 1 17 -2 13 -5z m-57 -44 c0 -5 -9 -10 -20 -10 -11 0 -20 5 -20
10 0 6 9 10 20 10 11 0 20 -4 20 -10z m140 -10 c0 -5 -7 -10 -15 -10 -8 0 -15
5 -15 10 0 6 7 10 15 10 8 0 15 -4 15 -10z m153 -7 c-7 -2 -19 -2 -25 0 -7 3
-2 5 12 5 14 0 19 -2 13 -5z m-463 -23 c0 -5 -2 -10 -4 -10 -3 0 -8 5 -11 10
-3 6 -1 10 4 10 6 0 11 -4 11 -10z m245 -20 c-3 -5 -13 -10 -21 -10 -8 0 -14
5 -14 10 0 6 9 10 21 10 11 0 17 -4 14 -10z m160 0 c-3 -5 -13 -10 -21 -10 -8
0 -14 5 -14 10 0 6 9 10 21 10 11 0 17 -4 14 -10z m155 0 c0 -5 -7 -10 -15
-10 -8 0 -15 5 -15 10 0 6 7 10 15 10 8 0 15 -4 15 -10z m133 -7 c-7 -2 -19
-2 -25 0 -7 3 -2 5 12 5 14 0 19 -2 13 -5z m302 -13 c3 -6 -1 -7 -9 -4 -18 7
-21 14 -7 14 6 0 13 -4 16 -10z m-660 -30 c4 -6 -6 -10 -22 -10 -22 0 -25 2
-13 10 19 12 27 12 35 0z m305 0 c0 -5 -7 -10 -15 -10 -8 0 -15 5 -15 10 0 6
7 10 15 10 8 0 15 -4 15 -10z m155 0 c3 -5 -3 -10 -14 -10 -12 0 -21 5 -21 10
0 6 6 10 14 10 8 0 18 -4 21 -10z m-310 -10 c-3 -5 -10 -10 -16 -10 -5 0 -9 5
-9 10 0 6 7 10 16 10 8 0 12 -4 9 -10z m452 4 c-3 -3 -12 -4 -19 -1 -8 3 -5 6
6 6 11 1 17 -2 13 -5z m150 -10 c-3 -3 -12 -4 -19 -1 -8 3 -5 6 6 6 11 1 17
-2 13 -5z m-202 -33 c3 -5 1 -13 -5 -16 -15 -9 -43 3 -35 15 8 13 32 13 40 1z
m829 0 c31 -1 36 -4 27 -14 -6 -8 -9 -17 -6 -20 3 -4 2 -5 -2 -2 -3 3 -14 -2
-24 -11 -15 -14 -17 -14 -15 3 1 13 -10 20 -41 28 -54 13 -60 20 -15 19 21 -1
54 -2 76 -3z m-994 -11 c0 -5 -9 -10 -21 -10 -11 0 -17 5 -14 10 3 6 13 10 21
10 8 0 14 -4 14 -10z m305 0 c3 -5 -3 -10 -15 -10 -12 0 -18 5 -15 10 3 6 10
10 15 10 5 0 12 -4 15 -10z m-515 -4 c0 -3 -4 -8 -10 -11 -5 -3 -10 -1 -10 4
0 6 5 11 10 11 6 0 10 -2 10 -4z m672 -8 c-9 -9 -15 -9 -24 0 -9 9 -7 12 12
12 19 0 21 -3 12 -12z m148 -8 c0 -5 -7 -10 -15 -10 -8 0 -15 5 -15 10 0 6 7
10 15 10 8 0 15 -4 15 -10z m435 -30 c-3 -5 -14 -10 -23 -9 -14 0 -13 2 3 9
27 11 27 11 20 0z m-647 -12 c-3 -7 -13 -13 -23 -13 -10 0 -20 6 -22 13 -3 7
5 12 22 12 17 0 25 -5 23 -12z m32 2 c0 -5 -5 -10 -11 -10 -5 0 -7 5 -4 10 3
6 8 10 11 10 2 0 4 -4 4 -10z m115 -6 c-17 -17 -45 -18 -45 -1 0 6 13 12 29
13 25 1 27 -1 16 -12z m147 -16 c-9 -9 -15 -9 -24 0 -9 9 -7 12 12 12 19 0 21
-3 12 -12z m333 -12 c-11 -8 -24 -12 -29 -8 -5 3 -1 9 10 13 31 12 39 10 19
-5z m-466 -23 c17 4 20 3 11 -8 -6 -7 -22 -15 -35 -18 -22 -4 -25 -1 -25 26 0
28 1 29 14 12 9 -12 20 -16 35 -12z m-4 17 c-3 -5 -11 -10 -16 -10 -6 0 -7 5
-4 10 3 6 11 10 16 10 6 0 7 -4 4 -10z m55 -24 c0 -2 -7 -7 -16 -10 -8 -3 -12
-2 -9 4 6 10 25 14 25 6z m93 -9 c-2 -4 -5 -7 -8 -7 -3 0 -9 0 -15 0 -5 0 -10
4 -10 9 0 5 8 8 18 7 9 -2 16 -6 15 -9z m297 10 c0 -2 -10 -12 -22 -23 l-23
-19 19 23 c18 21 26 27 26 19z m-360 -27 c0 -5 -5 -10 -11 -10 -5 0 -7 5 -4
10 3 6 8 10 11 10 2 0 4 -4 4 -10z m-60 -15 c0 -8 -4 -15 -10 -15 -5 0 -7 7
-4 15 4 8 8 15 10 15 2 0 4 -7 4 -15z m645 -125 c-3 -5 -13 -10 -21 -10 -8 0
-14 5 -14 10 0 6 9 10 21 10 11 0 17 -4 14 -10z m155 -190 c0 -5 -10 -15 -22
-21 -22 -12 -22 -11 -5 8 9 11 14 23 10 28 -5 4 -2 5 5 1 6 -4 12 -11 12 -16z
m-7780 -560 c12 -8 11 -10 -5 -9 -11 1 -33 5 -50 9 l-30 8 35 1 c19 0 42 -4
50 -9z m166 -31 c4 -7 -11 -9 -52 -4 -77 10 -81 15 -11 15 31 0 59 -5 63 -11z
m41 -15 c-3 -3 -12 -4 -19 -1 -8 3 -5 6 6 6 11 1 17 -2 13 -5z m153 -15 c30
-7 29 -8 -14 -4 -27 3 -63 5 -80 5 -24 0 -28 3 -16 10 14 10 32 8 110 -11z
m200 -19 c255 -29 264 -29 278 -10 13 18 15 18 50 -3 34 -20 51 -22 215 -23
144 0 180 -3 188 -15 5 -8 9 -9 9 -3 0 14 130 27 145 14 7 -5 14 -7 17 -4 7 6
262 6 383 -1 173 -9 222 -14 282 -28 34 -8 64 -13 66 -10 3 2 36 -5 73 -16 37
-11 71 -18 75 -16 4 3 28 -4 54 -15 57 -25 75 -25 76 -2 0 11 2 13 6 4 3 -8
36 -29 75 -47 38 -18 76 -39 85 -47 15 -11 16 -11 10 5 -4 10 -3 16 1 14 4 -1
33 -16 65 -31 32 -16 70 -30 84 -32 14 -1 54 -17 89 -34 35 -17 68 -29 73 -25
9 5 61 -14 71 -26 8 -11 82 -39 89 -34 10 6 81 -17 81 -26 0 -4 16 -13 36 -19
19 -7 33 -14 31 -16 -6 -6 -99 17 -113 27 -6 5 -14 6 -17 2 -4 -3 -7 -2 -7 4
0 6 -24 16 -52 23 -29 6 -66 18 -83 25 -72 32 -135 54 -135 47 0 -4 -5 0 -10
8 -6 9 -10 10 -10 3 0 -9 -8 -8 -27 3 -16 7 -36 14 -46 14 -11 0 -15 4 -11 12
4 7 3 8 -4 4 -6 -4 -31 -1 -54 5 -24 7 -46 13 -50 15 -5 1 -11 3 -15 4 -5 1
-11 2 -15 1 -5 0 -8 4 -8 9 0 7 -6 8 -17 2 -9 -6 -24 -6 -32 -2 -30 15 -216
53 -254 51 -25 -1 -36 2 -32 9 4 6 -16 10 -59 10 -35 0 -76 4 -89 9 -14 6 -49
12 -79 15 -167 18 -465 46 -543 51 -111 7 -188 13 -240 19 -22 3 -89 7 -150
11 -60 3 -121 8 -135 10 -14 3 -83 9 -155 15 -204 15 -425 43 -425 53 0 6 17
7 43 2 23 -4 76 -11 117 -15z m2795 -461 c22 -11 51 -24 65 -29 14 -4 33 -11
43 -15 12 -5 17 -3 15 6 -4 19 54 12 65 -7 12 -20 46 -32 111 -39 29 -3 70
-12 89 -20 20 -8 56 -15 81 -15 25 0 57 -5 73 -11 59 -22 578 -51 713 -39 14
1 61 1 105 0 44 -1 113 3 154 8 57 7 74 6 78 -5 3 -7 10 -13 15 -13 6 0 8 7 4
15 -5 13 -2 14 15 4 15 -8 24 -8 28 0 5 7 27 7 71 1 66 -10 167 -3 175 10 3 5
22 6 43 3 20 -2 66 0 102 6 36 6 111 11 168 12 56 1 102 5 102 9 0 4 39 10 88
13 48 4 103 11 122 17 19 5 58 10 85 10 28 0 75 6 105 14 30 7 89 16 130 20
107 8 113 10 128 24 7 6 34 11 60 11 32 -2 37 -3 17 -6 -43 -5 -74 -23 -68
-39 4 -10 -3 -14 -21 -14 -16 0 -26 -6 -26 -15 0 -15 -34 -27 -80 -29 -18 -1
-26 -6 -23 -13 4 -9 -7 -13 -33 -13 -22 0 -59 -5 -84 -11 -25 -6 -63 -12 -85
-13 -22 -2 -92 -9 -155 -15 -63 -6 -173 -13 -245 -15 -71 -3 -130 -6 -130 -6
0 -1 -15 -3 -33 -6 -25 -3 -31 -1 -26 9 6 9 4 9 -7 1 -19 -15 -719 -17 -719
-2 0 7 -4 7 -12 1 -7 -5 -30 -8 -51 -7 -21 1 -111 4 -200 8 -223 9 -480 37
-637 71 -302 64 -490 117 -490 137 0 14 35 8 75 -13z"/>
<path d="M3685 4810 c-3 -5 -1 -10 4 -10 6 0 11 5 11 10 0 6 -2 10 -4 10 -3 0
-8 -4 -11 -10z"/>
<path d="M3640 4770 c-15 -13 -18 -20 -9 -20 8 0 20 9 27 20 7 11 11 20 9 20
-2 0 -14 -9 -27 -20z"/>
<path d="M3788 4663 c7 -3 16 -2 19 1 4 3 -2 6 -13 5 -11 0 -14 -3 -6 -6z"/>
<path d="M3550 4652 c0 -4 9 -8 19 -8 11 0 17 4 15 8 -3 4 -12 8 -20 8 -8 0
-14 -4 -14 -8z"/>
<path d="M3484 4629 c-16 -17 -16 -22 -4 -29 18 -11 32 -8 38 8 2 7 -4 12 -13
12 -14 0 -15 3 -5 15 19 23 6 18 -16 -6z"/>
<path d="M3520 4636 c0 -2 7 -7 16 -10 8 -3 12 -2 9 4 -6 10 -25 14 -25 6z"/>
<path d="M3885 4610 c-24 -9 -50 -38 -42 -46 7 -7 67 36 67 48 0 9 1 9 -25 -2z"/>
<path d="M3570 4562 c-25 -28 -35 -62 -19 -62 5 0 9 7 9 16 0 8 6 22 13 29 30
34 37 45 30 45 -4 0 -19 -13 -33 -28z"/>
<path d="M2128 4563 c7 -3 16 -2 19 1 4 3 -2 6 -13 5 -11 0 -14 -3 -6 -6z"/>
<path d="M3772 4544 c-12 -8 -22 -19 -22 -23 0 -10 69 21 70 32 0 12 -24 8
-48 -9z"/>
<path d="M3390 4530 c-8 -5 -10 -10 -5 -10 6 0 4 -4 -4 -9 -7 -5 -9 -11 -4
-14 6 -4 15 5 21 18 13 28 13 28 -8 15z"/>
<path d="M3428 4511 c4 -10 7 -11 10 -3 2 7 8 10 13 6 5 -3 9 -1 9 5 0 5 -9 9
-19 8 -12 -1 -17 -6 -13 -16z"/>
<path d="M3503 4513 c4 -3 1 -13 -6 -22 -11 -14 -10 -14 6 -2 20 15 23 2 5
-19 -8 -10 -6 -9 5 1 18 16 14 49 -6 49 -6 0 -7 -3 -4 -7z"/>
<path d="M3678 4499 c-10 -5 -18 -16 -18 -24 0 -11 8 -10 35 6 19 12 35 23 35
25 0 8 -35 3 -52 -7z"/>
<path d="M3297 4473 c-4 -3 -7 -11 -7 -17 0 -6 5 -5 12 2 6 6 9 14 7 17 -3 3
-9 2 -12 -2z"/>
<path d="M3590 4440 c-14 -10 -22 -21 -19 -25 9 -8 57 15 63 31 8 20 -15 17
-44 -6z"/>
<path d="M3468 4423 c7 -3 16 -2 19 1 4 3 -2 6 -13 5 -11 0 -14 -3 -6 -6z"/>
<path d="M3270 4390 c0 -5 5 -10 11 -10 5 0 7 5 4 10 -3 6 -8 10 -11 10 -2 0
-4 -4 -4 -10z"/>
<path d="M1516 4374 c-3 -9 -1 -12 4 -9 6 3 10 1 10 -4 0 -6 -6 -11 -12 -12
-7 -1 -2 -5 12 -9 17 -5 19 -8 8 -9 -10 -1 -18 -5 -18 -11 0 -5 7 -7 16 -3 10
4 15 1 13 -8 -3 -20 12 -50 22 -44 4 3 4 17 -1 30 -6 16 -6 25 0 25 6 0 10 -7
10 -15 0 -8 5 -15 11 -15 6 0 8 7 5 16 -5 14 -4 15 9 4 13 -10 15 -9 15 9 0
12 5 19 10 16 6 -3 10 2 10 12 0 10 -9 24 -21 31 -12 8 -18 9 -14 3 8 -13 -10
-14 -52 -2 -25 7 -33 6 -37 -5z"/>
<path d="M3444 4335 c-16 -14 -24 -25 -17 -25 6 0 15 5 18 11 4 6 14 8 23 4 9
-3 13 -3 9 1 -4 4 -2 13 4 21 19 22 -6 15 -37 -12z"/>
<path d="M1681 4290 c0 -8 4 -22 9 -30 12 -18 12 -2 0 25 -6 13 -9 15 -9 5z"/>
<path d="M3336 4263 c-36 -24 -52 -41 -46 -47 6 -6 17 1 31 18 12 16 37 35 56
42 18 8 33 16 33 19 0 12 -21 3 -74 -32z"/>
<path d="M1692 4215 c0 -16 2 -22 5 -12 2 9 2 23 0 30 -3 6 -5 -1 -5 -18z"/>
<path d="M3250 4202 c0 -5 -11 -15 -25 -22 -29 -16 -84 -83 -60 -74 8 3 15 10
15 15 0 5 7 9 15 9 8 0 14 6 13 13 -2 6 3 11 10 10 6 -2 12 4 12 12 0 8 7 15
15 15 8 0 15 5 15 11 0 5 5 7 10 4 6 -3 10 -1 10 4 0 6 -7 11 -15 11 -8 0 -15
-4 -15 -8z"/>
<path d="M1698 4155 c2 -14 6 -25 8 -25 2 0 4 11 4 25 0 14 -4 25 -9 25 -4 0
-6 -11 -3 -25z"/>
<path d="M1576 4130 c-18 -18 -18 -19 3 -13 12 3 21 12 21 19 0 17 -1 17 -24
-6z"/>
<path d="M1625 4130 c-3 -5 -26 -18 -50 -29 -25 -11 -45 -25 -45 -31 0 -7 3
-10 8 -8 69 33 127 58 138 58 8 0 14 5 14 10 0 13 -57 13 -65 0z"/>
<path d="M3125 4091 c-3 -5 -1 -12 5 -16 5 -3 10 1 10 9 0 18 -6 21 -15 7z"/>
<path d="M1451 4081 c-8 -6 -9 -11 -3 -15 6 -3 14 -1 17 5 9 14 2 20 -14 10z"/>
<path d="M2870 4072 c0 -5 11 -12 25 -14 14 -3 25 -1 25 3 0 5 -4 9 -9 9 -5 0
-16 3 -25 6 -9 3 -16 2 -16 -4z"/>
<path d="M1404 4055 c-10 -8 -14 -14 -9 -15 15 0 40 18 34 24 -3 3 -14 -1 -25
-9z"/>
<path d="M5664 4042 c8 -13 96 -63 96 -54 0 4 -23 20 -51 36 -29 16 -49 24
-45 18z"/>
<path d="M1675 4021 c-3 -5 0 -13 6 -17 7 -4 9 -3 5 4 -3 5 0 13 6 15 9 4 10
6 1 6 -6 1 -14 -3 -18 -8z"/>
<path d="M1720 4010 c13 -8 13 -10 -2 -10 -9 0 -19 -4 -22 -8 -2 -4 7 -8 22
-7 22 0 31 -10 64 -75 22 -41 43 -76 48 -78 16 -6 12 -22 -5 -22 -8 0 -24 -9
-35 -20 -11 -11 -24 -20 -28 -20 -12 0 -52 -44 -52 -58 0 -7 -7 -12 -15 -12
-8 0 -19 -8 -24 -18 -11 -20 -9 -72 2 -72 4 0 11 0 16 0 5 0 13 9 16 20 4 11
11 18 16 14 6 -3 5 -12 -3 -22 -12 -15 -11 -16 5 -3 9 7 17 24 17 37 0 23 49
89 50 67 0 -7 -4 -13 -10 -13 -5 0 -15 -10 -21 -22 -9 -18 -4 -16 23 10 19 18
37 29 41 26 4 -4 7 -2 7 5 0 7 5 9 13 5 7 -5 6 0 -3 11 -8 10 -10 16 -3 12 6
-4 13 -1 16 5 3 10 11 11 37 1 l33 -12 -24 27 c-13 15 -36 38 -51 52 -15 14
-42 54 -59 90 -33 70 -55 100 -73 100 -6 0 -4 -5 4 -10z m125 -226 c-16 -8
-34 -22 -38 -30 -4 -8 -13 -14 -19 -14 -16 0 -58 -41 -58 -57 0 -7 -5 -13 -12
-13 -6 0 -21 -8 -32 -17 -20 -18 -20 -18 -4 7 8 14 19 25 24 24 5 -1 17 11 26
27 9 15 27 33 40 40 13 7 25 15 28 19 9 12 44 29 60 30 8 0 2 -7 -15 -16z"/>
<path d="M2855 3924 c-165 -113 -388 -210 -553 -239 -146 -27 -320 -13 -371
28 -17 15 -71 18 -71 5 0 -5 8 -17 17 -26 16 -16 16 -16 10 1 -7 18 8 22 37
11 15 -6 15 -8 -1 -21 -17 -13 -16 -13 4 -4 15 8 30 8 50 0 77 -30 253 -25
403 10 57 13 72 13 40 -1 -14 -6 -32 -10 -40 -9 -13 2 -13 0 -1 -8 16 -10 71
12 71 28 0 5 21 16 48 26 73 28 256 115 262 125 3 5 12 10 20 12 8 2 21 9 28
16 8 7 41 31 73 53 32 22 59 42 59 44 0 8 -1 7 -85 -51z"/>
<path d="M5776 3968 c3 -5 10 -6 15 -3 13 9 11 12 -6 12 -8 0 -12 -4 -9 -9z"/>
<path d="M1746 3911 c-3 -5 1 -11 9 -15 8 -3 15 -1 15 4 0 13 -18 22 -24 11z"/>
<path d="M5290 3902 c0 -13 35 -42 50 -42 9 0 5 9 -10 25 -24 25 -40 32 -40
17z"/>
<path d="M3200 3880 c-9 -6 -10 -10 -3 -10 6 0 15 5 18 10 8 12 4 12 -15 0z"/>
<path d="M3174 3848 c-27 -13 -49 -55 -28 -55 7 0 11 3 9 7 -2 3 10 15 26 25
43 30 38 45 -7 23z"/>
<path d="M3220 3841 c0 -5 -9 -12 -19 -16 -19 -6 -36 -33 -26 -43 3 -3 13 2
23 12 11 9 25 15 33 13 8 -2 11 -2 7 0 -4 2 -5 10 -2 18 3 7 1 16 -5 20 -6 3
-11 2 -11 -4z"/>
<path d="M5373 3825 c37 -33 57 -32 27 0 -13 14 -31 25 -39 25 -11 -1 -8 -8
12 -25z"/>
<path d="M1728 3826 c-10 -7 -18 -18 -18 -25 0 -6 -5 -11 -12 -11 -6 0 -8 -3
-5 -6 4 -4 12 -2 19 3 7 6 27 13 43 17 28 6 29 5 11 -9 -11 -8 -16 -15 -12
-15 4 0 18 8 31 18 22 18 22 19 4 30 -24 15 -40 15 -61 -2z"/>
<path d="M3068 3779 c-16 -11 -28 -26 -28 -33 0 -8 -10 -25 -21 -40 -29 -37
-15 -46 19 -13 14 15 21 27 14 27 -7 0 -10 5 -7 10 4 6 11 7 17 4 6 -4 8 -3 5
2 -3 6 8 19 24 29 16 11 29 23 29 28 0 13 -25 7 -52 -14z"/>
<path d="M2895 3780 c4 -6 11 -8 16 -5 14 9 11 15 -7 15 -8 0 -12 -5 -9 -10z"/>
<path d="M3120 3773 c-20 -8 -40 -36 -33 -46 3 -5 16 1 28 13 13 12 27 20 32
17 5 -3 15 -1 23 5 12 8 12 9 -2 4 -10 -3 -18 -1 -18 4 0 11 -7 11 -30 3z"/>
<path d="M4560 3730 c27 -21 40 -25 40 -12 0 9 -44 32 -58 32 -4 0 4 -9 18
-20z"/>
<path d="M6136 3737 c3 -10 9 -15 12 -12 3 3 0 11 -7 18 -10 9 -11 8 -5 -6z"/>
<path d="M2982 3724 c-12 -8 -27 -24 -33 -35 -9 -18 -8 -19 8 -10 25 15 63 48
63 55 0 10 -15 7 -38 -10z"/>
<path d="M5122 3699 c-13 -16 -19 -29 -14 -29 10 0 46 49 40 55 -2 1 -13 -11
-26 -26z"/>
<path d="M6190 3700 c19 -16 42 -29 51 -30 8 0 21 -6 28 -12 10 -11 11 -10 6
3 -5 14 -94 69 -112 69 -4 0 8 -13 27 -30z"/>
<path d="M4610 3695 c0 -6 56 -35 67 -35 14 1 -39 40 -53 40 -8 0 -14 -2 -14
-5z"/>
<path d="M2500 3680 c0 -5 5 -10 10 -10 6 0 10 5 10 10 0 6 -4 10 -10 10 -5 0
-10 -4 -10 -10z"/>
<path d="M4576 3683 c-3 -3 8 -15 24 -25 37 -22 47 -23 30 -2 -18 20 -46 35
-54 27z"/>
<path d="M4970 3682 c0 -6 9 -16 19 -22 25 -13 74 -13 66 0 -3 6 -19 10 -34
10 -15 0 -32 5 -39 12 -9 9 -12 9 -12 0z"/>
<path d="M2870 3654 c-17 -15 -29 -29 -26 -31 6 -6 86 40 86 50 0 15 -30 6
-60 -19z"/>
<path d="M1925 3659 c-4 -6 -5 -12 -2 -15 2 -3 7 2 10 11 7 17 1 20 -8 4z"/>
<path d="M1955 3660 c-3 -5 0 -7 8 -4 8 3 18 1 22 -5 8 -14 25 -14 25 0 0 5
-4 8 -9 4 -5 -3 -12 -1 -16 5 -8 13 -22 13 -30 0z"/>
<path d="M2808 3663 c7 -3 16 -2 19 1 4 3 -2 6 -13 5 -11 0 -14 -3 -6 -6z"/>
<path d="M2928 3649 c-16 -11 -28 -27 -28 -35 0 -8 -4 -14 -10 -14 -5 0 -10 4
-10 10 0 14 -51 -9 -73 -33 -25 -28 -15 -31 24 -8 19 12 40 21 48 21 7 0 29
14 48 30 18 17 38 30 43 30 6 0 10 5 10 10 0 16 -23 11 -52 -11z"/>
<path d="M2405 3615 c3 -35 13 -42 13 -10 0 14 -4 28 -8 30 -5 3 -7 -6 -5 -20z"/>
<path d="M4690 3635 c0 -2 14 -11 30 -20 30 -16 40 -9 18 13 -12 12 -48 17
-48 7z"/>
<path d="M2772 3605 c-17 -14 -37 -23 -45 -20 -17 7 -80 -43 -71 -56 3 -5 -3
-9 -13 -9 -10 0 -24 -10 -32 -21 -12 -20 -11 -21 6 -14 10 4 30 12 46 17 29
11 35 24 15 31 -7 2 1 11 19 20 44 23 61 21 29 -4 -39 -31 -31 -41 14 -18 36
19 45 30 41 52 -1 4 10 13 24 19 14 6 25 15 25 20 0 16 -29 8 -58 -17z"/>
<path d="M4640 3625 c0 -5 55 -35 65 -35 15 0 2 18 -20 28 -27 13 -45 15 -45
7z"/>
<path d="M2280 3610 c0 -5 5 -10 10 -10 6 0 10 5 10 10 0 6 -4 10 -10 10 -5 0
-10 -4 -10 -10z"/>
<path d="M5655 3600 c10 -11 25 -20 33 -20 12 0 12 4 -3 20 -10 11 -25 20 -33
20 -12 0 -12 -4 3 -20z"/>
<path d="M4760 3586 c0 -9 73 -46 79 -41 8 9 -41 45 -61 45 -10 0 -18 -2 -18
-4z"/>
<path d="M4734 3572 c-7 -4 2 -14 23 -23 19 -10 32 -12 30 -6 -5 17 -41 37
-53 29z"/>
<path d="M5710 3561 c0 -5 11 -18 23 -28 13 -10 26 -25 30 -33 3 -10 6 -7 6 8
1 12 -8 31 -19 42 -21 21 -40 26 -40 11z"/>
<path d="M2588 3539 c-10 -5 -18 -16 -18 -23 0 -11 7 -10 35 3 19 9 34 19 35
24 0 10 -32 8 -52 -4z"/>
<path d="M1665 3530 c-3 -5 1 -10 10 -10 9 0 13 5 10 10 -3 6 -8 10 -10 10 -2
0 -7 -4 -10 -10z"/>
<path d="M2501 3515 c-22 -12 -49 -45 -37 -45 3 0 22 9 41 20 20 11 40 18 46
15 5 -3 6 1 3 9 -7 19 -20 19 -53 1z"/>
<path d="M4840 3525 c0 -9 62 -36 68 -30 9 9 -28 35 -50 35 -10 0 -18 -2 -18
-5z"/>
<path d="M4800 3510 c0 -5 5 -10 12 -10 6 0 20 -7 30 -17 10 -9 21 -13 26 -9
9 9 -35 46 -54 46 -8 0 -14 -4 -14 -10z"/>
<path d="M1648 3503 c7 -3 16 -2 19 1 4 3 -2 6 -13 5 -11 0 -14 -3 -6 -6z"/>
<path d="M1695 3500 c3 -5 12 -10 20 -10 8 0 17 5 20 10 4 6 -5 10 -20 10 -15
0 -24 -4 -20 -10z"/>
<path d="M5780 3502 c0 -10 43 -52 53 -52 12 0 7 17 -12 38 -18 22 -41 29 -41
14z"/>
<path d="M1662 3478 c3 -7 13 -15 24 -17 10 -2 21 -7 24 -12 3 -5 17 -10 30
-11 14 -2 31 -9 39 -16 15 -14 33 -12 39 6 2 7 -4 12 -14 12 -27 0 -88 23 -97
37 -10 17 -50 17 -45 1z"/>
<path d="M1740 3480 c0 -13 95 -41 115 -34 13 5 16 4 11 -4 -5 -8 2 -12 23
-12 16 0 32 4 35 8 7 12 -98 37 -118 29 -9 -4 -15 -1 -13 5 1 7 -10 13 -25 14
-16 2 -28 -1 -28 -6z"/>
<path d="M2384 3476 c-10 -8 -16 -17 -13 -20 7 -8 79 16 79 26 0 13 -45 9 -66
-6z"/>
<path d="M2526 3475 c-15 -8 -40 -15 -55 -15 -29 0 -70 -24 -60 -34 3 -4 19
-2 35 5 16 6 38 12 49 14 36 7 95 30 95 37 0 13 -33 9 -64 -7z"/>
<path d="M4925 3470 c-3 -5 8 -16 24 -25 38 -19 47 -19 31 1 -20 23 -48 36
-55 24z"/>
<path d="M2294 3460 c-12 -5 -25 -13 -28 -18 -7 -12 75 5 89 19 11 11 -32 11
-61 -1z"/>
<path d="M1980 3451 c-25 -4 -34 -11 -32 -23 2 -14 -5 -16 -40 -13 -24 2 -49
5 -57 7 -7 1 -15 -2 -18 -8 -2 -7 16 -13 45 -17 60 -7 95 1 88 19 -3 9 2 14
13 14 10 0 24 7 31 15 7 8 11 14 9 14 -2 -1 -20 -4 -39 -8z"/>
<path d="M2051 3451 c-73 -19 27 -32 165 -22 5 1 19 8 30 16 18 15 18 15 -8
12 -15 -2 -30 -6 -33 -9 -3 -3 -25 -3 -49 -1 -26 3 -46 1 -50 -6 -4 -6 -12
-11 -17 -11 -6 0 -8 4 -4 9 8 14 -7 19 -34 12z"/>
<path d="M4890 3440 c34 -27 63 -26 31 0 -13 11 -31 20 -40 20 -12 0 -10 -5 9
-20z"/>
<path d="M2366 3439 c3 -5 -3 -10 -13 -11 -20 -1 -22 -2 -80 -12 -59 -11 -70
-31 -13 -23 24 3 47 11 51 19 7 10 9 10 9 1 0 -19 35 -16 61 5 l22 19 -21 5
c-12 4 -20 2 -16 -3z"/>
<path d="M2483 3423 c0 -7 4 -13 7 -13 4 0 12 6 18 13 8 10 6 13 -7 13 -10 0
-18 -6 -18 -13z"/>
<path d="M2530 3429 c0 -5 5 -7 10 -4 6 3 10 8 10 11 0 2 -4 4 -10 4 -5 0 -10
-5 -10 -11z"/>
<path d="M2150 3405 c-11 -13 -8 -15 24 -15 20 0 36 5 36 10 0 6 -4 10 -9 10
-5 0 -16 2 -24 5 -7 3 -20 -1 -27 -10z"/>
<path d="M4997 3412 c-3 -4 10 -17 29 -30 23 -15 34 -18 34 -9 0 15 -57 51
-63 39z"/>
<path d="M1987 3403 c-15 -14 -6 -19 28 -15 19 2 35 8 35 13 0 10 -53 12 -63
2z"/>
<path d="M2065 3399 c-4 -6 -5 -12 -4 -13 8 -7 69 7 69 15 0 13 -57 11 -65 -2z"/>
<path d="M2390 3395 c-32 -18 -26 -18 30 -1 32 11 38 15 20 15 -14 0 -36 -6
-50 -14z"/>
<path d="M4940 3396 c0 -9 73 -46 79 -41 8 9 -41 45 -61 45 -10 0 -18 -2 -18
-4z"/>
<path d="M5330 3393 c0 -18 35 -51 62 -58 13 -3 35 -2 48 4 22 9 19 10 -22 10
-39 1 -50 6 -67 29 -11 15 -21 21 -21 15z"/>
<path d="M5505 3380 c-10 -11 -15 -23 -12 -27 7 -6 36 25 37 40 0 11 -6 8 -25
-13z"/>
<path d="M1913 3358 c-1 -11 1 -16 5 -12 4 5 11 12 15 15 5 3 2 9 -5 12 -9 3
-14 -3 -15 -15z"/>
<path d="M2105 3370 c-18 -8 -17 -9 8 -9 16 -1 26 3 22 9 -3 6 -7 10 -8 9 -1
0 -11 -4 -22 -9z"/>
<path d="M1958 3363 c7 -3 16 -2 19 1 4 3 -2 6 -13 5 -11 0 -14 -3 -6 -6z"/>
<path d="M2038 3363 c6 -2 18 -2 25 0 6 3 1 5 -13 5 -14 0 -19 -2 -12 -5z"/>
<path d="M5074 3335 c11 -8 24 -15 29 -15 4 0 6 -4 3 -9 -4 -5 4 -7 16 -3 l21
5 -22 19 c-13 10 -33 18 -45 18 -21 -1 -21 -1 -2 -15z"/>
<path d="M6740 3345 c0 -8 29 -12 39 -5 9 5 4 8 -13 8 -14 0 -26 -2 -26 -3z"/>
<path d="M5025 3330 c-3 -5 -1 -10 6 -10 7 0 21 -7 31 -17 10 -9 21 -13 26 -9
4 4 -4 16 -17 27 -26 21 -37 24 -46 9z"/>
<path d="M5146 3291 c-4 -5 3 -15 14 -21 11 -6 18 -15 15 -20 -3 -6 1 -7 10
-4 20 8 15 23 -12 41 -14 9 -23 11 -27 4z"/>
<path d="M5096 3283 c-6 -7 42 -43 58 -43 11 0 -13 29 -34 40 -10 5 -20 6 -24
3z"/>
<path d="M6070 3229 c0 -17 27 -45 35 -37 3 3 -3 16 -14 29 -16 19 -20 20 -21
8z"/>
<path d="M5160 3222 c0 -5 17 -17 38 -27 57 -29 60 -29 22 4 -33 30 -60 40
-60 23z"/>
<path d="M5235 3206 c17 -14 32 -20 34 -14 5 14 -27 38 -48 38 -11 0 -6 -8 14
-24z"/>
<path d="M6665 3190 c-3 -5 -1 -10 4 -10 6 0 11 5 11 10 0 6 -2 10 -4 10 -3 0
-8 -4 -11 -10z"/>
<path d="M6126 3155 c18 -27 34 -33 34 -12 0 17 -20 37 -37 37 -10 0 -10 -6 3
-25z"/>
<path d="M5280 3159 c0 -5 -4 -7 -10 -4 -5 3 -15 3 -21 0 -5 -4 6 -15 25 -26
47 -25 53 -24 30 4 -17 20 -16 20 9 -2 22 -20 27 -21 27 -8 0 9 -10 23 -22 31
-26 19 -38 20 -38 5z"/>
<path d="M6646 3161 c-4 -5 -2 -12 3 -15 5 -4 12 -2 15 3 4 5 2 12 -3 15 -5 4
-12 2 -15 -3z"/>
<path d="M6170 3112 c0 -13 49 -56 56 -49 8 8 -28 56 -43 57 -7 0 -13 -4 -13
-8z"/>
<path d="M5333 3102 c-29 -4 -29 -13 2 -35 26 -18 35 -11 13 11 -7 7 -8 12 -2
12 6 0 19 -9 29 -20 20 -22 37 -27 29 -7 -9 21 -48 43 -71 39z"/>
<path d="M5690 3068 c0 -34 51 -78 91 -78 43 0 35 15 -13 26 -35 7 -46 16 -60
44 -17 34 -18 34 -18 8z"/>
<path d="M4710 3060 c-9 -6 -10 -10 -3 -10 6 0 15 5 18 10 8 12 4 12 -15 0z"/>
<path d="M5895 3059 c-11 -17 1 -21 15 -4 8 9 8 15 2 15 -6 0 -14 -5 -17 -11z"/>
<path d="M6226 3052 c-7 -11 51 -68 61 -59 8 8 -27 59 -44 64 -6 2 -14 0 -17
-5z"/>
<path d="M6630 3041 c0 -5 5 -13 10 -16 6 -3 10 -2 10 4 0 5 -4 13 -10 16 -5
3 -10 2 -10 -4z"/>
<path d="M5370 3029 c0 -11 52 -50 58 -44 3 2 -1 12 -9 21 -13 16 -12 16 8 4
12 -8 20 -17 18 -20 -2 -4 2 -7 10 -7 23 0 18 25 -7 38 -26 14 -78 19 -78 8z"/>
<path d="M6296 2994 c-5 -13 7 -31 44 -67 27 -28 50 -53 50 -57 0 -4 -11 -11
-24 -14 -13 -3 -27 -13 -30 -22 -5 -12 -2 -15 10 -10 9 3 26 9 39 12 13 3 26
12 29 20 7 17 -21 64 -38 64 -6 0 -25 21 -42 46 -26 37 -32 42 -38 28z"/>
<path d="M6760 2970 c0 -5 5 -10 11 -10 5 0 7 5 4 10 -3 6 -8 10 -11 10 -2 0
-4 -4 -4 -10z"/>
<path d="M5437 2963 c-2 -5 9 -18 24 -31 33 -27 42 -7 11 21 -20 19 -29 21
-35 10z"/>
<path d="M5470 2966 c0 -11 72 -56 81 -51 12 8 -47 55 -68 55 -7 0 -13 -2 -13
-4z"/>
<path d="M6715 2960 c3 -5 8 -10 11 -10 2 0 4 5 4 10 0 6 -5 10 -11 10 -5 0
-7 -4 -4 -10z"/>
<path d="M6841 2934 c14 -17 25 -18 32 -1 3 7 -5 13 -20 13 -19 2 -22 -1 -12
-12z"/>
<path d="M1003 2885 c-3 -9 -3 -18 -1 -21 3 -3 8 4 11 16 6 23 -1 27 -10 5z"/>
<path d="M5500 2891 c0 -5 14 -19 30 -31 35 -25 40 -13 7 18 -25 24 -37 28
-37 13z"/>
<path d="M5540 2892 c0 -10 54 -42 70 -42 6 0 -2 11 -18 25 -30 25 -52 32 -52
17z"/>
<path d="M4906 2855 c-9 -26 -7 -32 5 -12 6 10 9 21 6 23 -2 3 -7 -2 -11 -11z"/>
<path d="M6417 2840 c-3 -11 -1 -17 4 -14 6 3 17 0 25 -7 16 -13 30 -6 19 10
-3 6 -14 15 -24 21 -15 7 -20 5 -24 -10z"/>
<path d="M6942 2854 c9 -3 15 -11 12 -18 -3 -9 4 -11 25 -8 16 2 32 10 35 18
7 17 -10 19 -17 2 -4 -9 -8 -9 -14 -3 -4 6 -19 11 -33 12 -14 1 -17 -1 -8 -3z"/>
<path d="M6904 2836 c11 -9 24 -16 30 -16 12 0 7 5 -24 19 -24 11 -24 11 -6
-3z"/>
<path d="M5585 2800 c15 -16 32 -27 37 -24 12 8 -31 54 -51 54 -10 0 -6 -9 14
-30z"/>
<path d="M5620 2809 c14 -12 25 -26 25 -31 0 -13 83 -73 91 -65 7 7 -42 51
-59 53 -7 1 -16 2 -22 3 -5 1 -3 6 5 11 13 8 11 12 -7 30 -12 11 -30 20 -40
20 -15 -1 -14 -4 7 -21z"/>
<path d="M6268 2816 c-22 -17 -23 -26 -2 -26 14 0 15 -2 3 -17 -13 -15 -11
-16 11 -10 14 4 28 7 33 7 14 0 7 20 -8 20 -20 0 -19 10 3 26 16 13 16 13 -3
13 -11 0 -28 -6 -37 -13z"/>
<path d="M3890 2798 c-20 -17 -20 -17 17 -12 51 7 67 13 59 21 -13 13 -55 8
-76 -9z"/>
<path d="M4000 2812 c-5 -2 -10 -7 -10 -12 0 -11 83 -20 95 -10 13 11 56 13
99 6 15 -2 35 -2 42 1 32 12 9 19 -66 20 -64 1 -80 -1 -80 -13 0 -8 -7 -14
-16 -14 -12 0 -14 3 -6 13 8 9 3 12 -19 12 -16 0 -33 -1 -39 -3z"/>
<path d="M4278 2813 c-10 -2 -18 -9 -18 -14 0 -10 24 -12 57 -3 13 4 20 10 17
15 -5 9 -26 10 -56 2z"/>
<path d="M3544 2795 c-16 -12 -17 -14 -2 -15 25 0 49 11 42 21 -7 13 -17 11
-40 -6z"/>
<path d="M3715 2800 c-4 -6 6 -10 24 -10 16 0 33 5 36 10 4 6 -6 10 -24 10
-16 0 -33 -4 -36 -10z"/>
<path d="M3797 2797 c-3 -9 5 -12 29 -9 46 6 54 22 11 22 -19 0 -37 -6 -40
-13z"/>
<path d="M4366 2801 c-7 -11 20 -22 44 -18 8 1 17 7 20 12 7 13 -56 19 -64 6z"/>
<path d="M6345 2799 c-10 -15 1 -22 24 -14 12 3 19 11 16 16 -8 12 -32 11 -40
-2z"/>
<path d="M6476 2802 c-7 -12 29 -45 44 -40 6 2 1 13 -13 26 -14 13 -28 19 -31
14z"/>
<path d="M3610 2792 c0 -4 -16 -16 -35 -26 -41 -22 -46 -41 -9 -32 15 4 32 2
40 -5 8 -7 14 -7 14 -1 0 5 -7 15 -15 22 -21 17 -3 30 43 30 17 0 32 5 32 10
0 6 -16 10 -35 10 -19 0 -35 -3 -35 -8z"/>
<path d="M4478 2793 c-29 -7 -21 -22 10 -19 15 2 34 4 42 5 13 1 13 2 0 11
-16 10 -24 11 -52 3z"/>
<path d="M6175 2774 c-26 -24 -26 -26 -10 -44 16 -18 19 -18 42 -3 13 9 29 25
35 36 10 20 10 20 -26 -1 -20 -12 -36 -18 -36 -13 0 4 11 14 25 21 14 7 25 17
25 22 0 16 -28 7 -55 -18z"/>
<path d="M6420 2775 c29 -31 40 -32 38 -2 -2 17 -9 23 -31 24 l-30 2 23 -24z"/>
<path d="M6811 2784 c0 -11 3 -14 6 -6 3 7 2 16 -1 19 -3 4 -6 -2 -5 -13z"/>
<path d="M4562 2777 c3 -6 22 -13 44 -15 46 -4 36 12 -14 22 -24 4 -32 2 -30
-7z"/>
<path d="M6910 2776 c0 -9 5 -16 10 -16 6 0 10 4 10 9 0 6 -4 13 -10 16 -5 3
-10 -1 -10 -9z"/>
<path d="M3367 2773 c-14 -14 -6 -23 12 -14 10 6 22 7 26 3 5 -4 5 -1 1 6 -8
13 -29 16 -39 5z"/>
<path d="M3830 2765 c-5 -7 -8 -14 -5 -16 7 -8 75 2 75 11 0 13 -60 17 -70 5z"/>
<path d="M3922 2757 c5 -11 16 -16 25 -13 8 3 23 6 34 6 39 0 18 18 -25 21
-40 4 -43 2 -34 -14z"/>
<path d="M4024 2766 c-6 -6 -14 -17 -18 -24 -7 -11 -4 -12 13 -3 12 7 25 10
30 7 4 -3 16 1 26 8 17 12 16 14 -12 18 -16 2 -34 -1 -39 -6z"/>
<path d="M4243 2773 c-26 -3 -43 -9 -43 -17 0 -16 65 -9 81 10 6 8 10 13 8 12
-2 -1 -23 -3 -46 -5z"/>
<path d="M4301 2767 c-19 -19 -12 -23 29 -19 22 2 38 8 35 12 -8 13 -53 18
-64 7z"/>
<path d="M6983 2763 c12 -14 25 -19 35 -15 15 5 14 7 -3 10 -11 2 -27 9 -35
15 -8 7 -7 2 3 -10z"/>
<path d="M3695 2763 c-11 -2 -30 -6 -42 -9 -38 -8 -25 -20 21 -19 24 0 42 2
40 4 -2 2 1 10 7 18 12 13 9 14 -26 6z"/>
<path d="M3745 2759 c-4 -6 -5 -12 -4 -14 7 -7 59 8 59 16 0 13 -47 11 -55 -2z"/>
<path d="M4107 2763 c-15 -14 -5 -18 33 -15 22 2 43 8 46 13 6 10 -69 12 -79
2z"/>
<path d="M4394 2755 c-18 -13 -15 -14 29 -15 46 0 62 12 31 24 -24 9 -39 7
-60 -9z"/>
<path d="M4656 2761 c-7 -11 17 -21 50 -21 30 0 31 16 2 24 -32 8 -46 7 -52
-3z"/>
<path d="M6870 2759 c0 -5 5 -7 10 -4 6 3 10 8 10 11 0 2 -4 4 -10 4 -5 0 -10
-5 -10 -11z"/>
<path d="M3088 2753 c-31 -8 -19 -23 16 -20 22 1 32 6 29 15 -5 12 -14 13 -45
5z"/>
<path d="M3150 2750 c0 -5 18 -10 40 -10 22 0 40 5 40 10 0 6 -18 10 -40 10
-22 0 -40 -4 -40 -10z"/>
<path d="M3505 2750 c-3 -5 -1 -10 4 -10 6 0 11 5 11 10 0 6 -2 10 -4 10 -3 0
-8 -4 -11 -10z"/>
<path d="M4494 2745 c-18 -13 -16 -14 24 -15 42 0 56 12 26 24 -23 9 -28 8
-50 -9z"/>
<path d="M5620 2753 c0 -11 64 -53 79 -53 8 0 -3 14 -24 30 -37 30 -55 37 -55
23z"/>
<path d="M2995 2743 c-47 -5 -105 -25 -105 -36 0 -5 12 -6 28 -3 15 4 35 8 44
9 9 1 14 5 11 10 -3 5 4 6 16 2 24 -7 61 2 61 16 0 5 -6 8 -12 8 -7 -1 -26 -4
-43 -6z"/>
<path d="M4746 2741 c-7 -11 17 -21 53 -21 15 0 31 -4 37 -9 5 -5 26 -13 47
-16 46 -9 51 11 5 20 -18 4 -52 13 -76 21 -50 16 -59 17 -66 5z"/>
<path d="M6466 2741 c-3 -5 10 -19 30 -30 36 -22 52 -22 39 -2 -10 18 -63 42
-69 32z"/>
<path d="M6531 2731 c14 -22 49 -45 57 -37 8 8 -39 56 -55 56 -10 0 -11 -4 -2
-19z"/>
<path d="M4576 2731 c-3 -5 12 -11 33 -13 46 -4 63 0 55 13 -7 12 -81 12 -88
0z"/>
<path d="M4693 2723 c-30 -10 -9 -23 36 -23 27 0 51 -4 53 -10 2 -5 23 -12 48
-16 56 -8 45 10 -15 25 -22 5 -56 14 -75 19 -19 5 -41 7 -47 5z"/>
<path d="M7071 2714 c0 -11 3 -14 6 -6 3 7 2 16 -1 19 -3 4 -6 -2 -5 -13z"/>
<path d="M2823 2713 c-12 -2 -24 -10 -26 -17 -4 -11 3 -12 31 -5 20 4 39 6 44
3 4 -3 5 2 2 10 -6 16 -11 17 -51 9z"/>
<path d="M3110 2710 c-8 -5 -12 -12 -8 -15 8 -8 58 5 58 16 0 12 -31 11 -50
-1z"/>
<path d="M3391 2704 c0 -11 3 -14 6 -6 3 7 2 16 -1 19 -3 4 -6 -2 -5 -13z"/>
<path d="M2735 2703 c-36 -9 -41 -23 -8 -23 17 0 36 7 43 15 13 16 6 18 -35 8z"/>
<path d="M3035 2703 c-11 -3 -23 -10 -27 -17 -6 -8 -10 -7 -17 3 -6 10 -16 11
-37 4 -41 -14 -44 -35 -3 -23 17 5 35 7 39 5 10 -6 78 14 85 25 6 10 -6 11
-40 3z"/>
<path d="M2643 2690 c-19 -8 -33 -30 -18 -30 12 0 55 24 55 32 0 10 -8 9 -37
-2z"/>
<path d="M5730 2692 c0 -8 53 -42 66 -42 4 0 -3 11 -16 25 -23 24 -50 33 -50
17z"/>
<path d="M2868 2678 c-21 -6 -38 -14 -38 -19 0 -16 37 -10 61 11 13 10 22 19
19 19 -3 -1 -22 -6 -42 -11z"/>
<path d="M3222 2676 c7 -8 15 -12 17 -11 5 6 -10 25 -20 25 -5 0 -4 -6 3 -14z"/>
<path d="M3370 2686 c0 -2 7 -9 15 -16 9 -7 15 -8 15 -2 0 5 -7 12 -15 16 -8
3 -15 4 -15 2z"/>
<path d="M4940 2680 c0 -5 2 -10 4 -10 2 0 20 -7 40 -15 43 -18 49 -2 6 20
-34 17 -50 19 -50 5z"/>
<path d="M5680 2683 c0 -5 20 -17 45 -28 28 -12 40 -22 32 -27 -13 -8 -13 -7
23 -31 51 -35 47 -15 -7 38 -50 48 -93 70 -93 48z"/>
<path d="M6596 2681 c-3 -5 1 -14 9 -21 8 -7 13 -15 10 -19 -3 -6 30 -7 42 -2
4 2 -44 51 -50 51 -3 0 -8 -4 -11 -9z"/>
<path d="M2554 2670 c-34 -13 -36 -27 -4 -22 31 4 65 33 39 31 -8 0 -24 -4
-35 -9z"/>
<path d="M4898 2673 c-27 -7 -21 -20 13 -32 43 -15 54 -14 39 4 -7 8 -19 15
-27 15 -8 0 -11 5 -8 10 3 6 5 9 3 9 -2 -1 -11 -3 -20 -6z"/>
<path d="M6531 2673 c0 -5 13 -18 29 -31 34 -26 50 -12 20 18 -19 19 -51 28
-49 13z"/>
<path d="M2468 2657 c-31 -12 -37 -27 -12 -27 21 0 54 18 54 30 0 12 -6 11
-42 -3z"/>
<path d="M2763 2660 c-13 -5 -23 -13 -23 -18 0 -14 63 1 68 16 4 14 -13 15
-45 2z"/>
<path d="M2681 2651 c-20 -5 -43 -31 -28 -31 16 0 67 24 67 31 0 10 -4 10 -39
0z"/>
<path d="M2378 2633 c-10 -2 -18 -9 -18 -14 0 -11 39 -2 55 12 9 9 -6 10 -37
2z"/>
<path d="M2583 2633 c-33 -6 -28 -23 6 -23 16 0 31 6 35 15 5 15 1 16 -41 8z"/>
<path d="M5030 2632 c0 -11 71 -44 79 -37 8 9 -41 45 -61 45 -10 0 -18 -4 -18
-8z"/>
<path d="M5796 2632 c-2 -4 11 -17 30 -30 38 -25 47 -11 12 19 -25 20 -34 23
-42 11z"/>
<path d="M7450 2630 c0 -5 7 -10 16 -10 9 0 12 -5 8 -12 -4 -7 -3 -8 4 -4 16
10 15 14 -8 26 -14 7 -20 7 -20 0z"/>
<path d="M2291 2616 c-13 -7 -20 -16 -15 -18 13 -8 54 9 54 22 0 13 -10 12
-39 -4z"/>
<path d="M2497 2614 c-36 -19 -35 -37 1 -22 35 15 46 24 35 31 -4 3 -20 -1
-36 -9z"/>
<path d="M6618 2623 c-25 -6 -22 -18 8 -38 31 -20 44 -12 21 13 -10 10 -14 22
-10 25 3 4 4 6 2 6 -2 -1 -12 -3 -21 -6z"/>
<path d="M6656 2621 c-3 -4 3 -16 14 -26 11 -10 20 -23 20 -29 0 -6 -4 -5 -9
2 -7 11 -9 11 -14 -2 -4 -10 5 -22 27 -35 37 -23 51 -27 40 -10 -4 8 0 9 15 4
28 -8 27 10 -1 29 -29 20 -42 20 -34 0 3 -8 2 -12 -4 -9 -13 8 -13 35 0 35 6
0 0 11 -14 25 -27 27 -32 29 -40 16z"/>
<path d="M4970 2611 c0 -11 69 -36 77 -28 5 6 -50 37 -67 37 -5 0 -10 -4 -10
-9z"/>
<path d="M2203 2598 c-26 -13 -37 -35 -21 -44 6 -4 8 -3 4 4 -4 6 8 16 29 23
19 7 35 17 35 21 0 11 -20 9 -47 -4z"/>
<path d="M2412 2599 c-13 -5 -28 -7 -33 -4 -5 4 -6 -1 -3 -10 6 -16 38 -13 58
6 15 14 3 18 -22 8z"/>
<path d="M7830 2594 c0 -8 5 -12 10 -9 6 4 8 11 5 16 -9 14 -15 11 -15 -7z"/>
<path d="M2060 2590 c-9 -6 -10 -10 -3 -10 6 0 15 5 18 10 8 12 4 12 -15 0z"/>
<path d="M2118 2573 c-21 -8 -35 -19 -32 -24 3 -5 18 -2 33 6 16 8 31 11 35 8
3 -4 6 1 6 10 0 10 -1 17 -2 16 -2 0 -20 -7 -40 -16z"/>
<path d="M2245 2574 c-11 -8 -27 -19 -35 -24 -8 -5 -12 -11 -9 -15 9 -8 63 27
67 43 3 15 2 15 -23 -4z"/>
<path d="M2300 2575 c-22 -13 -23 -14 -5 -15 30 0 65 11 65 21 0 13 -32 10
-60 -6z"/>
<path d="M5110 2571 c0 -5 7 -14 15 -21 27 -22 7 -23 -21 -1 -27 21 -54 28
-54 13 0 -15 54 -37 92 -37 21 0 38 3 38 6 0 6 -56 49 -65 49 -3 0 -5 -4 -5
-9z"/>
<path d="M7500 2570 c0 -5 5 -10 10 -10 6 0 10 5 10 10 0 6 -4 10 -10 10 -5 0
-10 -4 -10 -10z"/>
<path d="M7850 2570 c0 -5 5 -10 11 -10 5 0 7 5 4 10 -3 6 -8 10 -11 10 -2 0
-4 -4 -4 -10z"/>
<path d="M5817 2564 c-5 -6 58 -64 70 -64 7 0 -8 23 -30 48 -21 23 -29 26 -40
16z"/>
<path d="M5878 2540 c33 -30 52 -38 52 -21 0 13 -54 51 -72 51 -7 0 2 -14 20
-30z"/>
<path d="M7991 2554 c7 -8 21 -11 40 -7 25 5 29 3 23 -13 -5 -15 -4 -16 4 -5
9 13 13 13 29 0 16 -13 17 -13 4 4 -11 13 -11 17 -1 17 8 0 10 3 6 7 -4 4 -32
8 -62 9 -45 1 -53 -1 -43 -12z"/>
<path d="M2025 2530 c-15 -16 -15 -20 -3 -20 8 0 23 9 33 20 15 16 15 20 3 20
-8 0 -23 -9 -33 -20z"/>
<path d="M8240 2540 c-12 -7 -12 -12 -2 -22 9 -9 12 -9 12 2 0 11 3 11 12 2
15 -15 28 -16 28 -2 0 6 -6 10 -14 10 -8 0 -16 4 -18 10 -2 6 -9 6 -18 0z"/>
<path d="M8725 2539 c-4 -6 -4 -13 -1 -16 8 -8 36 5 36 17 0 13 -27 13 -35 -1z"/>
<path d="M2126 2525 c-11 -8 -17 -17 -14 -21 6 -6 68 23 68 31 0 11 -36 4 -54
-10z"/>
<path d="M7965 2530 c4 -6 11 -8 16 -5 14 9 11 15 -7 15 -8 0 -12 -5 -9 -10z"/>
<path d="M1934 2508 l-19 -23 23 19 c21 18 27 26 19 26 -2 0 -12 -10 -23 -22z"/>
<path d="M8125 2520 c-18 -8 -17 -9 8 -9 16 -1 26 3 22 9 -3 6 -7 10 -8 9 -1
0 -11 -4 -22 -9z"/>
<path d="M5944 2512 c4 -7 -7 -14 -30 -18 l-36 -7 28 -23 c39 -31 64 -32 38
-1 l-19 22 26 -22 c14 -13 33 -23 43 -23 13 0 10 6 -13 26 -17 14 -29 30 -26
34 3 5 0 12 -6 16 -8 4 -9 3 -5 -4z"/>
<path d="M6786 2511 c-18 -7 -17 -9 8 -28 30 -24 33 -33 11 -33 -25 0 -17 -17
21 -40 42 -26 58 -19 21 10 -18 14 -24 26 -20 41 4 14 0 25 -11 31 -9 5 -14
13 -11 19 7 10 7 10 -19 0z"/>
<path d="M1955 2469 c-29 -38 -32 -39 -78 -36 -39 3 -50 1 -58 -14 -7 -14 -6
-19 3 -20 69 -5 116 -4 133 2 11 4 14 8 6 8 -10 1 -11 4 -2 15 6 7 9 21 5 30
-4 10 -1 16 9 16 19 0 32 19 21 30 -5 4 -22 -10 -39 -31z"/>
<path d="M2064 2495 c-18 -15 -18 -15 5 -13 14 2 26 9 29 16 5 17 -10 15 -34
-3z"/>
<path d="M5127 2503 c-9 -8 22 -43 39 -43 7 0 16 -5 20 -11 4 -8 -1 -9 -17 -4
-22 7 -22 7 -6 -9 9 -10 17 -23 17 -30 0 -8 7 -19 15 -26 16 -13 21 -35 6 -25
-20 12 -20 -15 0 -49 27 -47 42 -46 23 0 -8 20 -13 39 -10 41 3 3 10 -7 16
-23 14 -41 25 -57 38 -62 14 -4 -17 70 -31 76 -13 6 -37 60 -37 85 0 25 -61
92 -73 80z"/>
<path d="M5170 2501 c0 -4 10 -16 21 -27 16 -14 23 -16 26 -6 3 6 10 9 15 6 7
-4 8 -2 4 4 -4 6 -14 8 -23 5 -12 -5 -15 -2 -11 8 4 10 -1 15 -13 16 -10 1
-19 -2 -19 -6z"/>
<path d="M6737 2503 c-8 -7 31 -53 45 -53 15 0 8 27 -10 43 -21 19 -26 20 -35
10z"/>
<path d="M8201 2501 c-7 -5 -23 -7 -35 -4 -20 3 -20 3 2 -6 23 -11 52 -5 52
10 0 11 -1 11 -19 0z"/>
<path d="M8702 2486 c-9 -19 -8 -27 4 -36 14 -12 19 -3 15 23 -1 4 6 10 14 13
21 8 19 24 -3 24 -11 0 -24 -11 -30 -24z"/>
<path d="M8590 2485 c-10 -12 -10 -15 3 -15 23 0 47 11 47 21 0 15 -37 10 -50
-6z"/>
<path d="M2012 2469 c-14 -14 -18 -25 -11 -28 15 -5 42 24 37 40 -3 8 -11 5
-26 -12z"/>
<path d="M7846 2478 c3 -4 11 -5 19 -1 21 7 19 12 -4 10 -11 0 -18 -5 -15 -9z"/>
<path d="M8100 2481 c0 -5 9 -7 20 -4 11 3 20 7 20 9 0 2 -9 4 -20 4 -11 0
-20 -4 -20 -9z"/>
<path d="M8262 2470 c13 -20 28 -27 28 -12 0 10 -22 32 -32 32 -5 0 -3 -9 4
-20z"/>
<path d="M8513 2458 c-13 -14 -13 -18 -2 -19 8 0 4 -4 -8 -9 -13 -5 -23 -16
-23 -23 0 -15 -49 -42 -58 -32 -4 3 4 8 16 12 26 6 29 23 5 24 -11 0 -4 7 17
17 32 15 33 16 12 20 -22 3 -68 -25 -57 -36 3 -3 -4 -11 -15 -19 -29 -20 -25
-29 13 -27 48 4 64 9 84 25 10 9 25 20 33 24 13 8 13 6 1 -11 -14 -18 -14 -18
4 -2 15 14 16 20 6 32 -11 13 -10 17 3 22 9 3 16 9 16 13 0 15 -30 7 -47 -11z"/>
<path d="M6840 2452 c0 -5 9 -17 20 -27 11 -10 19 -26 18 -36 -3 -18 28 -59
45 -59 5 0 6 8 3 18 -4 12 -1 11 13 -5 14 -17 20 -19 24 -9 3 7 -8 25 -23 39
-32 30 -45 34 -36 11 3 -9 2 -12 -5 -9 -6 4 -8 14 -4 23 3 8 -4 25 -16 39 -23
23 -39 30 -39 15z"/>
<path d="M8221 2444 c0 -11 3 -14 6 -6 3 7 2 16 -1 19 -3 4 -6 -2 -5 -13z"/>
<path d="M5210 2422 c0 -11 11 -34 25 -49 l25 -28 -18 43 c-23 52 -32 62 -32
34z"/>
<path d="M8360 2423 c-19 -9 -38 -15 -42 -15 -4 1 -5 -4 -2 -12 3 -7 -2 -19
-11 -26 -26 -21 -17 -30 20 -17 33 12 46 35 15 29 -10 -2 -8 1 5 12 11 8 24
16 28 16 5 0 15 7 23 15 20 19 8 18 -36 -2z"/>
<path d="M1508 2416 c-64 -14 -77 -21 -61 -37 8 -8 28 -7 69 1 33 7 66 13 73
15 17 2 28 25 13 25 -6 0 -16 2 -24 4 -7 2 -39 -1 -70 -8z"/>
<path d="M1666 2421 c-16 -3 -31 -12 -34 -18 -3 -10 13 -13 60 -13 35 0 73 3
85 6 19 5 20 8 8 20 -14 14 -67 17 -119 5z"/>
<path d="M5240 2420 c0 -5 5 -10 11 -10 5 0 7 5 4 10 -3 6 -8 10 -11 10 -2 0
-4 -4 -4 -10z"/>
<path d="M5952 2423 c-22 -8 49 -54 72 -47 31 10 32 13 6 31 -25 17 -56 24
-78 16z"/>
<path d="M8090 2420 l-25 -8 28 -1 c15 -1 27 4 27 9 0 6 -1 10 -2 9 -2 -1 -14
-5 -28 -9z"/>
<path d="M2010 2406 c0 -8 7 -17 16 -20 20 -8 82 -7 113 1 l23 6 -23 13 c-33
18 -129 18 -129 0z"/>
<path d="M2176 2394 c-3 -7 1 -17 7 -22 29 -22 119 -52 156 -52 77 0 40 30
-80 65 -61 17 -79 20 -83 9z"/>
<path d="M8100 2396 c0 -2 7 -7 16 -10 8 -3 12 -2 9 4 -6 10 -25 14 -25 6z"/>
<path d="M8238 2389 c-10 -5 -18 -16 -18 -23 0 -8 -7 -16 -15 -20 -8 -3 -15
-12 -15 -21 0 -14 3 -14 25 1 14 9 35 14 48 11 l22 -6 -24 20 -23 19 31 6 c17
4 31 10 31 15 0 12 -41 11 -62 -2z"/>
<path d="M8642 2380 c-7 -11 -17 -20 -23 -20 -5 0 -7 5 -4 10 3 6 0 10 -9 10
-11 0 -14 -15 -7 -37 1 -1 13 2 27 8 24 8 25 8 14 -6 -8 -10 -9 -15 -2 -15 6
0 9 -6 7 -12 -3 -9 6 -14 25 -15 21 -2 30 2 30 13 0 8 -4 12 -10 9 -6 -4 -7 1
-3 11 4 11 2 15 -4 11 -13 -8 -24 18 -17 38 9 22 -9 18 -24 -5z"/>
<path d="M7029 2357 c19 -20 37 -34 40 -32 5 5 -18 28 -54 55 -11 8 -5 -2 14
-23z"/>
<path d="M5155 2370 c3 -5 8 -10 11 -10 2 0 4 5 4 10 0 6 -5 10 -11 10 -5 0
-7 -4 -4 -10z"/>
<path d="M8150 2371 c-15 -4 -24 -14 -24 -24 1 -9 -7 -19 -17 -22 -11 -4 -23
-14 -29 -24 -9 -17 -7 -17 28 1 20 10 45 17 54 14 11 -2 15 1 11 10 -2 7 -12
15 -21 17 -12 3 -9 6 11 11 15 5 27 12 27 17 0 10 -4 10 -40 0z"/>
<path d="M8670 2370 c0 -5 7 -10 15 -10 8 0 15 -6 15 -12 0 -9 3 -8 10 2 7 11
5 17 -8 22 -25 10 -32 9 -32 -2z"/>
<path d="M8570 2352 c6 -12 8 -28 4 -34 -4 -7 -3 -8 4 -4 16 10 15 18 -4 42
-14 18 -15 18 -4 -4z"/>
<path d="M2385 2350 c5 -8 8 -22 7 -31 -2 -13 14 -22 67 -38 79 -24 112 -27
109 -8 -5 20 -30 34 -98 52 -36 10 -71 23 -79 29 -12 9 -13 8 -6 -4z"/>
<path d="M5310 2350 c0 -5 12 -10 26 -10 14 0 23 4 19 10 -3 6 -15 10 -26 10
-10 0 -19 -4 -19 -10z"/>
<path d="M5555 2350 c-3 -6 1 -7 9 -4 18 7 21 14 7 14 -6 0 -13 -4 -16 -10z"/>
<path d="M6050 2351 c0 -5 -10 -7 -22 -3 -13 3 -19 1 -15 -5 4 -6 22 -11 41
-11 26 0 33 4 29 14 -6 15 -33 19 -33 5z"/>
<path d="M8024 2346 c-27 -20 -13 -28 25 -15 17 6 39 8 48 5 13 -5 14 -4 3 9
-16 19 -50 19 -76 1z"/>
<path d="M5397 2344 c-21 -21 61 -35 92 -15 10 7 8 9 -10 8 -13 0 -35 3 -49 7
-14 4 -29 4 -33 0z"/>
<path d="M7935 2329 c-17 -5 -41 -23 -54 -40 l-24 -32 29 8 c34 8 56 13 67 14
5 1 5 6 2 11 -3 6 -18 8 -33 4 -22 -4 -24 -3 -11 5 9 6 27 12 40 14 13 2 25 9
27 15 4 14 -1 14 -43 1z"/>
<path d="M5502 2322 c-6 -2 -8 -10 -5 -18 3 -8 2 -14 -3 -13 -19 3 -34 -1 -34
-10 0 -5 20 -11 45 -13 48 -3 59 7 23 21 -20 8 -18 10 19 16 24 4 40 12 37 17
-5 8 -57 9 -82 0z"/>
<path d="M5612 2322 c-26 -8 -10 -22 28 -22 22 0 40 5 40 11 0 5 6 7 13 3 6
-4 9 -4 5 1 -8 9 -66 14 -86 7z"/>
<path d="M8890 2320 c0 -5 5 -10 10 -10 6 0 10 5 10 10 0 6 -4 10 -10 10 -5 0
-10 -4 -10 -10z"/>
<path d="M5276 2305 c4 -8 8 -15 10 -15 2 0 4 7 4 15 0 8 -4 15 -10 15 -5 0
-7 -7 -4 -15z"/>
<path d="M5711 2306 c-10 -12 -3 -15 39 -18 27 -1 50 -2 50 -1 0 1 -7 9 -16
17 -19 20 -58 21 -73 2z"/>
<path d="M8710 2311 c0 -5 5 -13 10 -16 6 -3 10 -2 10 4 0 5 -4 13 -10 16 -5
3 -10 2 -10 -4z"/>
<path d="M8800 2305 c0 -8 5 -15 10 -15 6 0 10 7 10 15 0 8 -4 15 -10 15 -5 0
-10 -7 -10 -15z"/>
<path d="M5320 2299 c0 -5 5 -7 10 -4 6 3 10 8 10 11 0 2 -4 4 -10 4 -5 0 -10
-5 -10 -11z"/>
<path d="M5359 2296 c-14 -10 -8 -12 36 -12 30 0 52 3 49 7 -2 4 4 9 13 11 10
2 -4 4 -32 5 -27 1 -57 -4 -66 -11z"/>
<path d="M5817 2303 c-15 -14 -5 -18 42 -18 34 0 47 4 44 13 -5 12 -75 17 -86
5z"/>
<path d="M7779 2294 c-12 -15 -10 -16 21 -9 19 5 41 8 48 8 6 0 12 4 12 9 0
15 -67 8 -81 -8z"/>
<path d="M7982 2298 c-16 -16 -15 -25 4 -32 8 -3 13 -2 10 3 -7 10 17 21 45
21 10 0 19 5 19 10 0 14 -64 12 -78 -2z"/>
<path d="M5042 2288 c-7 -7 -12 -16 -12 -21 0 -5 7 -1 16 8 9 9 14 18 12 20
-2 3 -10 -1 -16 -7z"/>
<path d="M5920 2290 c0 -5 16 -10 35 -10 19 0 35 5 35 10 0 6 -16 10 -35 10
-19 0 -35 -4 -35 -10z"/>
<path d="M6028 2293 c-10 -2 -18 -9 -18 -15 0 -6 10 -8 23 -4 12 3 32 6 45 6
12 0 22 5 22 10 0 10 -40 12 -72 3z"/>
<path d="M6124 2284 c-17 -14 -17 -15 -1 -10 10 3 37 6 58 6 24 0 38 4 34 10
-10 16 -69 12 -91 -6z"/>
<path d="M6553 2293 c4 -5 -7 -10 -24 -10 -16 0 -35 -5 -41 -11 -9 -9 -2 -12
29 -12 41 0 65 21 41 36 -6 4 -8 3 -5 -3z"/>
<path d="M7600 2293 c-30 -3 -52 -12 -69 -29 -13 -13 -22 -26 -20 -27 2 -2 25
-2 52 1 52 4 63 18 20 25 -23 3 -22 4 8 6 20 0 42 8 49 16 7 8 11 14 9 13 -2
-1 -24 -3 -49 -5z"/>
<path d="M7671 2283 c-6 -10 -11 -14 -11 -9 0 5 -9 -1 -20 -14 -24 -27 -20
-36 8 -21 12 6 32 11 46 11 32 0 34 17 4 23 -17 3 -15 5 9 6 45 2 53 21 9 21
-23 0 -39 -6 -45 -17z"/>
<path d="M8965 2290 c4 -6 11 -8 16 -5 14 9 11 15 -7 15 -8 0 -12 -5 -9 -10z"/>
<path d="M2598 2263 c3 -17 18 -27 65 -42 33 -12 72 -21 86 -21 24 0 24 1 8
17 -9 9 -50 29 -90 43 l-73 26 4 -23z"/>
<path d="M5588 2282 c-35 -7 -17 -22 26 -22 26 0 48 6 56 15 9 10 9 15 1 15
-6 0 -11 -4 -11 -9 0 -6 -12 -6 -27 -2 -16 4 -36 5 -45 3z"/>
<path d="M6234 2276 c-10 -10 -2 -12 40 -8 68 6 84 22 21 22 -28 -1 -55 -6
-61 -14z"/>
<path d="M6367 2283 c-16 -15 -4 -20 41 -15 70 7 79 17 19 20 -30 1 -57 -1
-60 -5z"/>
<path d="M7113 2283 c-32 -3 -56 -10 -65 -20 -11 -15 -10 -16 12 -10 14 4 41
7 61 7 23 0 39 6 43 15 3 8 4 14 3 13 -1 -1 -25 -3 -54 -5z"/>
<path d="M7319 2273 c-9 -10 -3 -13 30 -13 48 0 55 16 11 22 -18 3 -35 -1 -41
-9z"/>
<path d="M7430 2280 c-7 -4 -9 -13 -6 -19 4 -7 -1 -11 -13 -11 -18 0 -38 -17
-29 -25 2 -2 28 2 58 9 46 12 54 22 13 17 -7 -1 -13 3 -13 10 0 7 9 9 21 6 23
-6 49 1 49 13 0 10 -63 10 -80 0z"/>
<path d="M5670 2251 c-14 -13 -17 -18 -8 -11 10 7 40 11 70 9 88 -4 140 0 133
11 -8 14 -68 13 -82 -1 -6 -6 -17 -8 -24 -3 -9 5 -8 9 7 15 12 4 2 6 -26 5
-32 -1 -52 -8 -70 -25z"/>
<path d="M6568 2251 c-30 -31 -27 -47 4 -30 11 6 29 9 39 6 10 -3 22 -1 25 4
3 5 12 9 21 9 12 0 13 -3 4 -13 -16 -20 78 -10 98 11 13 13 13 14 -7 8 -13 -5
-22 -3 -22 3 0 6 11 11 25 11 14 0 25 5 25 10 0 19 -69 11 -79 -9 -9 -15 -19
-18 -63 -14 -66 4 -76 13 -15 13 26 0 47 5 47 10 0 6 -17 10 -38 10 -28 0 -44
-7 -64 -29z"/>
<path d="M6820 2270 c-8 -5 -12 -11 -10 -14 9 -8 90 6 90 15 0 12 -61 11 -80
-1z"/>
<path d="M6927 2274 c-14 -14 3 -19 52 -16 28 2 51 8 51 13 0 10 -93 13 -103
3z"/>
<path d="M7190 2270 c-11 -7 0 -10 38 -10 28 0 52 5 52 10 0 13 -70 13 -90 0z"/>
<path d="M7781 2271 c-14 -4 -27 -13 -29 -20 -3 -9 2 -11 14 -8 11 4 31 9 47
13 15 3 27 10 27 15 0 10 -23 10 -59 0z"/>
<path d="M9000 2265 c15 -18 -1 -20 -18 -3 -9 9 -12 9 -12 -2 0 -13 -2 -13
-11 0 -8 11 -10 12 -7 1 5 -20 53 -22 75 -4 16 13 16 14 1 9 -10 -3 -18 -1
-18 4 0 6 -5 10 -11 10 -8 0 -8 -5 1 -15z"/>
<path d="M5893 2254 c-16 -12 -12 -13 30 -14 27 0 46 4 43 9 -10 15 -55 19
-73 5z"/>
<path d="M5982 2259 c6 -4 8 -11 4 -17 -4 -7 10 -10 39 -9 31 1 44 6 41 14 -3
7 1 10 9 6 8 -3 12 -10 8 -16 -4 -7 7 -8 33 -4 21 4 47 7 57 7 11 0 15 5 11
11 -4 7 -24 9 -50 6 -24 -2 -42 -2 -40 2 2 3 -24 6 -59 6 -35 0 -58 -3 -53 -6z"/>
<path d="M5209 2203 c9 -29 21 -51 26 -49 6 2 8 10 6 17 -2 8 -5 31 -8 51 -4
26 -10 36 -22 35 -16 -1 -16 -5 -2 -54z"/>
<path d="M6222 2244 c-14 -11 -10 -12 31 -12 26 0 47 4 47 9 0 5 7 9 15 9 8 0
15 -6 15 -14 0 -11 10 -13 43 -9 83 11 65 21 -46 26 -60 3 -93 0 -105 -9z"/>
<path d="M6450 2245 c-8 -10 -2 -14 30 -17 45 -4 50 12 7 23 -17 5 -30 2 -37
-6z"/>
<path d="M5251 2212 c4 -20 17 -55 27 -77 11 -21 18 -46 15 -55 -3 -10 -1 -9
7 3 8 13 9 22 1 31 -7 9 -8 22 -3 37 5 13 5 38 1 54 -8 34 -11 26 -11 -25 0
-32 -1 -31 -10 12 -6 26 -17 49 -23 52 -9 3 -10 -5 -4 -32z"/>
<path d="M6779 2233 c-9 -10 -3 -13 30 -13 48 0 55 16 11 22 -18 3 -35 -1 -41
-9z"/>
<path d="M7043 2243 c-21 -3 -33 -10 -33 -19 0 -11 7 -13 28 -7 15 3 35 6 44
6 9 -1 21 4 27 11 11 13 -8 16 -66 9z"/>
<path d="M7137 2243 c-17 -16 0 -19 101 -16 132 4 132 4 126 15 -8 13 -92 9
-98 -4 -5 -10 -7 -10 -12 0 -6 13 -105 18 -117 5z"/>
<path d="M6885 2229 c-4 -6 -5 -12 -4 -14 8 -7 109 8 109 16 0 13 -98 11 -105
-2z"/>
<path d="M9005 2222 c-10 -7 -18 -32 -10 -32 2 0 9 9 15 20 12 22 11 24 -5 12z"/>
<path d="M2800 2193 c0 -23 56 -48 130 -59 43 -6 44 -6 28 11 -9 10 -40 27
-70 37 -87 32 -88 32 -88 11z"/>
<path d="M2710 2180 c0 -5 5 -10 11 -10 5 0 7 5 4 10 -3 6 -8 10 -11 10 -2 0
-4 -4 -4 -10z"/>
<path d="M3000 2127 c0 -8 24 -24 53 -36 28 -13 59 -27 68 -31 9 -5 22 -4 29
0 20 12 -4 32 -73 58 -68 26 -77 27 -77 9z"/>
<path d="M5248 2135 c-9 -9 19 -99 32 -103 8 -3 10 2 7 14 -3 11 -8 34 -12 51
-6 32 -17 47 -27 38z"/>
<path d="M5215 2088 c4 -24 11 -44 16 -46 5 -2 9 -10 9 -19 0 -10 -6 -12 -20
-8 -11 3 -20 5 -20 3 1 -16 30 -83 37 -85 10 -4 9 116 -1 165 -11 49 -29 40
-21 -10z"/>
<path d="M6237 2079 c7 -7 15 -10 18 -7 3 3 -2 9 -12 12 -14 6 -15 5 -6 -5z"/>
<path d="M6205 2070 c-3 -5 1 -10 10 -10 9 0 13 5 10 10 -3 6 -8 10 -10 10 -2
0 -7 -4 -10 -10z"/>
<path d="M6475 2070 c3 -5 1 -10 -5 -10 -7 0 -5 -6 4 -15 16 -17 61 -21 51 -5
-4 6 -11 8 -16 4 -6 -3 -13 3 -16 15 -3 12 -10 21 -15 21 -5 0 -6 -4 -3 -10z"/>
<path d="M6545 2070 c-16 -7 -17 -9 -3 -9 9 -1 20 4 23 9 7 11 7 11 -20 0z"/>
<path d="M6805 2069 c-4 -6 -19 -7 -35 -4 -15 3 -31 2 -34 -3 -3 -5 -17 -7
-31 -4 -14 2 -25 0 -25 -5 0 -5 -7 -10 -15 -10 -8 0 -15 4 -15 9 0 4 -4 8 -10
8 -5 0 -7 -7 -4 -15 4 -8 15 -15 25 -15 13 0 17 -5 12 -17 -5 -13 -2 -15 11
-10 10 4 19 1 22 -7 3 -8 14 -12 27 -9 18 4 19 3 7 -6 -13 -9 -13 -11 2 -11 9
0 20 5 23 10 4 7 13 7 26 0 15 -9 21 -7 26 6 6 15 7 15 20 -1 7 -10 16 -15 20
-11 4 4 1 11 -6 16 -9 5 -11 15 -7 26 6 14 9 16 15 5 6 -9 11 -10 15 -2 8 12
-16 41 -32 41 -6 0 -13 -6 -15 -12 -4 -10 -6 -10 -6 0 -1 7 9 17 22 22 21 8
21 9 -5 9 -15 1 -30 -4 -33 -10z m-31 -18 c4 -5 -3 -7 -14 -4 -23 6 -26 13 -6
13 8 0 17 -4 20 -9z m8 -25 c13 0 14 -3 6 -14 -6 -7 -14 -9 -17 -4 -3 5 -15
14 -26 21 l-20 13 20 -8 c11 -4 28 -7 37 -8z m-47 -14 c-3 -3 -11 0 -18 7 -9
10 -8 11 6 5 10 -3 15 -9 12 -12z"/>
<path d="M3194 2056 c-9 -23 7 -38 70 -69 95 -47 120 -30 34 24 -29 17 -63 38
-75 47 -20 13 -23 12 -29 -2z"/>
<path d="M6425 2060 c3 -5 10 -10 16 -10 5 0 9 5 9 10 0 6 -7 10 -16 10 -8 0
-12 -4 -9 -10z"/>
<path d="M6877 2064 c7 -3 15 -5 19 -4 4 1 11 -4 16 -12 8 -11 9 -10 6 1 -2 8
-15 15 -29 17 -13 1 -18 0 -12 -2z"/>
<path d="M6229 2048 c-11 -8 -10 -9 4 -4 9 3 17 1 17 -4 0 -6 5 -10 10 -10 6
0 10 4 10 9 0 14 -26 20 -41 9z"/>
<path d="M8955 2051 c-3 -5 -2 -12 3 -15 5 -3 9 1 9 9 0 17 -3 19 -12 6z"/>
<path d="M6178 2043 c7 -3 16 -2 19 1 4 3 -2 6 -13 5 -11 0 -14 -3 -6 -6z"/>
<path d="M6604 2035 c8 -8 17 -15 20 -15 3 0 3 7 0 15 -4 8 -13 15 -21 15 -12
0 -12 -2 1 -15z"/>
<path d="M6548 2033 c6 -2 18 -2 25 0 6 3 1 5 -13 5 -14 0 -19 -2 -12 -5z"/>
<path d="M9070 2015 c-15 -17 -13 -20 15 -28 21 -7 73 28 61 40 -4 4 -11 1
-16 -7 -7 -12 -12 -12 -22 -2 -16 16 -23 15 -38 -3z m34 -16 c-3 -5 -10 -7
-15 -3 -5 3 -7 10 -3 15 3 5 10 7 15 3 5 -3 7 -10 3 -15z"/>
<path d="M6573 2005 c-3 -9 -3 -18 -1 -21 3 -3 8 4 11 16 6 23 -1 27 -10 5z"/>
<path d="M6636 2004 c-11 -8 -16 -14 -10 -14 13 0 39 18 34 24 -3 2 -14 -2
-24 -10z"/>
<path d="M5260 1978 c0 -34 15 -67 25 -57 8 9 -6 89 -16 89 -5 0 -9 -15 -9
-32z"/>
<path d="M6460 1990 c0 -5 5 -10 10 -10 6 0 10 5 10 10 0 6 -4 10 -10 10 -5 0
-10 -4 -10 -10z"/>
<path d="M8881 1989 c-14 -5 -40 -19 -58 -30 -30 -19 -31 -22 -17 -36 14 -15
19 -14 50 1 20 9 40 14 45 10 5 -3 8 0 7 8 -2 7 7 14 18 16 16 2 20 8 17 23
-6 21 -24 23 -62 8z"/>
<path d="M6660 1971 c0 -28 19 -36 38 -16 16 16 16 17 -5 10 -18 -5 -22 -3
-17 9 3 9 1 16 -5 16 -6 0 -11 -9 -11 -19z"/>
<path d="M8400 1981 c0 -6 5 -13 10 -16 6 -3 10 1 10 9 0 9 -4 16 -10 16 -5 0
-10 -4 -10 -9z"/>
<path d="M6590 1971 c0 -5 5 -13 10 -16 6 -3 10 -2 10 4 0 5 -4 13 -10 16 -5
3 -10 2 -10 -4z"/>
<path d="M8978 1963 c7 -3 16 -2 19 1 4 3 -2 6 -13 5 -11 0 -14 -3 -6 -6z"/>
<path d="M8380 1951 c0 -6 4 -12 8 -15 5 -3 9 1 9 9 0 8 -4 15 -9 15 -4 0 -8
-4 -8 -9z"/>
<path d="M3387 1935 c-3 -7 3 -21 13 -30 19 -17 120 -59 126 -52 7 7 -8 37
-18 37 -5 0 -22 8 -36 18 -48 32 -80 43 -85 27z"/>
<path d="M5297 1930 c-3 -11 -1 -23 4 -26 5 -3 9 6 9 20 0 31 -6 34 -13 6z"/>
<path d="M8652 1909 c-76 -33 -113 -69 -70 -69 13 0 61 14 108 30 47 16 86 30
88 30 1 0 -2 9 -8 20 -14 27 -32 25 -118 -11z"/>
<path d="M5250 1908 c10 -8 14 -26 12 -50 -3 -41 13 -82 29 -72 6 3 7 13 4 23
-7 16 -11 38 -14 73 0 10 -11 22 -23 28 -19 9 -21 9 -8 -2z"/>
<path d="M6456 1903 c-6 -14 -5 -15 5 -6 7 7 10 15 7 18 -3 3 -9 -2 -12 -12z"/>
<path d="M5220 1869 c0 -31 37 -105 48 -95 2 3 0 11 -6 18 -6 7 -13 33 -16 58
-2 25 -5 46 -5 48 -1 1 -5 2 -11 2 -5 0 -10 -14 -10 -31z"/>
<path d="M5308 1883 c-2 -5 -1 -26 3 -48 l7 -40 -1 48 c-1 47 -2 54 -9 40z"/>
<path d="M6568 1866 c-3 -16 -1 -23 7 -19 7 2 11 13 8 24 -7 25 -10 24 -15 -5z"/>
<path d="M6646 1875 c4 -8 8 -15 10 -15 2 0 4 7 4 15 0 8 -4 15 -10 15 -5 0
-7 -7 -4 -15z"/>
<path d="M6671 1874 c0 -11 3 -14 6 -6 3 7 2 16 -1 19 -3 4 -6 -2 -5 -13z"/>
<path d="M8530 1863 c0 -5 -16 -9 -36 -10 -55 -3 -168 -40 -188 -62 -17 -19
-17 -20 3 -30 20 -11 29 -9 116 25 11 4 27 9 35 10 55 9 75 21 77 47 1 15 0
27 -3 27 -2 0 -4 -3 -4 -7z"/>
<path d="M3556 1841 c-13 -20 7 -37 57 -49 128 -29 158 -2 37 35 -87 26 -87
26 -94 14z"/>
<path d="M6430 1835 c-7 -9 -10 -18 -7 -21 3 -3 10 4 17 15 13 25 8 27 -10 6z"/>
<path d="M6495 1840 c-3 -5 -1 -10 4 -10 6 0 11 5 11 10 0 6 -2 10 -4 10 -3 0
-8 -4 -11 -10z"/>
<path d="M6626 1835 c-16 -12 -17 -15 -4 -15 9 0 18 7 22 15 7 18 6 18 -18 0z"/>
<path d="M6668 1843 c6 -2 18 -2 25 0 6 3 1 5 -13 5 -14 0 -19 -2 -12 -5z"/>
<path d="M3503 1825 c0 -7 8 -10 19 -7 10 2 18 6 18 7 0 1 -8 5 -18 7 -11 3
-19 0 -19 -7z"/>
<path d="M8260 1810 c-8 -5 -10 -10 -5 -10 6 0 17 5 25 10 8 5 11 10 5 10 -5
0 -17 -5 -25 -10z"/>
<path d="M5208 1792 c-4 -12 -3 -20 1 -17 5 2 14 -21 20 -51 10 -41 18 -57 34
-63 26 -10 50 -3 41 11 -3 5 -8 24 -11 41 -6 43 -19 54 -29 26 -8 -23 -8 -22
-14 9 -3 18 -9 32 -15 32 -5 -1 -12 6 -15 16 -6 16 -7 15 -12 -4z"/>
<path d="M5945 1780 c-3 -5 -1 -10 4 -10 6 0 11 5 11 10 0 6 -2 10 -4 10 -3 0
-8 -4 -11 -10z"/>
<path d="M3737 1765 c-4 -8 -1 -18 6 -22 30 -19 130 -50 148 -46 13 4 26 -3
39 -19 19 -24 109 -64 159 -70 33 -4 38 28 5 36 -14 4 -50 18 -82 33 -31 14
-64 27 -73 27 -9 1 -25 8 -35 17 -15 13 -138 59 -158 59 -2 0 -6 -7 -9 -15z"/>
<path d="M8085 1765 c-102 -18 -113 -24 -100 -58 5 -12 16 -11 78 4 40 9 99
21 131 26 45 6 60 12 62 26 2 14 -6 17 -49 16 -29 -1 -83 -7 -122 -14z"/>
<path d="M3705 1750 c-3 -5 -1 -10 4 -10 6 0 11 5 11 10 0 6 -2 10 -4 10 -3 0
-8 -4 -11 -10z"/>
<path d="M5317 1740 c3 -11 7 -20 9 -20 2 0 4 9 4 20 0 11 -4 20 -9 20 -5 0
-7 -9 -4 -20z"/>
<path d="M6160 1739 c0 -5 5 -7 10 -4 6 3 10 8 10 11 0 2 -4 4 -10 4 -5 0 -10
-5 -10 -11z"/>
<path d="M4970 1730 c0 -5 5 -10 10 -10 6 0 10 5 10 10 0 6 -4 10 -10 10 -5 0
-10 -4 -10 -10z"/>
<path d="M4488 1704 c12 -8 28 -13 35 -11 7 3 5 6 -5 6 -10 1 -18 6 -18 11 0
6 -8 10 -17 10 -14 0 -13 -3 5 -16z"/>
<path d="M4611 1703 c-74 -15 -76 -16 -67 -38 6 -16 7 -16 120 11 68 17 76 21
56 34 -18 12 -28 11 -109 -7z"/>
<path d="M4767 1701 c-6 -26 7 -29 117 -33 135 -5 99 35 -44 48 -63 6 -67 5
-73 -15z"/>
<path d="M7790 1711 c-51 -7 -73 -18 -65 -32 4 -5 0 -9 -7 -9 -8 0 -6 -5 5
-11 10 -6 30 -8 45 -3 35 9 56 12 115 15 54 2 69 16 42 36 -20 14 -59 15 -135
4z"/>
<path d="M5010 1670 c0 -14 11 -22 38 -29 59 -17 159 -25 166 -13 6 11 -21 23
-106 46 -76 22 -98 21 -98 -4z"/>
<path d="M7676 1683 c-4 -4 -52 -8 -108 -10 -77 -2 -106 -7 -119 -19 -32 -29
-11 -36 90 -29 119 8 123 9 138 40 11 26 11 30 -1 18z"/>
<path d="M3800 1656 c0 -2 15 -9 33 -15 29 -10 30 -9 13 4 -18 14 -46 20 -46
11z"/>
<path d="M4397 1641 c-57 -21 -69 -32 -58 -50 7 -11 19 -9 68 8 33 12 67 21
76 21 9 0 21 9 27 20 10 18 8 20 -27 19 -21 0 -60 -9 -86 -18z"/>
<path d="M5262 1632 c-9 -24 12 -31 98 -33 129 -3 130 -3 100 21 l-25 21 30
-7 c17 -4 27 -3 22 1 -4 5 -55 9 -113 9 -79 1 -108 -2 -112 -12z"/>
<path d="M7252 1640 c-48 -4 -67 -10 -78 -25 -22 -30 5 -39 84 -26 37 5 74 10
82 10 8 0 30 1 49 2 31 2 32 3 12 14 -12 6 -19 14 -16 17 9 9 -64 14 -133 8z"/>
<path d="M4144 1616 c-9 -24 3 -34 57 -45 60 -13 80 -14 98 -2 25 16 -5 39
-57 46 -26 3 -57 8 -70 11 -14 3 -25 -1 -28 -10z"/>
<path d="M4293 1623 c9 -2 23 -2 30 0 6 3 -1 5 -18 5 -16 0 -22 -2 -12 -5z"/>
<path d="M5532 1619 c-44 -17 -17 -34 78 -47 76 -11 94 -11 101 0 5 7 3 16 -4
20 -11 6 -145 39 -150 37 -1 0 -13 -4 -25 -10z"/>
<path d="M6965 1609 c-66 -10 -101 -33 -75 -49 8 -5 22 -8 30 -5 21 5 172 19
186 17 13 -3 27 25 16 32 -17 10 -102 13 -157 5z"/>
<path d="M5768 1594 c-15 -14 -8 -22 25 -33 60 -19 154 -23 183 -8 l26 14 -28
11 c-36 14 -196 27 -206 16z"/>
<path d="M6661 1580 c-24 -5 -49 -15 -57 -21 -11 -9 -14 -8 -14 1 0 8 -3 10
-6 7 -4 -4 -1 -13 6 -22 10 -12 31 -14 119 -8 114 6 134 11 122 31 -10 16
-115 23 -170 12z"/>
<path d="M7516 1578 c3 -5 10 -6 15 -3 13 9 11 12 -6 12 -8 0 -12 -4 -9 -9z"/>
<path d="M5317 1561 c-17 -18 -17 -19 1 -23 15 -4 20 0 20 18 0 13 -1 24 -2
23 0 0 -9 -8 -19 -18z"/>
<path d="M6365 1571 c-31 -5 -40 -10 -40 -25 0 -19 7 -20 105 -17 110 3 137
11 106 34 -19 14 -104 18 -171 8z"/>
<path d="M7400 1570 c0 -5 5 -10 10 -10 6 0 10 5 10 10 0 6 -4 10 -10 10 -5 0
-10 -4 -10 -10z"/>
<path d="M6051 1556 c-14 -17 4 -22 127 -32 70 -5 82 -4 82 9 0 34 -184 53
-209 23z"/>
<path d="M4055 1554 c11 -3 33 -10 50 -15 21 -7 26 -6 19 1 -6 6 -28 13 -50
15 -21 2 -30 2 -19 -1z"/>
<path d="M5728 1553 c6 -2 18 -2 25 0 6 3 1 5 -13 5 -14 0 -19 -2 -12 -5z"/>
<path d="M4366 1528 c3 -4 9 -8 15 -8 5 0 9 4 9 8 0 5 -7 9 -15 9 -8 0 -12 -4
-9 -9z"/>
<path d="M5565 1530 c-5 -9 -1 -10 14 -5 12 4 21 2 21 -4 0 -14 37 -14 45 -1
3 6 -2 10 -12 10 -10 0 -28 3 -39 6 -12 3 -25 0 -29 -6z"/>
<path d="M6010 1529 c0 -5 5 -7 10 -4 6 3 10 8 10 11 0 2 -4 4 -10 4 -5 0 -10
-5 -10 -11z"/>
<path d="M4310 1510 c-8 -5 -10 -10 -5 -10 6 0 17 5 25 10 8 5 11 10 5 10 -5
0 -17 -5 -25 -10z"/>
<path d="M6675 1490 c3 -5 8 -10 11 -10 2 0 4 5 4 10 0 6 -5 10 -11 10 -5 0
-7 -4 -4 -10z"/>
<path d="M6746 1485 c-3 -8 -1 -15 3 -15 5 0 11 7 15 15 3 8 1 15 -3 15 -5 0
-11 -7 -15 -15z"/>
<path d="M6448 1473 c7 -3 16 -2 19 1 4 3 -2 6 -13 5 -11 0 -14 -3 -6 -6z"/>
<path d="M4815 4730 c3 -5 11 -10 16 -10 6 0 7 5 4 10 -3 6 -11 10 -16 10 -6
0 -7 -4 -4 -10z"/>
<path d="M4083 4405 c0 -22 2 -30 4 -17 2 12 2 30 0 40 -3 9 -5 -1 -4 -23z"/>
<path d="M3810 4292 c0 -5 16 -13 35 -19 41 -13 49 2 9 17 -31 12 -44 13 -44
2z"/>
<path d="M3786 4262 c12 -11 64 -33 64 -27 0 12 -34 35 -53 35 -12 0 -17 -4
-11 -8z"/>
<path d="M3896 4242 c-3 -5 10 -16 29 -25 19 -9 35 -13 35 -9 0 12 -58 43 -64
34z"/>
<path d="M3857 4223 c-3 -5 11 -15 29 -24 19 -9 34 -14 34 -10 0 11 -58 42
-63 34z"/>
<path d="M3735 4195 c-17 -13 -26 -27 -22 -31 4 -4 20 4 34 19 35 34 26 43
-12 12z"/>
<path d="M3776 4175 c-10 -7 -16 -19 -14 -25 2 -6 14 0 27 14 26 28 18 35 -13
11z"/>
<path d="M3990 4165 c35 -20 62 -19 36 0 -11 8 -29 15 -40 15 -19 -1 -19 -2 4
-15z"/>
<path d="M3960 4145 c34 -20 60 -20 34 0 -10 8 -28 14 -39 14 -18 0 -17 -1 5
-14z"/>
<path d="M3666 4119 c-14 -11 -26 -25 -26 -31 0 -6 8 -4 18 4 9 9 31 23 47 31
26 14 27 16 9 17 -12 0 -33 -9 -48 -21z"/>
<path d="M5160 4451 c0 -5 8 -12 19 -16 10 -3 26 -14 36 -25 10 -11 25 -20 34
-20 13 0 13 2 3 9 -8 4 -13 12 -13 17 0 5 -5 9 -12 9 -8 0 -25 8 -40 18 -15
10 -27 13 -27 8z"/>
<path d="M5177 4359 c7 -7 15 -10 18 -7 3 3 -2 9 -12 12 -14 6 -15 5 -6 -5z"/>
<path d="M5240 4306 c0 -2 7 -7 16 -10 8 -3 12 -2 9 4 -6 10 -25 14 -25 6z"/>
</g>
</svg>
