<?xml version="1.0" standalone="no"?>
<!DOCTYPE svg PUBLIC "-//W3C//DTD SVG 20010904//EN"
 "http://www.w3.org/TR/2001/REC-SVG-20010904/DTD/svg10.dtd">
<svg version="1.0" xmlns="http://www.w3.org/2000/svg"
 width="990.000000pt" height="630.000000pt" viewBox="0 0 990.000000 630.000000"
 preserveAspectRatio="xMidYMid meet">

<g transform="translate(0.000000,630.000000) scale(0.100000,-0.100000)"
fill="#000000" stroke="none">
<path d="M3825 5665 c-90 -20 -133 -45 -193 -110 -112 -122 -209 -355 -416
-1002 -167 -520 -220 -762 -219 -993 1 -122 24 -364 36 -376 2 -2 2 78 -1 179
-3 136 0 212 13 302 9 66 19 122 22 125 3 3 3 -17 -1 -45 -27 -199 -27 -299 4
-655 6 -69 20 -233 31 -365 11 -132 24 -278 29 -325 5 -47 12 -116 15 -155 12
-140 39 -311 52 -332 8 -12 20 -20 27 -17 10 4 12 -2 8 -21 -3 -17 1 -30 9
-36 8 -5 9 -9 3 -9 -8 0 -8 -11 -1 -40 6 -22 17 -40 24 -40 7 0 16 -17 22 -37
13 -52 31 -155 31 -177 0 -29 51 -136 65 -136 7 0 24 -11 38 -25 18 -19 27
-22 33 -14 4 7 3 10 -2 6 -5 -3 -9 8 -9 23 0 37 11 29 19 -12 3 -18 8 -42 10
-54 2 -12 14 -53 25 -91 12 -39 21 -80 21 -91 0 -27 53 -192 81 -252 12 -25
36 -66 55 -93 19 -26 30 -47 25 -47 -5 0 -14 7 -21 15 -7 9 -19 14 -26 11 -7
-3 -16 -1 -19 4 -3 5 -24 23 -48 41 l-42 32 47 -49 c37 -39 44 -52 35 -65 -15
-23 -2 -48 31 -60 16 -5 34 -21 40 -34 29 -63 156 -101 250 -76 47 13 242 128
242 142 0 5 -6 18 -12 29 -11 18 -5 27 57 92 51 52 57 60 22 31 -26 -22 -55
-40 -64 -39 -9 0 -18 -6 -21 -14 -5 -13 -3 -13 14 0 19 14 19 14 0 -8 -20 -23
-32 -30 -21 -12 9 15 -1 12 -43 -10 -34 -19 -37 -19 -41 -3 -2 9 2 19 8 21 6
2 11 10 11 18 0 8 4 14 10 14 11 0 80 143 105 218 27 84 27 55 0 -43 -13 -49
-22 -91 -19 -94 6 -7 64 55 64 68 0 5 5 13 12 17 8 5 9 -3 5 -31 l-6 -38 54
59 c30 32 55 64 55 71 0 7 4 13 9 13 14 0 59 114 71 182 6 34 17 86 25 113 28
102 27 226 0 133 -6 -17 -16 -33 -22 -36 -9 -2 -8 4 2 25 17 32 20 63 5 63 -5
0 -10 -16 -10 -35 0 -19 -4 -35 -9 -35 -9 0 -8 19 10 158 12 100 12 215 -1
207 -6 -4 -10 -12 -9 -18 1 -7 0 -25 -1 -42 l-2 -30 -9 30 c-14 45 -12 140 4
235 9 47 18 105 21 130 4 25 9 63 12 85 11 68 12 201 3 253 -7 36 -5 74 6 137
8 48 15 107 15 131 0 23 4 45 9 48 14 9 20 55 38 299 21 297 24 890 5 1027
-24 168 -131 689 -182 887 -85 326 -136 447 -225 537 -35 35 -40 44 -18 28 73
-52 139 -165 191 -328 40 -125 134 -509 172 -699 87 -444 97 -511 107 -777 3
-92 8 -167 10 -165 10 10 33 226 33 313 0 272 -119 889 -245 1269 -83 251
-183 398 -305 453 -63 28 -165 35 -245 17z m192 -67 c25 -12 58 -39 75 -60 31
-40 67 -129 75 -188 10 -72 11 -275 2 -281 -6 -3 -11 -15 -12 -27 0 -12 -7
-24 -15 -27 -8 -3 -11 -12 -8 -20 3 -8 1 -15 -5 -15 -6 0 -8 -4 -5 -9 3 -5 0
-14 -8 -20 -11 -9 -19 -6 -36 16 -12 16 -19 20 -16 11 7 -24 -3 -48 -21 -48
-8 0 -11 -5 -7 -11 4 -8 0 -9 -15 -4 -12 4 -29 0 -42 -9 -12 -8 -28 -12 -35
-9 -8 3 -14 -1 -14 -11 0 -20 -10 -20 -38 0 -12 8 -27 12 -34 8 -7 -5 -9 0 -6
14 4 13 -1 27 -13 38 -10 9 -19 12 -19 6 0 -6 8 -16 18 -21 9 -6 12 -11 5 -11
-22 0 -42 12 -37 24 6 16 -48 46 -75 41 -12 -2 -19 0 -16 6 4 5 14 9 23 9 15
1 14 3 -3 16 -11 8 -25 12 -32 10 -7 -3 -15 -1 -18 4 -4 6 -2 10 4 10 5 0 6
11 2 27 -4 15 -3 54 2 87 4 34 8 70 8 81 -5 143 1 202 23 250 22 50 72 98 126
122 42 20 118 15 167 -9z m-312 -8 c3 -5 1 -10 -4 -10 -6 0 -11 5 -11 10 0 6
2 10 4 10 3 0 8 -4 11 -10z m-152 -265 c-9 -19 -18 -33 -21 -31 -4 5 26 66 33
66 3 0 -3 -16 -12 -35z m-68 -175 c-50 -138 -145 -434 -216 -675 -34 -115 -85
-289 -114 -385 -29 -96 -59 -202 -66 -234 -7 -33 -15 -54 -16 -49 -7 21 109
456 131 491 2 4 41 132 85 283 83 283 136 448 186 574 7 17 18 45 25 63 7 18
14 31 16 29 2 -1 -12 -45 -31 -97z m284 -201 c-22 -13 -31 -11 -17 5 7 8 17
12 22 9 4 -3 2 -9 -5 -14z m328 -25 c-3 -3 -12 -4 -19 -1 -8 3 -5 6 6 6 11 1
17 -2 13 -5z m-197 -64 c0 -5 -2 -10 -4 -10 -3 0 -8 5 -11 10 -3 6 -1 10 4 10
6 0 11 -4 11 -10z m-15 -120 c-3 -5 9 -12 27 -15 17 -4 41 -16 52 -27 17 -15
17 -18 4 -13 -11 4 -18 2 -18 -4 0 -10 12 -15 35 -12 6 0 11 -17 11 -39 1 -22
-4 -40 -10 -40 -19 0 18 -26 54 -37 19 -6 54 -14 78 -18 31 -5 49 -15 65 -37
12 -16 22 -33 23 -36 2 -18 26 -100 36 -122 6 -14 10 -31 9 -37 -1 -7 2 -13 6
-13 13 0 48 -62 50 -88 1 -12 8 -28 15 -36 17 -16 41 -73 63 -148 17 -57 16
-58 -8 -110 -13 -29 -27 -73 -31 -98 -4 -25 -22 -67 -40 -95 -56 -85 -66 -109
-59 -150 5 -33 2 -41 -28 -69 -19 -18 -39 -41 -45 -52 -10 -16 -23 -19 -96
-20 -84 -2 -122 6 -99 20 14 9 14 36 0 36 -6 0 -9 -7 -5 -15 3 -8 1 -15 -4
-15 -6 0 -10 11 -10 24 0 13 -3 39 -6 57 -4 19 -4 31 0 28 4 -4 9 -19 12 -35
7 -39 14 -43 14 -9 l0 28 71 -7 c39 -3 84 -13 101 -22 16 -8 32 -13 35 -10 3
3 2 24 -3 48 -9 43 -10 43 -89 62 -22 5 -26 4 -15 -4 11 -7 6 -9 -22 -7 -21 1
-38 5 -38 10 0 4 -7 7 -15 7 -13 0 -20 18 -16 43 0 4 -4 7 -9 7 -10 0 -7 -40
4 -58 3 -4 -13 -9 -34 -10 -21 -2 -61 -9 -89 -16 -28 -7 -51 -9 -51 -5 0 5 6
9 14 9 8 0 13 7 12 15 -3 22 -16 31 -16 11 0 -9 -7 -19 -15 -22 -8 -4 -13 -10
-10 -14 3 -5 -17 -8 -44 -7 -42 2 -57 8 -98 42 -26 22 -60 45 -75 52 -37 16
-42 44 -25 144 8 46 13 93 11 104 -21 95 -25 139 -20 192 4 34 9 104 12 155
14 251 27 302 79 326 25 12 34 32 14 32 -5 0 -8 4 -4 10 3 5 13 6 22 3 11 -4
14 -3 9 5 -4 7 -3 12 3 12 6 0 8 7 4 15 -3 9 -2 15 3 13 5 -1 20 4 34 12 14 7
26 13 28 12 8 -6 51 12 46 19 -3 5 13 12 35 15 23 4 38 10 35 15 -3 5 2 6 10
3 9 -3 14 -10 11 -14z m63 -1265 l0 -30 -8 30 c-4 17 -8 39 -8 50 l-1 20 9
-20 c5 -11 8 -33 8 -50z m-28 4 c0 -23 5 -39 12 -39 24 0 -3 -13 -42 -20 -22
-4 -40 -3 -40 1 0 5 13 9 29 9 28 0 28 0 23 51 -3 37 -2 50 7 45 6 -4 11 -25
11 -47z m-295 21 c0 -7 -6 -15 -12 -17 -8 -3 -13 4 -13 17 0 13 5 20 13 18 6
-3 12 -11 12 -18z m226 -40 c-9 -23 -10 -23 -10 11 -1 20 2 39 7 43 11 12 14
-27 3 -54z m-31 40 c-13 -9 -13 -11 0 -20 10 -6 11 -10 3 -10 -7 0 -13 -5 -13
-11 0 -5 5 -7 10 -4 6 3 10 2 10 -3 0 -5 -12 -15 -27 -23 -16 -8 -30 -17 -33
-21 -11 -14 -27 8 -34 43 -6 34 -5 36 31 46 21 6 45 11 53 12 13 1 13 0 0 -9z
m47 -52 c-3 -8 -6 -5 -6 6 -1 11 2 17 5 13 3 -3 4 -12 1 -19z m-30 -34 c-3 -3
-12 -4 -19 -1 -8 3 -5 6 6 6 11 1 17 -2 13 -5z m268 -36 c7 -6 -3 -7 -30 -3
-22 4 -44 12 -50 17 -7 7 3 8 30 3 22 -3 45 -11 50 -17z m-305 -8 c0 -5 -9
-10 -21 -10 -11 0 -17 5 -14 10 3 6 13 10 21 10 8 0 14 -4 14 -10z m173 -90
c3 -30 2 -46 -2 -35 -11 27 -23 135 -12 110 4 -11 11 -45 14 -75z m237 74 c0
-8 -4 -12 -10 -9 -5 3 -10 10 -10 16 0 5 5 9 10 9 6 0 10 -7 10 -16z m-215
-44 c3 -32 2 -40 -5 -30 -9 15 -15 88 -5 79 2 -3 7 -25 10 -49z m-66 26 c6 -7
14 -34 17 -59 6 -43 5 -45 -14 -40 -17 4 -21 14 -24 59 -3 55 1 64 21 40z
m199 -1 c2 -2 -2 -21 -8 -43 -9 -28 -9 -45 -2 -59 10 -18 8 -19 -23 -19 -18 1
-30 5 -27 10 3 5 -2 7 -11 3 -10 -4 -17 -2 -17 4 0 6 -7 9 -15 5 -11 -4 -15 1
-15 19 0 14 5 25 10 25 6 0 10 13 10 30 0 23 -3 28 -17 24 -13 -4 -15 -3 -5 4
11 7 110 5 120 -3z m-281 -102 c-2 -16 -4 -3 -4 27 0 30 2 43 4 28 2 -16 2
-40 0 -55z m153 2 c0 -20 -5 -25 -22 -24 -17 1 -19 2 -5 6 9 2 17 13 17 24 0
10 2 19 5 19 3 0 5 -11 5 -25z m-87 -22 c-7 -2 -19 -2 -25 0 -7 3 -2 5 12 5
14 0 19 -2 13 -5z m97 -38 c0 -8 -2 -15 -4 -15 -2 0 -6 7 -10 15 -3 8 -1 15 4
15 6 0 10 -7 10 -15z m25 6 c3 -5 1 -12 -5 -16 -5 -3 -10 1 -10 9 0 18 6 21
15 7z m-192 -21 c-3 -12 -8 -19 -11 -16 -5 6 5 36 12 36 2 0 2 -9 -1 -20z
m267 10 c0 -5 -13 -10 -30 -10 -16 0 -30 5 -30 10 0 6 14 10 30 10 17 0 30 -4
30 -10z m-170 -20 c11 -6 22 -26 25 -48 3 -20 8 -46 10 -57 4 -18 -5 -23 -53
-38 -62 -18 -125 -23 -87 -7 11 5 35 9 54 9 l33 1 -4 75 c-2 41 -2 75 0 75 2
0 12 -5 22 -10z m65 -92 c3 -21 9 -38 13 -39 49 -5 67 -19 25 -19 -35 0 -49
22 -57 90 -6 53 9 27 19 -32z m85 58 c0 -2 -7 -9 -15 -16 -13 -11 -14 -10 -9
4 5 14 24 23 24 12z m-267 -48 c-3 -24 -9 -47 -13 -51 -7 -8 -5 18 6 71 8 38
12 24 7 -20z m220 -24 c4 3 3 1 -3 -6 -13 -16 -16 -10 -23 37 l-6 40 12 -38
c7 -21 16 -36 20 -33z m47 -14 c0 -5 -4 -10 -10 -10 -5 0 -10 5 -10 10 0 6 5
10 10 10 6 0 10 -4 10 -10z m-50 -123 c0 -4 3 -6 8 -4 4 3 8 -7 9 -21 1 -24
-1 -23 -23 13 -13 22 -24 45 -24 50 1 12 30 -25 30 -38z m74 -26 c-7 -7 -12 3
-18 34 l-6 30 14 -30 c8 -16 12 -32 10 -34z m-155 24 c23 -11 29 -23 35 -61
10 -73 10 -72 -34 -71 l-40 2 0 73 c0 39 2 72 5 72 4 0 19 -7 34 -15z m136
-45 c10 -11 16 -20 13 -20 -3 0 -13 9 -23 20 -10 11 -16 20 -13 20 3 0 13 -9
23 -20z m-94 -130 c5 0 9 -9 9 -20 0 -35 31 -98 57 -115 27 -18 23 -29 -10
-31 -57 -2 -193 -16 -199 -21 -16 -9 -7 25 9 38 23 20 43 72 43 113 0 30 4 35
28 39 15 2 33 2 40 0 8 -1 18 -3 23 -3z m264 -50 c10 -11 16 -20 13 -20 -3 0
-13 9 -23 20 -10 11 -16 20 -13 20 3 0 13 -9 23 -20z m-154 -152 c14 -9 36
-18 50 -20 13 -2 -16 -8 -66 -12 -49 -4 -112 -12 -139 -16 -59 -9 -76 -5 -97
24 -15 20 -15 22 0 23 61 5 157 16 160 19 9 8 70 -3 92 -18z m-645 -50 c-18
-26 -22 -17 -5 14 6 11 13 17 16 15 3 -3 -2 -16 -11 -29z m-123 -433 c3 -33 3
-49 0 -36 -4 19 -7 21 -15 10 -7 -10 -8 -4 -4 20 3 18 6 43 6 54 0 40 8 11 13
-48z m-13 -55 c0 -5 -5 -10 -11 -10 -5 0 -7 5 -4 10 3 6 8 10 11 10 2 0 4 -4
4 -10z m-17 -45 c-3 -9 -8 -14 -10 -11 -3 3 -2 9 2 15 9 16 15 13 8 -4z m1124
-247 c-2 -13 -4 -5 -4 17 -1 22 1 32 4 23 2 -10 2 -28 0 -40z m-1040 -20 c-3
-8 -6 -5 -6 6 -1 11 2 17 5 13 3 -3 4 -12 1 -19z m416 -185 c-7 -2 -21 -2 -30
0 -10 3 -4 5 12 5 17 0 24 -2 18 -5z m224 -25 c-3 -8 -6 -5 -6 6 -1 11 2 17 5
13 3 -3 4 -12 1 -19z m-27 8 c0 -2 -9 -6 -20 -9 -11 -3 -18 -1 -14 4 5 9 34
13 34 5z m-161 -36 c11 -22 10 -23 -2 -8 -8 10 -17 15 -20 12 -3 -3 -14 -1
-24 6 -16 10 -16 10 5 5 14 -4 22 -2 22 6 0 15 4 11 19 -21z m-332 -2 c-3 -8
-6 -5 -6 6 -1 11 2 17 5 13 3 -3 4 -12 1 -19z m221 -27 c15 -5 21 -10 14 -10
-24 -2 -52 19 -51 37 1 16 2 16 6 0 2 -9 16 -21 31 -27z m43 19 c24 -11 37
-19 29 -19 -15 0 -91 38 -79 39 4 0 26 -9 50 -20z m229 10 c0 -5 -5 -10 -11
-10 -5 0 -7 5 -4 10 3 6 8 10 11 10 2 0 4 -4 4 -10z m-369 -17 c13 -17 13 -17
-6 -3 -11 8 -22 16 -24 17 -2 2 0 3 6 3 6 0 17 -8 24 -17z m36 -20 c-3 -10 -5
-4 -5 12 0 17 2 24 5 18 2 -7 2 -21 0 -30z m332 10 c12 3 21 1 21 -5 0 -15
-53 -5 -57 12 -4 12 -3 13 5 1 6 -8 19 -12 31 -8z m76 7 c19 -8 19 -9 -2 -9
-12 -1 -25 4 -28 9 -7 12 2 12 30 0z m-132 -22 c-6 -11 -31 -10 -37 1 -3 5 5
8 18 7 13 0 22 -4 19 -8z m-406 -64 c-3 -103 116 -450 164 -480 6 -3 3 5 -6
19 -12 20 -14 30 -6 44 6 10 11 13 11 7 0 -7 9 -14 21 -17 15 -4 19 -2 15 8
-4 11 1 11 29 -1 40 -16 89 -19 80 -4 -3 6 3 10 14 10 12 0 21 4 21 9 0 5 7
12 16 15 11 4 15 2 11 -7 -3 -8 3 -13 14 -13 12 0 18 5 15 13 -3 8 2 13 14 13
13 0 18 -5 14 -15 -9 -22 6 -18 27 6 l18 21 22 -21 c21 -19 21 -22 6 -39 -21
-23 -22 -39 -1 -18 8 9 30 48 49 88 43 91 46 69 5 -33 -31 -76 -31 -76 -103
-115 -65 -35 -79 -39 -147 -39 -60 0 -85 5 -125 25 -44 22 -54 33 -85 96 -36
72 -81 237 -100 369 -6 39 -13 83 -15 98 -4 24 -3 26 9 15 7 -8 13 -32 13 -54z
m199 38 c-10 -2 -22 0 -28 6 -6 6 0 7 19 4 21 -5 23 -7 9 -10z m74 14 c0 -11
-19 -15 -25 -6 -3 5 1 10 9 10 9 0 16 -2 16 -4z m-120 -16 c0 -5 -5 -10 -11
-10 -5 0 -7 5 -4 10 3 6 8 10 11 10 2 0 4 -4 4 -10z m207 -87 c-3 -10 -5 -4
-5 12 0 17 2 24 5 18 2 -7 2 -21 0 -30z m18 -118 c-23 -8 -85 -10 -85 -3 0 4
21 8 48 7 26 0 43 -2 37 -4z m87 -187 c-7 -7 -12 -8 -12 -2 0 14 12 26 19 19
2 -3 -1 -11 -7 -17z m38 -158 c0 -5 -8 -10 -17 -10 -15 0 -16 2 -3 10 19 12
20 12 20 0z m-340 -30 c0 -5 -2 -10 -4 -10 -3 0 -8 5 -11 10 -3 6 -1 10 4 10
6 0 11 -4 11 -10z m250 -13 c-52 -25 -167 -29 -214 -9 -43 19 -25 24 24 7 55
-19 93 -18 155 4 69 25 90 24 35 -2z"/>
<path d="M4016 4945 c-11 -8 -15 -15 -9 -15 7 0 15 5 18 10 4 6 11 8 16 5 5
-4 9 -1 9 4 0 15 -11 13 -34 -4z"/>
<path d="M3784 3899 c-2 -5 4 -14 16 -21 11 -7 20 -20 21 -28 0 -10 2 -11 6
-2 11 27 29 11 27 -23 -2 -19 1 -35 6 -35 6 0 10 18 10 41 0 27 4 38 11 33 7
-4 9 -21 6 -40 -3 -19 -1 -36 4 -39 5 -4 9 12 9 35 0 25 4 39 10 35 6 -3 10
-17 10 -30 0 -13 5 -27 11 -30 7 -5 8 5 4 29 -5 24 -3 36 4 36 6 0 11 -16 11
-35 0 -19 4 -35 9 -35 6 0 7 16 4 35 -4 28 -2 39 13 50 10 7 16 17 11 21 -10
10 -196 13 -203 3z"/>
<path d="M3866 3773 c-1 -1 -24 -5 -51 -8 -28 -4 -53 -9 -57 -11 -4 -2 -10 0
-13 6 -4 6 -22 8 -43 4 -58 -9 -73 -15 -67 -25 4 -5 2 -9 -4 -9 -10 0 -36 -39
-29 -45 2 -1 48 3 103 10 55 8 103 11 107 9 4 -3 8 -18 8 -35 0 -16 4 -29 9
-29 4 0 7 14 5 30 -2 17 1 30 7 30 6 0 7 -4 4 -10 -3 -5 -1 -10 4 -10 6 0 11
6 11 14 0 8 4 18 10 21 6 4 8 -17 5 -57 -3 -47 -2 -54 4 -28 8 32 8 33 10 8 1
-23 5 -27 27 -26 27 3 27 12 7 96 -8 34 30 30 44 -5 10 -26 11 -27 12 -5 1 22
4 23 90 21 48 -1 96 3 106 9 17 9 15 12 -16 28 -28 15 -58 18 -162 19 -71 0
-130 -1 -131 -2z"/>
<path d="M3940 3703 c0 -13 5 -23 10 -23 13 0 13 11 0 30 -8 12 -10 11 -10 -7z"/>
<path d="M3840 3660 c0 -5 5 -10 10 -10 6 0 10 5 10 10 0 6 -4 10 -10 10 -5 0
-10 -4 -10 -10z"/>
<path d="M3952 3645 c0 -16 2 -22 5 -12 2 9 2 23 0 30 -3 6 -5 -1 -5 -18z"/>
<path d="M3840 3630 c0 -5 5 -10 10 -10 6 0 10 5 10 10 0 6 -4 10 -10 10 -5 0
-10 -4 -10 -10z"/>
<path d="M3994 3486 c1 -34 5 -46 19 -50 13 -3 15 -1 8 8 -6 6 -11 29 -13 49
-3 52 -15 46 -14 -7z"/>
<path d="M4048 3433 c7 -3 16 -2 19 1 4 3 -2 6 -13 5 -11 0 -14 -3 -6 -6z"/>
<path d="M4020 3259 c0 -5 5 -7 10 -4 6 3 10 8 10 11 0 2 -4 4 -10 4 -5 0 -10
-5 -10 -11z"/>
<path d="M3990 849 c-22 -18 -22 -19 -3 -10 12 6 25 16 28 21 9 15 3 12 -25
-11z"/>
<path d="M3750 816 c15 -15 169 -21 183 -7 8 8 0 10 -33 5 -25 -3 -71 -1 -103
4 -42 7 -55 6 -47 -2z"/>
<path d="M5737 5623 c-4 -3 -24 -8 -45 -10 -48 -5 -105 -27 -163 -65 -53 -34
-93 -83 -83 -100 4 -7 3 -8 -4 -4 -25 15 -95 -173 -152 -409 -40 -164 -92
-450 -131 -725 -30 -204 -33 -535 -6 -649 22 -92 32 -105 23 -29 -14 114 -7
369 13 523 60 437 97 651 161 930 51 222 66 269 101 332 16 29 28 58 27 65 -2
7 2 12 7 13 6 0 31 17 56 38 25 20 49 37 53 37 4 0 -14 -17 -41 -38 -88 -70
-129 -174 -202 -519 -120 -562 -160 -984 -131 -1396 5 -78 14 -248 20 -377 10
-228 39 -514 59 -575 5 -16 17 -57 27 -90 14 -50 18 -57 26 -40 5 12 6 -8 1
-50 -11 -120 -2 -895 12 -999 6 -47 5 -58 -5 -54 -8 2 -19 22 -27 44 l-13 39
6 -60 c2 -32 11 -72 19 -88 8 -16 24 -68 36 -115 29 -113 88 -241 124 -268 8
-6 12 -13 9 -16 -2 -3 7 -6 21 -6 30 1 29 0 9 39 -26 51 -10 56 25 9 22 -30
39 -44 51 -42 10 2 21 -2 25 -7 3 -6 0 -8 -8 -5 -8 3 -17 1 -21 -4 -3 -5 5 -8
17 -7 18 2 22 7 19 31 -2 24 3 19 32 -31 19 -33 49 -80 68 -104 18 -24 40 -53
48 -65 14 -20 14 -21 -6 -4 -11 10 -28 18 -37 18 -9 0 -31 8 -49 18 -40 23
-66 19 -46 -6 12 -15 11 -16 -5 -3 -14 11 -15 16 -5 29 11 13 10 15 -6 9 -11
-5 -29 -1 -45 8 -14 9 -3 -6 25 -32 48 -46 50 -50 36 -71 -12 -18 -13 -28 -4
-47 7 -14 19 -25 27 -25 9 0 14 -4 11 -9 -6 -9 16 -21 40 -21 7 0 34 -15 58
-34 57 -43 100 -57 180 -58 52 -1 75 4 120 27 31 16 56 31 56 35 0 3 -15 14
-32 23 l-33 16 35 -5 c28 -5 32 -3 20 6 -13 9 -12 11 5 8 13 -3 19 -10 17 -22
-3 -15 2 -14 32 9 20 15 33 31 30 36 -3 5 0 9 5 9 6 0 11 11 11 25 0 22 -3 25
-24 19 -18 -4 -25 -1 -29 13 -3 16 -6 15 -16 -7 -10 -22 -11 -19 -6 24 3 27
11 56 18 64 9 13 9 14 0 8 -7 -4 -13 -2 -13 3 0 6 4 11 9 11 9 0 52 81 84 160
23 56 54 156 87 285 29 109 40 144 40 119 0 -5 -4 -25 -10 -43 -13 -47 -6 -50
14 -6 19 40 36 46 36 13 0 -21 23 20 68 122 9 22 11 19 11 -30 l1 -55 20 38
c16 29 18 42 10 57 -9 17 -8 20 9 20 16 0 21 9 26 48 4 26 10 71 14 99 7 48 6
52 -8 41 -15 -12 -15 -11 -1 7 34 43 53 104 61 190 39 435 60 858 62 1262 2
469 2 466 -65 723 -98 376 -419 1223 -546 1441 -20 35 -66 94 -101 131 -72 77
-74 93 -2 20 67 -69 111 -138 185 -293 113 -237 166 -374 367 -942 71 -201
153 -499 170 -617 7 -47 13 -165 13 -262 1 -97 4 -174 8 -170 9 10 28 201 28
287 0 175 -49 422 -130 650 -51 144 -203 527 -329 830 -175 417 -255 537 -406
610 -68 33 -145 51 -158 38z m50 -29 c-3 -3 -12 -4 -19 -1 -8 3 -5 6 6 6 11 1
17 -2 13 -5z m93 -24 c22 -11 40 -23 40 -25 0 -3 -17 3 -37 13 -21 11 -45 22
-53 25 -10 4 -11 6 -2 6 7 1 31 -8 52 -19z m-69 -4 c69 -12 160 -141 174 -247
4 -30 16 -80 26 -111 10 -31 16 -63 13 -71 -3 -8 0 -18 5 -22 6 -3 9 -11 5
-16 -3 -6 -2 -18 2 -27 15 -35 13 -52 -8 -72 -12 -11 -16 -20 -9 -20 7 0 9 -5
6 -10 -4 -6 -11 -8 -16 -4 -5 3 -8 2 -7 -3 1 -4 -6 -24 -16 -43 -16 -30 -17
-33 -3 -21 15 11 17 11 17 -1 0 -8 -4 -18 -9 -24 -5 -5 -11 -28 -14 -51 -4
-31 -1 -43 10 -47 8 -3 13 -12 10 -19 -4 -12 29 -47 45 -47 5 0 6 -4 3 -10 -3
-5 -1 -10 5 -10 16 0 40 -26 40 -43 0 -8 7 -17 15 -21 8 -3 15 -13 15 -23 0
-10 16 -43 34 -73 31 -50 36 -69 46 -162 6 -66 22 -139 40 -194 17 -48 30 -95
30 -103 1 -9 9 -34 20 -56 23 -47 25 -100 5 -135 -8 -14 -14 -40 -15 -58 0
-68 -27 -93 -180 -174 -43 -23 -115 -17 -123 10 -3 9 -8 26 -12 37 -6 18 -5
18 5 3 6 -10 23 -18 37 -18 21 0 24 3 15 12 -7 7 -12 15 -12 19 0 12 86 20
126 11 22 -5 48 -6 59 -2 17 7 13 11 -25 28 -25 10 -51 27 -59 36 -12 14 -27
16 -99 11 -56 -4 -89 -2 -98 6 -10 8 -14 8 -14 0 0 -6 -10 -11 -22 -11 -17 0
-19 3 -9 9 9 6 11 18 6 41 -7 31 -6 33 19 28 30 -6 63 13 52 30 -9 15 -140 16
-167 2 -28 -15 -24 -27 12 -35 26 -6 30 -10 25 -30 -3 -13 -2 -27 4 -30 5 -3
10 2 10 12 0 10 5 25 10 33 8 11 10 6 8 -20 -2 -27 -8 -35 -23 -36 -11 0 -34
-4 -50 -8 -17 -4 -57 -7 -88 -7 -48 -1 -62 -5 -87 -29 -36 -33 -38 -48 -7 -44
12 2 61 5 108 7 l86 5 -7 -35 c-7 -27 -5 -33 5 -29 8 3 16 0 18 -7 2 -7 8 6
11 28 12 67 15 72 30 43 8 -14 11 -38 9 -53 -5 -24 -3 -26 23 -23 30 3 33 11
21 58 -6 20 -4 20 8 -5 28 -58 22 -62 -100 -69 -38 -2 -104 -13 -145 -25 -41
-11 -80 -21 -87 -21 -6 0 -21 21 -33 46 -13 25 -32 49 -44 54 -27 10 -40 36
-64 135 -16 69 -18 97 -11 200 14 201 27 339 34 357 4 9 26 32 51 51 24 19 41
37 37 41 -3 3 1 6 10 6 29 0 15 92 -16 112 -9 6 -9 8 1 8 7 0 10 5 7 10 -3 6
-1 10 5 10 6 0 22 11 36 25 14 14 29 25 34 25 5 0 7 7 3 16 -5 14 -3 14 16 3
17 -11 25 -11 41 -1 11 7 20 8 20 3 0 -5 7 -12 16 -15 8 -3 12 -2 9 4 -3 6 -4
10 -1 10 2 0 12 3 22 7 12 4 15 3 10 -5 -4 -7 -6 -12 -4 -12 15 1 104 32 113
40 7 6 17 10 21 8 20 -5 53 23 47 39 -10 25 -83 94 -93 88 -5 -3 -12 -1 -15 5
-4 6 -21 10 -39 8 -17 -1 -37 2 -44 6 -6 4 -21 2 -33 -5 -15 -8 -19 -8 -15 0
9 13 -45 -9 -55 -23 -11 -15 -26 3 -22 26 3 16 -7 35 -32 62 -28 29 -33 41
-23 47 10 6 6 15 -14 36 -27 28 -28 33 -33 168 -8 221 17 314 100 365 34 21
115 40 145 35 8 -2 31 -6 51 -9z m202 -1803 c-13 -2 -33 -2 -45 0 -13 2 -3 4
22 4 25 0 35 -2 23 -4z m-73 -95 c0 -6 8 -17 18 -24 18 -14 5 -19 -14 -6 -13
9 -26 54 -13 46 5 -3 9 -10 9 -16z m-183 -84 c-3 -3 -12 -4 -19 -1 -8 3 -5 6
6 6 11 1 17 -2 13 -5z m117 -35 c3 -17 6 -44 6 -60 0 -26 3 -29 33 -29 21 0
27 -3 19 -9 -17 -10 -64 -2 -77 14 -11 14 -7 115 5 115 4 0 10 -14 14 -31z
m82 -26 c9 -32 19 -64 21 -71 4 -8 0 -10 -11 -6 -9 4 -15 8 -13 11 4 4 -7 66
-19 106 -3 9 -3 17 0 17 3 0 13 -26 22 -57z m-374 15 c-8 -34 -42 -53 -42 -24
0 16 26 46 40 46 4 0 6 -10 2 -22z m225 -10 c-3 -7 -5 -2 -5 12 0 14 2 19 5
13 2 -7 2 -19 0 -25z m-34 15 c4 -3 2 -12 -4 -20 -9 -10 -8 -13 2 -13 10 0 11
-3 3 -8 -15 -9 -21 -43 -11 -59 6 -9 -2 -12 -25 -12 -18 1 -46 -4 -62 -10 -16
-6 -30 -10 -31 -9 -2 2 -6 24 -10 50 -7 44 -5 48 16 57 19 7 72 22 110 30 3 0
9 -2 12 -6z m70 -94 c7 0 1 -5 -12 -10 -26 -10 -42 2 -40 31 1 11 3 10 6 -2 4
-17 24 -26 22 -10 -1 4 0 27 2 52 l3 45 3 -52 c3 -32 9 -53 16 -54z m37 -69
c13 -7 23 -30 31 -70 8 -43 16 -60 28 -61 10 0 11 -2 4 -6 -7 -2 -23 3 -35 11
-12 9 -30 16 -39 16 -12 0 -18 13 -23 46 -11 80 -7 86 34 64z m115 -65 c6 -55
10 -65 29 -68 17 -3 15 -5 -6 -6 -20 -1 -28 4 -29 17 0 9 -4 43 -8 74 -4 31
-4 55 0 52 4 -2 11 -33 14 -69z m-176 3 c-2 -53 0 -63 17 -69 14 -6 10 -8 -16
-8 -19 0 -30 3 -24 7 5 4 10 17 11 30 0 12 1 40 2 62 1 22 4 40 7 40 3 0 4
-28 3 -62z m-32 -40 c-3 -8 -6 -5 -6 6 -1 11 2 17 5 13 3 -3 4 -12 1 -19z
m107 -92 c36 -15 41 -24 51 -100 l7 -49 -38 6 c-20 4 -41 10 -45 14 -7 8 -18
143 -12 143 2 0 19 -6 37 -14z m-93 -86 c-4 -41 -9 -59 -10 -39 -1 42 11 139
16 124 1 -6 -1 -44 -6 -85z m206 -22 c-2 -18 -4 -4 -4 32 0 36 2 50 4 33 2
-18 2 -48 0 -65z m-119 -63 c3 -3 -7 -5 -21 -5 -15 0 -27 4 -27 9 0 10 38 7
48 -4z m116 6 c3 -5 -10 -8 -28 -8 -19 1 -32 5 -30 9 7 11 51 10 58 -1z m-194
-5 c0 -8 -51 -13 -56 -5 -3 5 9 9 25 9 17 0 31 -2 31 -4z m114 -41 c26 -11 36
-21 36 -38 0 -12 3 -39 6 -59 7 -40 13 -36 -71 -53 l-25 -5 0 85 c0 47 4 85 9
85 5 0 25 -7 45 -15z m176 -55 c0 -5 -2 -10 -4 -10 -3 0 -8 5 -11 10 -3 6 -1
10 4 10 6 0 11 -4 11 -10z m-110 -167 c17 -52 54 -89 117 -115 29 -12 53 -27
53 -33 0 -7 18 -18 41 -25 33 -11 37 -15 22 -21 -19 -7 -176 -22 -365 -35 -95
-6 -98 -6 -98 15 0 11 6 21 13 22 20 1 78 9 142 19 33 5 99 10 148 10 48 0 87
4 87 8 0 10 -155 8 -270 -3 l-75 -7 21 24 c34 37 44 63 44 117 0 54 3 56 77
60 28 1 33 -3 43 -36z m559 -345 c0 -46 -4 -92 -9 -103 -5 -12 -8 19 -8 83 0
56 4 102 9 102 5 0 9 -37 8 -82z m11 -712 c0 -2 -7 -7 -16 -10 -8 -3 -12 -2
-9 4 6 10 25 14 25 6z m-840 -161 c0 -12 -19 -12 -23 0 -4 9 -1 12 9 8 7 -3
14 -7 14 -8z m238 -29 c28 -3 42 -1 42 7 0 8 3 8 9 -2 5 -7 46 -19 97 -26 59
-9 75 -13 48 -14 -22 -1 -65 3 -95 9 -30 5 -79 11 -109 14 -113 11 -160 19
-165 25 -2 4 26 4 63 0 37 -5 86 -10 110 -13z m-341 -22 c-3 -3 -12 -4 -19 -1
-8 3 -5 6 6 6 11 1 17 -2 13 -5z m226 -1 c-7 -2 -21 -2 -30 0 -10 3 -4 5 12 5
17 0 24 -2 18 -5z m-83 -14 c47 -6 93 -11 103 -12 9 -1 17 -7 17 -13 0 -7 -8
-10 -21 -7 -12 4 -25 0 -30 -8 -7 -11 -9 -10 -9 4 0 14 -6 18 -27 15 -34 -4
-43 -36 -17 -55 10 -7 15 -16 11 -19 -4 -4 -13 -1 -22 6 -18 15 -20 -1 -3 -18
18 -18 36 -14 43 9 5 14 1 25 -12 34 -10 7 -15 16 -11 20 4 4 20 -7 37 -24 31
-32 43 -53 17 -32 -10 9 -15 8 -19 -3 -6 -16 16 -28 37 -20 24 9 26 33 4 48
-12 9 -18 19 -14 23 4 4 11 1 15 -6 5 -7 13 -11 19 -7 5 3 13 -10 16 -29 4
-19 12 -35 19 -35 14 1 50 71 40 79 -3 4 -8 0 -10 -6 -6 -18 -33 -16 -33 2 0
8 -5 15 -12 15 -6 0 -9 2 -7 4 3 3 21 1 41 -3 20 -5 40 -5 45 0 5 5 71 0 148
-10 l140 -19 -115 5 c-63 3 -126 6 -140 7 -14 0 -26 -2 -27 -6 -2 -5 -12 -17
-24 -29 -23 -23 -14 -43 21 -52 19 -5 25 9 23 60 -1 7 3 10 9 7 5 -3 8 -20 6
-37 -3 -28 0 -32 29 -38 30 -6 32 -5 27 17 -7 26 3 64 16 64 5 0 5 -11 -1 -24
-23 -51 31 -87 73 -49 10 9 18 11 18 5 0 -18 -40 -34 -71 -28 -20 4 -31 1 -38
-12 -6 -9 -11 -12 -11 -6 0 18 -69 27 -88 12 -9 -7 -13 -8 -9 -2 7 12 -21 29
-31 19 -3 -3 0 -5 6 -5 7 0 12 -7 12 -15 0 -10 -11 -15 -35 -15 -28 0 -33 3
-28 17 5 13 2 15 -11 10 -10 -4 -15 -3 -11 3 3 6 14 10 23 11 11 0 12 2 4 6
-6 2 -9 10 -5 16 3 7 -5 2 -19 -11 -23 -21 -25 -22 -41 -5 -11 13 -30 18 -66
17 -28 0 -51 3 -51 7 0 4 -14 7 -30 7 -33 -1 -70 26 -70 51 1 10 7 5 16 -11
27 -50 84 -32 84 27 0 21 3 26 9 16 5 -8 5 -27 0 -45 -5 -17 -9 -32 -9 -33 0
-2 8 -3 18 -3 15 0 18 6 14 30 -3 20 2 37 12 49 16 17 15 18 -21 18 -21 0 -49
5 -63 11 -33 14 -13 14 90 1z m267 -5 c-3 -3 -12 -4 -19 -1 -8 3 -5 6 6 6 11
1 17 -2 13 -5z m-429 -29 c-3 -3 -9 2 -12 12 -6 14 -5 15 5 6 7 -7 10 -15 7
-18z m485 18 c-7 -2 -19 -2 -25 0 -7 3 -2 5 12 5 14 0 19 -2 13 -5z m314 -15
c-3 -8 -6 -5 -6 6 -1 11 2 17 5 13 3 -3 4 -12 1 -19z m-709 -23 c3 -18 2 -19
-8 -2 -6 9 -15 15 -21 12 -5 -4 -9 -1 -9 5 0 20 35 6 38 -15z m-309 -26 c-16
-10 -23 -4 -14 10 3 6 11 8 17 5 6 -4 5 -9 -3 -15z m286 11 c3 -5 1 -10 -4
-10 -6 0 -11 5 -11 10 0 6 2 10 4 10 3 0 8 -4 11 -10z m-60 -22 c6 -4 2 -8 -7
-8 -10 0 -18 7 -18 17 0 9 3 12 8 7 4 -5 12 -12 17 -16z m455 8 c0 -11 -19
-15 -25 -6 -3 5 1 10 9 10 9 0 16 -2 16 -4z m90 -31 c0 -18 -5 -25 -19 -25
-11 0 -21 6 -24 13 -7 20 4 37 24 37 14 0 19 -7 19 -25z m40 15 c0 -5 -2 -10
-4 -10 -3 0 -8 5 -11 10 -3 6 -1 10 4 10 6 0 11 -4 11 -10z m83 -11 c-4 -12 0
-25 8 -30 11 -6 11 -9 1 -9 -16 0 -26 25 -18 45 8 23 15 18 9 -6z m-293 1 c0
-5 -5 -10 -11 -10 -5 0 -7 5 -4 10 3 6 8 10 11 10 2 0 4 -4 4 -10z m70 -10 c0
-5 -5 -10 -11 -10 -5 0 -7 5 -4 10 3 6 8 10 11 10 2 0 4 -4 4 -10z m179 -33
c0 -9 -2 -8 -6 1 -2 6 -10 9 -15 6 -7 -4 -8 -2 -4 5 9 13 26 5 25 -12z m-214
-27 c3 -6 -1 -7 -9 -4 -18 7 -21 14 -7 14 6 0 13 -4 16 -10z m242 -6 c-3 -3
-12 -4 -19 -1 -8 3 -5 6 6 6 11 1 17 -2 13 -5z m-263 -10 c10 -4 16 -18 16
-38 0 -22 -3 -27 -9 -17 -5 8 -7 20 -4 28 3 7 -5 17 -18 22 -13 5 -19 10 -12
10 6 1 18 -2 27 -5z m-64 -18 c-6 -6 -10 -22 -10 -37 0 -15 -3 -30 -8 -33 -4
-2 -7 15 -7 38 0 33 4 42 17 42 12 0 14 -4 8 -10z m118 -3 c-6 -7 -12 -13 -13
-13 -2 0 -5 6 -8 13 -3 7 3 13 14 13 13 0 15 -3 7 -13z m-200 -131 c96 -4 112
-6 112 -15 0 -5 6 -4 14 3 9 6 13 23 11 40 -2 17 2 31 9 33 9 4 11 -2 8 -20
-3 -18 3 -32 22 -49 14 -14 26 -29 26 -34 0 -6 7 -10 15 -10 8 0 15 4 15 9 0
5 7 12 16 15 8 3 12 2 9 -4 -3 -6 1 -10 9 -10 9 0 16 4 16 9 0 5 7 11 14 14
11 4 13 1 9 -10 -5 -12 -3 -14 7 -8 10 6 12 1 7 -23 -4 -17 -2 -34 3 -37 5 -3
7 0 4 8 -3 8 3 20 13 28 16 13 17 12 5 -2 -7 -9 -12 -21 -11 -25 1 -5 1 -18 0
-29 -1 -17 -3 -18 -12 -5 -9 12 -10 12 -5 -4 4 -12 -3 -31 -20 -54 -15 -19
-21 -33 -13 -30 20 6 65 91 91 170 25 77 35 84 17 12 -35 -143 -95 -222 -201
-267 -59 -25 -88 -26 -170 -7 -62 14 -64 16 -126 125 -32 56 -66 155 -56 164
2 2 4 -1 4 -6 0 -6 11 -10 25 -9 13 2 22 -1 19 -5 -3 -5 -1 -9 4 -9 14 0 9
-33 -7 -46 -11 -9 -10 -17 8 -52 12 -23 26 -42 31 -42 6 0 3 12 -7 26 -14 22
-14 29 -4 46 7 11 8 17 2 13 -15 -9 -14 8 2 24 6 8 7 11 1 8 -7 -4 -11 6 -11
28 0 19 4 32 9 29 5 -4 7 -12 4 -20 -7 -19 7 -25 21 -8 8 8 9 15 3 19 -6 4 -8
11 -5 16 4 5 1 9 -4 9 -6 0 -11 9 -11 21 0 11 -4 18 -9 15 -5 -4 -7 3 -4 14 5
19 6 19 18 3 7 -10 11 -21 9 -25 -3 -4 2 -5 10 -2 9 3 17 18 18 33 1 14 3 5 5
-20 4 -42 6 -46 31 -47z m-178 33 c0 -5 -5 -3 -10 5 -5 8 -10 20 -10 25 0 6 5
3 10 -5 5 -8 10 -19 10 -25z m445 -24 c10 -17 -12 -21 -25 -6 -10 12 -10 15 3
15 9 0 18 -4 22 -9z m21 -277 c-50 -47 -110 -74 -167 -74 -57 0 -109 10 -109
21 0 4 15 3 32 -2 79 -22 183 7 239 67 13 13 27 24 33 24 6 0 -7 -16 -28 -36z
m17 -39 c-3 -9 -8 -14 -10 -11 -3 3 -2 9 2 15 9 16 15 13 8 -4z m-303 -11 c0
-2 -7 -4 -15 -4 -8 0 -15 4 -15 10 0 5 7 7 15 4 8 -4 15 -8 15 -10z m291 -54
c-5 -28 -8 -31 -14 -16 -5 12 -13 16 -25 12 -9 -4 -3 4 13 18 17 13 31 23 32
23 1 -1 -2 -18 -6 -37z"/>
<path d="M5890 3843 c0 -13 5 -23 10 -23 13 0 13 11 0 30 -8 12 -10 11 -10 -7z"/>
<path d="M5790 3840 c0 -5 5 -10 10 -10 6 0 10 5 10 10 0 6 -4 10 -10 10 -5 0
-10 -4 -10 -10z"/>
<path d="M5917 3830 c3 -11 9 -20 14 -20 11 0 11 3 3 24 -9 23 -23 20 -17 -4z"/>
<path d="M5831 3675 c1 -40 1 -40 10 -10 5 18 5 33 -1 39 -7 7 -10 -4 -9 -29z"/>
<path d="M6117 1364 c-8 -8 1 -24 14 -24 5 0 9 7 9 15 0 15 -12 20 -23 9z"/>
<path d="M5700 1080 c0 -6 4 -10 10 -10 5 0 7 -8 4 -17 -5 -15 -4 -16 5 -3 14
20 14 27 -4 34 -8 3 -15 1 -15 -4z"/>
<path d="M5943 823 c9 -2 25 -2 35 0 9 3 1 5 -18 5 -19 0 -27 -2 -17 -5z"/>
<path d="M3271 1688 c-1 -15 4 -30 9 -33 12 -7 12 12 0 40 -8 18 -9 17 -9 -7z"/>
<path d="M3300 1479 c0 -11 4 -18 10 -14 5 3 7 12 3 20 -7 21 -13 19 -13 -6z"/>
<path d="M6250 779 c-25 -22 -36 -36 -25 -30 19 9 84 71 74 71 -2 0 -24 -19
-49 -41z"/>
</g>
</svg>
