<?xml version="1.0" standalone="no"?>
<!DOCTYPE svg PUBLIC "-//W3C//DTD SVG 20010904//EN"
 "http://www.w3.org/TR/2001/REC-SVG-20010904/DTD/svg10.dtd">
<svg version="1.0" xmlns="http://www.w3.org/2000/svg"
 width="990.000000pt" height="630.000000pt" viewBox="0 0 990.000000 630.000000"
 preserveAspectRatio="xMidYMid meet">

<g transform="translate(0.000000,630.000000) scale(0.100000,-0.100000)"
fill="#000000" stroke="none">
<path d="M5659 5696 c-2 -2 -35 -6 -72 -9 -37 -3 -75 -11 -83 -18 -8 -6 -18
-9 -21 -5 -4 4 -1 11 7 16 24 15 2 12 -29 -4 -15 -8 -39 -30 -53 -48 -24 -33
-124 -192 -147 -235 -26 -49 -1 -18 59 72 34 52 64 95 65 95 1 0 3 -12 3 -26
0 -17 -3 -22 -9 -13 -5 9 -9 6 -13 -12 -4 -22 -16 -88 -18 -106 0 -5 -9 -14
-18 -20 -27 -19 -74 -101 -95 -163 -10 -30 -30 -71 -45 -90 -27 -36 -120 -245
-146 -329 -8 -25 -17 -87 -21 -137 -5 -73 -3 -98 10 -123 9 -18 19 -53 23 -79
8 -60 49 -163 84 -216 15 -23 48 -72 73 -111 42 -65 76 -107 179 -227 64 -75
93 -118 133 -198 21 -41 45 -84 54 -94 15 -18 15 -18 -6 -7 -12 6 -38 31 -58
56 -21 25 -41 43 -45 40 -4 -3 -27 24 -50 60 -23 36 -74 100 -112 142 -92 103
-200 256 -261 368 -27 49 -53 95 -59 100 -20 19 1 -84 34 -163 34 -82 43 -129
21 -110 -10 8 -11 4 -2 -21 6 -18 9 -44 6 -59 -3 -15 1 -38 8 -52 17 -29 19
-44 6 -36 -5 3 -8 -20 -7 -54 3 -58 2 -60 -16 -43 -10 9 -37 53 -59 97 l-41
81 5 -60 c5 -62 59 -201 74 -192 5 3 21 -14 36 -36 l29 -42 -32 35 c-31 35
-31 35 6 -25 20 -33 47 -76 60 -95 13 -19 24 -38 24 -41 0 -6 -98 -39 -192
-65 -9 -3 -39 12 -70 35 -29 23 -73 51 -98 63 -25 13 -47 25 -50 28 -3 3 -14
5 -25 5 -11 0 -19 5 -18 11 1 8 -6 10 -19 6 -12 -3 -19 -1 -15 4 3 6 -6 11
-20 12 -14 1 -32 7 -40 13 -7 7 -16 9 -20 6 -3 -4 -11 -3 -17 2 -17 14 -136
40 -136 30 0 -5 10 -9 23 -10 12 0 16 -3 9 -6 -16 -6 -6 -23 14 -23 8 0 12 5
9 10 -3 6 1 10 9 10 9 0 13 -6 10 -13 -3 -10 16 -21 62 -36 37 -12 80 -31 96
-42 15 -11 32 -18 37 -14 6 3 15 -4 21 -15 6 -11 17 -20 25 -20 27 0 16 -17
-15 -23 -34 -7 -61 -46 -105 -151 -27 -64 -57 -117 -108 -190 -11 -16 -40 -70
-64 -120 -25 -50 -66 -116 -92 -146 -26 -30 -54 -66 -61 -79 -7 -14 -21 -34
-31 -45 -10 -10 -31 -38 -46 -60 -15 -23 -47 -62 -70 -88 -24 -26 -43 -51 -43
-56 0 -5 -18 -29 -41 -53 -22 -24 -53 -62 -67 -84 -48 -72 -112 -157 -112
-149 0 4 -15 -15 -34 -42 -19 -27 -41 -56 -48 -64 -7 -8 -12 -19 -10 -24 2 -4
-4 -6 -12 -3 -11 5 -15 0 -13 -15 1 -14 -4 -22 -17 -24 -10 -1 -22 -8 -26 -15
-4 -6 -13 -8 -19 -5 -6 4 -11 1 -11 -7 0 -14 -22 -29 -45 -31 -5 -1 -11 -8
-11 -16 -3 -32 -6 -34 -14 -15 -8 18 -9 18 -10 -5 -1 -14 -4 -19 -7 -12 -9 23
-23 12 -18 -15 5 -26 5 -27 -5 -5 -9 21 -12 22 -25 8 -8 -8 -15 -19 -15 -25 0
-5 -5 -13 -11 -17 -8 -4 -9 1 -5 17 7 24 7 24 -9 4 -9 -11 -21 -19 -26 -18 -5
2 -9 -5 -9 -15 0 -10 -3 -13 -8 -6 -11 16 -52 12 -52 -5 0 -11 -4 -10 -16 5
-15 19 -15 18 -11 -3 3 -13 1 -26 -4 -29 -5 -3 -9 3 -9 13 0 15 -2 16 -10 3
-9 -13 -12 -13 -21 3 -12 21 -29 22 -29 3 0 -8 -4 -18 -10 -21 -5 -3 -7 0 -4
9 4 10 0 14 -15 13 -12 -1 -21 -6 -22 -12 0 -5 -4 -1 -9 10 -7 17 -9 17 -9 3
-1 -10 -5 -18 -11 -18 -9 0 -14 14 -11 33 1 4 -9 2 -21 -5 -13 -7 -26 -11 -30
-10 -4 1 -5 -5 -2 -13 5 -11 2 -13 -10 -9 -12 5 -15 2 -10 -10 4 -11 -2 -19
-21 -26 -33 -13 -38 -13 -30 0 3 6 1 10 -4 10 -6 0 -11 -5 -11 -11 0 -5 -5 -7
-10 -4 -6 4 -17 2 -25 -5 -8 -6 -22 -11 -32 -10 -10 1 -20 1 -23 0 -3 -1 -21
-3 -41 -4 -20 -2 -40 -6 -46 -9 -5 -3 -34 -7 -64 -8 -30 -1 -57 -7 -61 -13 -5
-8 -8 -7 -8 1 0 9 -7 10 -25 3 -14 -5 -25 -7 -25 -4 0 2 -12 -2 -27 -9 -16 -8
-34 -12 -41 -10 -7 3 -20 2 -30 -2 -9 -4 -33 -9 -52 -10 -19 -2 -36 -4 -37 -5
-2 -1 -11 -3 -20 -5 -18 -2 -34 -7 -81 -26 -30 -12 -35 -11 -26 3 6 9 3 9 -9
0 -9 -8 -31 -16 -49 -19 -18 -3 -41 -9 -50 -14 -10 -5 -18 -7 -18 -5 0 3 -17
-1 -38 -8 -21 -8 -65 -17 -97 -20 -33 -4 -91 -11 -130 -16 -38 -6 -79 -10 -90
-9 -11 0 -37 -2 -57 -6 -26 -5 -48 -3 -70 8 -67 31 -103 44 -115 40 -14 -5
-43 35 -43 59 0 18 124 118 146 118 7 0 15 7 18 16 4 9 9 14 13 11 3 -4 11 -2
18 3 12 10 136 76 145 77 47 8 80 17 80 23 0 4 18 6 40 5 22 -1 37 2 34 6 -3
5 12 10 33 10 46 1 86 5 93 8 6 3 98 8 276 15 72 3 135 6 140 7 5 2 32 -1 59
-5 28 -4 53 -6 56 -4 3 2 13 -3 22 -11 11 -8 17 -9 17 -3 0 6 6 9 14 6 8 -3
17 0 21 5 3 6 11 9 16 5 5 -3 16 -1 23 5 7 6 21 9 30 5 12 -5 15 -2 10 9 -5
13 0 15 21 11 17 -3 24 -1 20 6 -3 5 -1 10 4 10 6 0 11 9 11 19 0 10 6 19 13
18 33 -1 47 4 47 19 0 17 78 94 95 94 12 0 195 117 210 134 5 7 30 25 54 41
56 38 72 63 73 115 0 48 22 79 62 86 78 14 210 95 237 146 14 27 -18 68 -75
96 -30 15 -46 30 -46 42 0 10 -4 22 -10 25 -18 11 -10 59 14 89 23 27 26 28
55 16 17 -7 52 -26 78 -43 105 -69 109 -71 128 -63 26 10 18 64 -16 106 -43
54 -170 116 -202 99 -12 -6 3 14 33 45 30 31 61 56 70 56 13 0 13 -2 0 -10 -8
-5 -11 -12 -7 -16 3 -4 15 -1 24 7 10 7 -2 -8 -27 -34 -24 -26 -39 -47 -33
-47 7 0 16 6 20 13 4 6 20 23 35 36 25 22 29 23 50 9 41 -26 157 -68 188 -68
43 0 49 25 14 62 -38 39 -108 88 -128 88 -26 0 -18 14 37 67 49 47 54 50 72
36 11 -9 53 -31 93 -49 72 -33 125 -43 137 -25 8 15 -51 96 -101 139 l-45 38
46 41 c25 23 50 45 55 48 6 4 42 -15 81 -42 69 -47 128 -82 140 -83 4 0 10 7
13 16 9 24 -34 76 -109 133 -36 26 -62 51 -58 55 10 9 25 7 18 -3 -3 -6 9 -5
30 0 19 6 40 7 45 4 15 -9 12 3 -6 24 -12 13 -22 17 -33 11 -44 -22 -78 -33
-96 -31 -17 1 -17 -1 5 -14 l25 -16 -25 7 c-14 3 -30 13 -37 21 -13 16 -93 43
-130 43 -22 0 -24 3 -18 29 8 38 -17 49 -35 15 -9 -15 -22 -24 -37 -24 -59 0
-134 -56 -137 -103 -1 -22 -7 -26 -44 -30 -26 -3 -53 -14 -68 -28 -27 -26 -46
-82 -38 -115 7 -26 37 -37 55 -20 7 6 2 -4 -10 -22 -12 -18 -26 -30 -31 -27
-5 3 -11 1 -15 -5 -3 -5 -31 -10 -61 -10 -41 0 -59 -5 -74 -20 -31 -31 -24
-90 11 -90 18 0 18 -2 -4 -37 -21 -34 -30 -39 -76 -44 -86 -11 -98 -17 -110
-50 -15 -43 -14 -46 12 -54 21 -7 21 -7 2 -12 -11 -3 -38 -22 -60 -42 -22 -21
-62 -54 -90 -74 -70 -50 -124 -107 -101 -107 9 0 31 7 47 16 17 8 36 13 42 11
6 -2 -20 -21 -58 -42 -85 -47 -232 -142 -240 -155 -9 -14 -2 -13 125 20 63 17
127 40 143 51 15 11 27 15 27 9 0 -5 -4 -10 -10 -10 -5 0 -10 -5 -10 -10 0 -6
17 -8 43 -5 23 2 34 2 23 -1 -29 -9 -138 -81 -168 -111 -15 -15 -78 -55 -141
-88 -155 -83 -177 -97 -177 -118 0 -36 -35 -57 -138 -82 -40 -9 -75 -21 -78
-27 -11 -18 -60 -31 -144 -38 -203 -18 -379 -43 -470 -68 -93 -25 -285 -118
-362 -175 -135 -101 -238 -231 -238 -304 0 -35 30 -101 48 -106 10 -3 4 -5
-13 -6 -31 -1 -95 -34 -95 -49 0 -4 5 -13 12 -20 14 -14 -1 -16 -22 -3 -23 15
-33 1 -14 -20 9 -10 13 -19 7 -19 -12 0 -11 -30 2 -50 5 -8 8 -25 7 -36 -2
-12 4 -24 12 -27 9 -4 16 -12 16 -19 0 -8 -3 -9 -8 -3 -4 6 -16 11 -27 13 -43
7 20 -26 90 -47 95 -28 176 -40 335 -47 116 -6 221 -20 168 -23 -19 -1 -149
-70 -159 -84 -3 -5 -9 -8 -13 -8 -20 3 -26 0 -20 -11 4 -7 4 -10 -1 -6 -11 11
-47 -11 -39 -24 4 -6 3 -8 -4 -5 -14 9 -43 -3 -36 -14 3 -5 -1 -6 -9 -3 -8 3
-20 -3 -28 -12 -12 -15 -12 -16 7 -10 13 4 26 1 33 -7 18 -23 377 -22 701 3
619 46 1396 133 1825 205 359 61 589 143 758 272 83 64 246 144 362 177 50 15
102 30 117 35 19 6 47 5 85 -4 57 -14 60 -13 163 22 101 34 111 35 247 35 166
0 148 -18 159 166 5 95 4 122 -6 122 -7 0 -10 8 -7 20 3 10 -2 25 -10 31 -8 7
-19 21 -25 32 -6 11 37 -20 95 -69 126 -107 234 -186 358 -261 172 -104 449
-253 717 -387 233 -117 373 -180 812 -364 284 -119 612 -176 800 -138 113 23
203 69 249 126 28 35 30 40 8 21 -29 -26 -33 -19 -16 26 8 23 8 26 -2 15 -7
-6 -17 -12 -21 -12 -5 0 7 14 26 30 57 51 79 109 74 192 -3 38 -11 75 -17 81
-8 8 -11 6 -11 -8 0 -23 -35 -84 -59 -103 -20 -16 -108 -62 -118 -62 -4 0 12
12 37 27 25 14 53 33 63 42 56 48 82 188 54 297 -31 120 -130 306 -250 466
-51 69 -89 113 -346 403 -168 190 -294 373 -741 1085 -68 107 -149 233 -180
280 -119 176 -242 398 -239 428 3 32 -1 41 -20 47 -10 3 -27 24 -37 48 -10 23
-34 59 -53 80 -19 21 -31 40 -28 44 4 3 9 -2 13 -11 3 -9 10 -16 15 -16 5 0 3
13 -6 30 -8 16 -15 37 -15 48 0 10 -11 28 -25 40 -29 25 -88 139 -80 152 4 6
2 10 -4 10 -6 0 -8 6 -5 13 8 21 -22 40 -50 33 -14 -3 -33 -20 -43 -36 -10
-18 -25 -30 -38 -29 -19 0 -19 1 2 9 12 5 27 18 33 29 10 20 8 21 -49 21 -69
0 -180 31 -234 66 -21 14 -42 22 -47 19 -5 -3 -12 0 -16 6 -5 8 -2 10 7 5 20
-11 -14 17 -127 104 -54 41 -103 74 -109 72 -7 -1 -20 8 -31 20 -19 22 -19 23
1 9 11 -7 -11 16 -50 52 -38 36 -72 64 -76 62 -3 -3 -15 3 -25 11 -10 9 -12
12 -4 8 9 -4 12 -3 7 2 -5 5 -12 9 -16 9 -4 0 -70 56 -146 125 -190 172 -280
245 -342 280 -55 32 -57 32 -64 26z m-215 -61 c-4 -8 -11 -15 -16 -15 -6 0 -5
6 2 15 7 8 14 15 16 15 2 0 1 -7 -2 -15z m307 -27 c24 -15 102 -79 174 -143
71 -64 153 -135 182 -158 52 -42 68 -65 37 -53 -12 4 -15 2 -11 -9 4 -8 2 -17
-2 -20 -12 -6 -22 21 -15 39 3 8 0 17 -7 22 -8 4 -10 3 -5 -4 4 -7 1 -12 -6
-12 -16 0 -41 37 -33 50 4 6 -3 10 -14 10 -12 0 -21 7 -21 15 0 8 -7 15 -15
15 -8 0 -15 7 -15 15 0 8 -7 15 -16 15 -8 0 -13 4 -9 9 11 19 -17 22 -37 4
-12 -10 -18 -13 -15 -6 4 7 0 14 -11 17 -24 8 -104 81 -96 89 3 3 12 3 20 0 8
-3 14 0 14 7 0 8 -9 11 -25 8 -20 -4 -23 -2 -15 7 7 9 7 15 1 19 -5 4 -13 -4
-17 -16 l-7 -22 -23 27 c-13 15 -27 27 -32 27 -6 0 -12 7 -16 15 -5 13 -1 13
31 0 50 -21 53 -19 12 9 -84 57 -211 60 -273 7 -21 -19 -58 -85 -67 -121 -4
-15 -6 0 -6 35 0 32 2 54 5 47 6 -19 18 -14 30 13 6 13 28 36 49 50 35 23 46
25 124 22 71 -2 93 -7 130 -29z m-335 -25 c-10 -10 -19 5 -10 18 6 11 8 11 12
0 2 -7 1 -15 -2 -18z m46 -363 c11 -47 24 -95 29 -107 5 -14 5 -23 -1 -23 -6
0 -10 2 -10 5 0 2 -11 48 -25 102 -14 54 -24 109 -24 123 1 20 2 21 6 5 2 -11
13 -58 25 -105z m733 11 c10 -17 -11 -21 -31 -6 -18 14 -18 14 3 15 12 0 24
-4 28 -9z m160 -100 c-3 -3 -29 19 -58 48 l-52 54 57 -48 c32 -27 55 -51 53
-54z m-130 59 c3 -5 1 -10 -4 -10 -6 0 -11 5 -11 10 0 6 2 10 4 10 3 0 8 -4
11 -10z m85 -70 c0 -5 -4 -10 -10 -10 -5 0 -10 5 -10 10 0 6 5 10 10 10 6 0
10 -4 10 -10z m235 -137 c67 -52 88 -70 65 -58 -25 14 -123 91 -165 130 l-40
37 40 -31 c22 -17 67 -52 100 -78z m-1030 46 c9 -28 15 -53 12 -56 -3 -3 -11
14 -17 37 -6 23 -14 48 -17 56 -3 8 -3 14 0 14 3 0 13 -23 22 -51z m875 21 c0
-5 -2 -10 -4 -10 -3 0 -8 5 -11 10 -3 6 -1 10 4 10 6 0 11 -4 11 -10z m30 -20
c0 -5 -2 -10 -4 -10 -3 0 -8 5 -11 10 -3 6 -1 10 4 10 6 0 11 -4 11 -10z m30
-30 c0 -5 -2 -10 -4 -10 -3 0 -8 5 -11 10 -3 6 -1 10 4 10 6 0 11 -4 11 -10z
m-874 -147 c-4 -4 -46 92 -45 104 0 4 11 -16 25 -46 13 -30 23 -56 20 -58z
m964 77 c0 -5 -2 -10 -4 -10 -3 0 -8 5 -11 10 -3 6 -1 10 4 10 6 0 11 -4 11
-10z m-943 -72 c-3 -8 -6 -5 -6 6 -1 11 2 17 5 13 3 -3 4 -12 1 -19z m422 -17
c54 -37 137 -120 184 -183 12 -16 24 -28 28 -28 4 0 28 17 53 38 55 46 153 96
220 113 47 12 50 11 68 -11 19 -24 19 -24 -4 -34 -13 -5 -27 -10 -33 -11 -21
-3 -129 -52 -163 -73 -15 -10 -19 -17 -12 -22 7 -4 -12 -11 -42 -15 -62 -9
-71 -11 -78 -15 -3 -1 -21 -3 -40 -4 -19 -2 -84 -17 -145 -33 -139 -39 -194
-47 -244 -33 -44 12 -103 71 -136 137 -11 21 -24 41 -30 45 -6 5 -6 8 -1 8 6
0 1 7 -10 15 -12 9 -14 14 -6 15 7 0 10 5 7 10 -4 6 -11 8 -16 5 -5 -3 -6 2
-2 11 4 10 2 15 -4 11 -6 -4 -10 7 -10 25 0 27 2 28 13 14 9 -13 13 -14 17 -4
4 11 8 11 26 0 22 -13 41 -9 41 8 0 5 -8 10 -17 12 -16 3 -15 5 4 16 13 7 30
9 44 4 14 -5 34 -4 51 2 24 9 45 5 134 -25 58 -20 107 -32 109 -28 3 4 -14 21
-37 38 -60 44 -38 38 31 -8z m-379 19 c0 -5 -8 -10 -17 -10 -15 0 -16 2 -3 10
19 12 20 12 20 0z m581 -56 c-6 -28 -9 -32 -10 -14 -1 30 11 79 16 64 2 -6 -1
-28 -6 -50z m439 36 c0 -5 -2 -10 -4 -10 -3 0 -8 5 -11 10 -3 6 -1 10 4 10 6
0 11 -4 11 -10z m133 -45 c20 -8 51 -16 69 -16 31 -2 31 -2 -7 -8 -22 -3 -42
-4 -45 0 -3 3 -23 13 -45 22 -22 9 -33 16 -24 16 9 1 33 -6 52 -14z m-628 -55
c10 -11 16 -20 13 -20 -3 0 -13 9 -23 20 -10 11 -16 20 -13 20 3 0 13 -9 23
-20z m50 11 c3 -5 1 -12 -5 -16 -5 -3 -10 1 -10 9 0 18 6 21 15 7z m789 -75
c9 -27 14 -51 12 -53 -4 -4 -20 37 -37 91 -15 49 7 15 25 -38z m-384 14 c12
-23 31 -45 43 -49 12 -5 46 -28 75 -51 l54 -42 50 17 c28 9 52 14 55 12 2 -3
-25 -15 -61 -27 -70 -23 -93 -18 -112 23 -5 11 -22 30 -37 41 -26 19 -41 21
-168 19 -76 -1 -139 1 -139 3 0 10 188 91 217 94 2 0 12 -18 23 -40z m-40 -82
c0 -4 -6 -8 -14 -8 -8 0 -17 4 -20 8 -2 4 4 8 15 8 10 0 19 -4 19 -8z m-108
-10 c-9 -9 -15 -9 -24 0 -9 9 -7 12 12 12 19 0 21 -3 12 -12z m55 6 c-3 -3
-12 -4 -19 -1 -8 3 -5 6 6 6 11 1 17 -2 13 -5z m93 -4 c0 -5 -2 -10 -4 -10 -3
0 -8 5 -11 10 -3 6 -1 10 4 10 6 0 11 -4 11 -10z m366 1 c-8 -12 -46 -21 -46
-11 0 5 10 11 23 13 12 2 23 5 25 6 2 0 1 -3 -2 -8z m-563 -8 c-7 -2 -21 -2
-30 0 -10 3 -4 5 12 5 17 0 24 -2 18 -5z m217 -15 c8 -2 22 -11 31 -21 10 -10
24 -15 35 -11 16 5 16 4 4 -5 -13 -9 -13 -12 -1 -20 11 -7 9 -11 -8 -20 -13
-7 -21 -8 -21 -2 0 17 -30 0 -31 -18 0 -10 -2 -11 -6 -4 -3 10 -10 10 -24 2
-11 -5 -16 -15 -13 -21 4 -7 3 -8 -4 -4 -6 4 -22 2 -34 -5 -12 -7 -40 -14 -62
-16 -47 -4 -47 -3 -40 -30 4 -15 11 -20 22 -15 15 5 15 3 4 -10 -11 -14 -10
-19 12 -33 25 -17 27 -16 93 25 36 24 85 51 106 60 47 21 54 17 83 -52 24 -59
50 -95 61 -85 4 5 0 14 -9 21 -10 7 -15 15 -12 19 5 4 -13 44 -26 57 -11 11
-30 51 -30 62 0 14 39 -31 40 -46 0 -4 14 -28 31 -53 31 -47 32 -73 4 -73 -9
0 -13 -4 -10 -10 3 -5 0 -7 -7 -5 -7 3 -38 -10 -68 -29 -30 -19 -72 -42 -92
-51 -47 -21 -53 -40 -23 -72 l24 -27 103 51 c96 47 128 55 128 31 0 -5 11 -24
24 -41 13 -18 31 -47 40 -64 l16 -33 -64 -29 c-36 -16 -80 -29 -100 -28 -22 1
-43 -6 -56 -18 -23 -21 -23 -60 0 -60 8 0 21 -8 28 -17 7 -10 19 -18 25 -18
12 0 17 2 130 64 62 34 108 42 92 17 -3 -5 0 -13 6 -17 6 -3 15 0 20 7 6 11
11 11 21 1 9 -9 9 -12 -5 -12 -9 0 -17 -6 -17 -13 0 -22 12 -28 29 -14 12 9
11 7 -2 -13 -22 -32 -21 -40 6 -41 17 0 18 -2 6 -7 -21 -9 -7 -52 16 -52 8 0
15 -4 15 -10 0 -5 8 -10 18 -10 14 0 15 -2 2 -10 -10 -6 -16 -6 -18 0 -6 17
-22 11 -22 -7 0 -13 -3 -14 -8 -6 -6 10 -20 8 -61 -7 -47 -18 -54 -19 -67 -5
-20 20 -30 19 -55 -6 -22 -22 -21 -56 2 -51 11 3 12 1 2 -9 -14 -14 -18 -48
-5 -50 60 -9 73 -7 101 17 46 39 145 86 150 71 2 -6 9 -15 15 -19 7 -5 -6 -25
-36 -55 -32 -33 -53 -66 -65 -103 -15 -44 -26 -60 -61 -83 -56 -38 -74 -66
-66 -105 9 -43 38 -50 77 -21 34 25 92 29 194 14 40 -6 56 -4 74 9 32 22 37
20 31 -9 -2 -14 -8 -25 -12 -25 -13 0 -99 -93 -94 -102 8 -13 87 -9 144 8 48
14 56 14 96 -1 34 -13 45 -24 58 -56 9 -22 16 -50 16 -62 0 -13 19 -52 43 -87
24 -36 72 -108 107 -160 35 -52 76 -124 91 -160 28 -67 81 -140 102 -140 14 0
94 -70 81 -70 -5 0 7 -14 26 -31 19 -17 28 -27 20 -23 -11 5 -10 2 3 -13 10
-11 61 -42 115 -69 53 -27 99 -52 102 -56 9 -12 115 -62 126 -60 6 1 17 -5 24
-13 7 -8 16 -15 21 -15 24 0 138 -86 144 -107 3 -13 18 -31 34 -41 15 -9 26
-23 24 -29 -3 -7 0 -13 6 -13 6 0 11 -5 11 -11 0 -16 47 -69 54 -62 3 4 6 2 7
-3 4 -41 7 -55 14 -61 4 -5 5 1 2 12 -7 19 -6 19 7 2 8 -11 12 -26 9 -35 -5
-12 -2 -14 11 -9 10 4 15 3 11 -3 -3 -6 -1 -10 4 -10 6 0 11 -7 11 -16 0 -8
-4 -12 -10 -9 -5 3 -10 1 -10 -4 0 -6 7 -11 16 -11 14 0 14 -3 4 -15 -11 -13
-15 -13 -21 -3 -6 9 -9 7 -9 -7 0 -12 6 -27 13 -34 8 -10 9 -12 0 -7 -12 6
-37 -27 -27 -36 2 -3 -2 -18 -11 -34 -12 -23 -15 -25 -15 -9 0 16 -3 14 -16
-10 -9 -16 -17 -36 -18 -44 -2 -8 -12 -15 -24 -16 -12 -1 -19 2 -16 6 2 4 -9
14 -26 23 -17 8 -28 11 -25 6 7 -12 -53 -4 -105 14 -24 8 -56 12 -69 9 -19 -5
-23 -3 -18 10 8 20 -3 29 -20 16 -10 -9 -13 -8 -13 4 0 9 -9 19 -20 22 -11 4
-18 10 -15 15 7 11 -29 7 -37 -5 -5 -6 -8 -5 -8 3 0 7 -6 12 -12 11 -24 -3
-35 1 -58 21 -13 11 -29 20 -37 20 -7 0 -13 4 -13 10 0 9 -107 75 -122 75 -4
0 -13 6 -19 13 -7 6 -18 12 -25 12 -6 0 -17 6 -23 13 -6 8 -32 24 -58 36 -27
13 -57 28 -68 34 -36 20 -100 51 -105 52 -3 0 -16 7 -30 15 -14 8 -37 21 -52
30 -75 42 -124 75 -136 92 -7 10 -19 18 -26 18 -7 0 -22 9 -34 21 -12 11 -27
17 -32 14 -6 -3 -7 1 -4 9 4 10 1 16 -9 16 -9 0 -20 6 -24 13 -4 7 -19 20 -33
29 -14 9 -40 30 -58 47 -18 17 -35 31 -37 31 -14 0 -210 192 -225 220 -6 12
-15 18 -19 16 -9 -6 -114 107 -174 187 -47 62 -100 174 -117 247 -16 70 -73
191 -120 255 -20 28 -48 75 -63 105 -24 50 -27 66 -27 180 -1 69 -2 157 -3
197 -1 39 1 66 5 60 5 -8 8 -5 8 7 0 17 25 45 42 46 4 0 1 -12 -7 -27 -18 -35
-10 -43 17 -16 12 13 21 35 21 52 0 17 5 28 10 24 14 -8 1 67 -13 81 -8 8 -9
5 -4 -9 5 -13 -1 -9 -16 10 -13 17 -41 49 -62 72 -21 24 -38 50 -38 58 0 9
-10 29 -21 45 -15 19 -20 38 -17 59 2 17 2 29 0 26 -10 -10 -64 123 -67 166
-1 25 -13 63 -25 85 -17 29 -21 48 -16 67 6 27 36 38 36 15 0 -9 3 -9 9 1 17
26 216 46 291 29z m-350 -28 c0 -5 -8 -10 -17 -10 -15 0 -16 2 -3 10 19 12 20
12 20 0z m812 -119 c15 -41 25 -77 23 -79 -3 -3 -7 4 -11 14 -4 10 -20 52 -35
92 -16 41 -29 77 -29 80 1 14 25 -36 52 -107z m-257 -20 c22 -38 41 -68 43
-66 2 2 -13 31 -32 66 -20 34 -35 63 -33 66 10 9 97 -155 91 -171 -5 -13 -9
-14 -20 -5 -8 6 -14 15 -14 20 0 5 -15 30 -33 56 -37 53 -61 103 -49 103 4 0
25 -31 47 -69z m215 -81 c-8 -5 -24 -9 -35 -9 l-20 0 20 9 c11 5 27 9 35 9 13
1 13 0 0 -9z m-60 -9 c0 -5 -11 -12 -24 -15 -13 -3 -32 -8 -43 -11 -10 -3 0 3
22 14 49 24 45 23 45 12z m-180 -71 c0 -5 -5 -10 -11 -10 -5 0 -7 5 -4 10 3 6
8 10 11 10 2 0 4 -4 4 -10z m376 -77 c-4 -4 -36 73 -35 85 0 4 9 -13 20 -37
11 -24 18 -46 15 -48z m-168 -36 c18 -32 27 -55 21 -51 -9 5 -10 2 -6 -10 12
-31 -13 -6 -33 35 -11 21 -26 39 -32 39 -6 0 -8 3 -5 6 3 4 -3 18 -13 32 -11
13 -20 29 -20 34 0 18 21 -4 41 -44 11 -22 22 -38 25 -35 2 2 -7 26 -21 53
-34 65 1 17 43 -59z m-70 17 c18 -31 32 -60 32 -65 0 -5 4 -9 9 -9 5 0 11 -9
14 -20 3 -13 0 -20 -10 -20 -8 0 -12 4 -8 9 3 6 0 13 -7 18 -7 4 -20 22 -28
38 -8 17 -19 33 -25 37 -5 4 -10 11 -10 15 -1 4 -6 18 -13 31 -10 18 -10 22 1
22 7 0 27 -25 45 -56z m261 -26 c6 -18 7 -28 2 -23 -10 12 -25 55 -18 55 3 0
10 -15 16 -32z m-89 -68 c-20 -13 -33 -13 -25 0 3 6 14 10 23 10 15 0 15 -2 2
-10z m-75 -20 c-3 -5 -12 -10 -18 -10 -7 0 -6 4 3 10 19 12 23 12 15 0z m-35
-14 c0 -3 -4 -8 -10 -11 -5 -3 -10 -1 -10 4 0 6 5 11 10 11 6 0 10 -2 10 -4z
m88 -62 c7 -15 17 -22 24 -18 7 4 8 3 4 -4 -4 -6 -2 -22 5 -34 10 -18 6 -17
-17 7 -17 17 -28 33 -27 37 2 4 -1 9 -7 13 -12 7 -13 25 -2 25 5 0 14 -12 20
-26z m-38 2 c0 -11 -19 -15 -25 -6 -3 5 1 10 9 10 9 0 16 -2 16 -4z m173 -250
c4 -10 1 -13 -9 -9 -7 3 -14 9 -14 14 0 14 17 10 23 -5z m-2848 -26 c-3 -5
-14 -10 -23 -10 -15 0 -15 2 -2 10 20 13 33 13 25 0z m1000 -46 c9 -20 14 -38
12 -41 -3 -2 -8 6 -12 19 -4 13 -17 37 -28 53 -14 20 -16 26 -5 17 9 -7 24
-29 33 -48z m1825 52 c0 -3 -4 -8 -10 -11 -5 -3 -10 -1 -10 4 0 6 5 11 10 11
6 0 10 -2 10 -4z m-3244 -21 c-11 -8 -25 -15 -30 -15 -6 0 -2 7 8 15 11 8 25
15 30 15 6 0 2 -7 -8 -15z m229 -7 c21 -9 23 -14 12 -26 -9 -13 -9 -14 1 -8 6
4 12 3 12 -2 0 -14 -118 -103 -124 -93 -3 4 3 16 14 26 12 11 16 21 10 25 -5
3 -21 28 -34 54 l-25 49 54 -7 c30 -3 66 -11 80 -18z m-184 -15 c-11 -21 -61
-70 -61 -60 0 7 60 77 66 77 3 0 0 -8 -5 -17z m-41 4 c0 -2 -11 -14 -25 -27
-14 -13 -25 -21 -25 -17 0 3 10 15 22 27 21 19 28 24 28 17z m371 -34 c13 -15
12 -15 -8 -4 -24 12 -29 21 -14 21 5 0 15 -7 22 -17z m286 11 c-3 -3 -12 -4
-19 -1 -8 3 -5 6 6 6 11 1 17 -2 13 -5z m-412 -50 c-53 -46 -84 -68 -91 -62
-6 7 107 98 121 98 6 -1 -8 -17 -30 -36z m165 16 c0 -5 -2 -10 -4 -10 -3 0 -8
5 -11 10 -3 6 -1 10 4 10 6 0 11 -4 11 -10z m-500 -36 c0 -15 -77 -94 -92 -94
-28 0 -23 47 8 75 24 22 84 36 84 19z m278 -81 c57 -43 27 -36 -37 8 -33 23
-61 44 -61 46 0 6 64 -29 98 -54z m3172 13 c0 -6 -103 -41 -112 -38 -5 1 -8
-2 -8 -7 0 -5 -15 -14 -32 -20 -29 -10 -31 -10 -18 3 28 28 170 80 170 62z
m-3502 -66 c-53 -60 -66 -72 -51 -46 10 18 92 106 99 106 3 0 -19 -27 -48 -60z
m367 -48 c-7 -7 -33 17 -57 52 -19 28 -17 27 20 -8 23 -22 40 -42 37 -44z
m-246 3 c-30 -30 -61 -55 -69 -55 -8 0 10 24 42 55 73 72 97 72 27 0z m81 40
c0 -7 -101 -100 -113 -104 -7 -2 13 22 43 53 48 50 70 66 70 51z m3307 -37
c-3 -8 -6 -5 -6 6 -1 11 2 17 5 13 3 -3 4 -12 1 -19z m53 8 c0 -2 -7 -7 -16
-10 -8 -3 -12 -2 -9 4 6 10 25 14 25 6z m-1786 -32 c3 -8 2 -12 -4 -9 -6 3
-10 10 -10 16 0 14 7 11 14 -7z m1759 -14 c3 -11 1 -18 -4 -14 -5 3 -9 12 -9
20 0 20 7 17 13 -6z m47 0 c13 -8 13 -10 -2 -10 -9 0 -20 5 -23 10 -8 13 5 13
25 0z m-3742 -6 c18 -5 20 -9 11 -20 -21 -26 -71 -11 -54 16 7 12 12 12 43 4z
m172 -14 c0 -5 -2 -10 -4 -10 -3 0 -8 5 -11 10 -3 6 -1 10 4 10 6 0 11 -4 11
-10z m3510 -10 c0 -5 -4 -10 -10 -10 -5 0 -10 5 -10 10 0 6 5 10 10 10 6 0 10
-4 10 -10z m-3385 -35 c43 -18 75 -44 55 -45 -9 0 -21 5 -27 11 -6 6 -33 22
-59 35 -49 24 -26 23 31 -1z m-250 5 c-55 -90 -97 -139 -63 -77 14 27 59 87
65 87 2 0 1 -5 -2 -10z m3675 -39 c0 -5 -10 -11 -22 -14 -22 -6 -22 -6 -4 8
23 17 26 18 26 6z m-3625 -111 l20 -9 -20 0 c-11 0 -27 4 -35 9 -13 9 -13 10
0 9 8 0 24 -4 35 -9z m-235 -4 c0 -2 -16 -6 -35 -8 -19 -2 -35 0 -35 4 0 4 16
8 35 8 19 0 35 -2 35 -4z m309 -32 c14 -12 -19 -1 -35 12 -18 14 -18 14 6 3
14 -6 27 -13 29 -15z m-290 -78 c-23 -42 -43 -75 -46 -72 -3 3 14 39 38 80 23
42 44 74 46 72 2 -2 -15 -38 -38 -80z m94 1 c-54 -71 -72 -91 -78 -86 -2 3 21
35 51 73 31 37 54 70 51 72 -3 3 -98 -108 -124 -145 -2 -2 -5 -2 -8 1 -14 14
120 159 140 152 11 -5 4 -21 -32 -67z m237 52 c0 -4 -7 -6 -15 -3 -8 4 -15 10
-15 15 0 4 7 6 15 3 8 -4 15 -10 15 -15z m-596 -151 c-10 -13 -20 -25 -21 -27
-2 -2 -3 1 -3 7 0 11 27 42 37 42 3 0 -2 -10 -13 -22z m381 -32 c6 -6 19 -13
30 -14 30 -5 38 -18 11 -17 -13 0 -32 7 -42 16 -11 9 -28 22 -39 28 -18 11
-18 11 5 5 14 -3 30 -11 35 -18z m2083 -27 c-3 -8 -7 -3 -11 10 -4 17 -3 21 5
13 5 -5 8 -16 6 -23z m-2238 -19 c0 -5 -5 -10 -11 -10 -5 0 -7 5 -4 10 3 6 8
10 11 10 2 0 4 -4 4 -10z m151 -48 c-13 -2 -28 2 -32 10 -16 25 -9 28 24 11
31 -17 31 -18 8 -21z m2122 -32 c3 -11 1 -18 -4 -14 -5 3 -9 12 -9 20 0 20 7
17 13 -6z m-2343 0 c0 -5 -2 -10 -4 -10 -3 0 -8 5 -11 10 -3 6 -1 10 4 10 6 0
11 -4 11 -10z m2328 -195 c-3 -3 -9 2 -12 12 -6 14 -5 15 5 6 7 -7 10 -15 7
-18z m122 -61 c0 -4 8 -14 18 -23 9 -9 30 -35 45 -58 83 -122 266 -275 512
-427 166 -103 187 -117 182 -122 -5 -5 -205 114 -300 177 -210 143 -360 287
-468 453 -42 64 -55 104 -14 44 14 -20 25 -40 25 -44z m-930 -605 c-47 -44
-117 -101 -155 -128 -66 -46 -252 -138 -261 -129 -2 3 40 25 94 50 95 44 243
147 347 242 84 76 65 50 -25 -35z m-1757 16 c-3 -9 -8 -14 -10 -11 -3 3 -2 9
2 15 9 16 15 13 8 -4z m3674 -161 c-5 -5 -195 92 -212 108 -5 6 41 -15 104
-47 62 -31 111 -58 108 -61z m-1870 -93 c-125 -122 -175 -166 -182 -160 -5 5
286 279 297 279 4 0 -48 -54 -115 -119z m1917 74 c11 -8 15 -15 10 -15 -6 0
-19 7 -30 15 -10 8 -14 14 -9 14 6 0 19 -6 29 -14z m106 -50 c7 -8 19 -15 28
-15 16 0 145 -63 170 -83 34 -27 -6 -12 -113 43 -128 65 -136 70 -113 70 9 0
21 -7 28 -15z m1264 -44 c-2 -3 -12 3 -22 13 -16 17 -16 18 5 5 12 -7 20 -15
17 -18z m-6874 -82 c0 -6 -4 -7 -10 -4 -5 3 -10 11 -10 16 0 6 5 7 10 4 6 -3
10 -11 10 -16z m5944 -34 c44 -21 85 -38 93 -39 7 -1 19 -8 25 -14 7 -7 20
-12 30 -12 10 0 18 -4 18 -10 0 -5 7 -10 15 -10 7 0 49 -15 92 -34 43 -18 137
-57 208 -86 72 -29 153 -63 180 -76 28 -13 86 -33 130 -44 44 -12 87 -24 95
-27 8 -4 38 -12 65 -19 28 -6 79 -20 115 -30 49 -13 105 -18 232 -18 91 -1
164 -4 162 -7 -8 -14 -163 -20 -254 -10 -177 19 -496 110 -700 199 -25 11
-116 50 -202 86 -87 37 -179 77 -205 90 -27 13 -85 40 -130 61 -46 21 -83 42
-83 47 0 4 8 4 18 -1 9 -5 53 -26 96 -46z m-5399 -86 c31 -6 21 -7 -39 -4 -43
3 -120 5 -170 6 -50 1 -81 4 -68 7 30 9 226 3 277 -9z m864 -205 c7 -6 -275
-2 -414 6 -85 5 -36 6 140 2 149 -2 272 -6 274 -8z m524 9 c-7 -2 -19 -2 -25
0 -7 3 -2 5 12 5 14 0 19 -2 13 -5z m-450 -10 c-7 -2 -21 -2 -30 0 -10 3 -4 5
12 5 17 0 24 -2 18 -5z m134 1 c-3 -3 -12 -4 -19 -1 -8 3 -5 6 6 6 11 1 17 -2
13 -5z m5913 -84 c0 -5 -5 -10 -11 -10 -5 0 -7 5 -4 10 3 6 8 10 11 10 2 0 4
-4 4 -10z"/>
<path d="M5847 5494 c-8 -8 3 -35 13 -29 4 3 10 -2 13 -10 9 -21 64 -48 72
-34 4 6 -2 13 -14 16 -12 3 -21 12 -21 20 0 8 -4 12 -9 8 -6 -3 -15 4 -21 15
-11 20 -22 25 -33 14z"/>
<path d="M6580 4656 c0 -2 11 -6 25 -8 14 -3 25 -1 25 3 0 5 -11 9 -25 9 -14
0 -25 -2 -25 -4z"/>
<path d="M6420 4176 c0 -16 83 -149 112 -179 27 -29 26 -28 -6 18 -19 28 -40
62 -46 75 -12 29 -60 96 -60 86z"/>
<path d="M8200 1790 c0 -5 5 -10 10 -10 6 0 10 5 10 10 0 6 -4 10 -10 10 -5 0
-10 -4 -10 -10z"/>
<path d="M6890 4331 c0 -5 5 -13 10 -16 6 -3 10 -2 10 4 0 5 -4 13 -10 16 -5
3 -10 2 -10 -4z"/>
<path d="M7010 4134 c0 -6 7 -19 15 -30 8 -10 14 -14 14 -9 0 6 -6 19 -14 29
-8 11 -15 15 -15 10z"/>
<path d="M3767 3423 c-4 -3 -7 -11 -7 -17 0 -6 5 -5 12 2 6 6 9 14 7 17 -3 3
-9 2 -12 -2z"/>
<path d="M3789 3212 c-31 -36 -31 -46 -1 -18 18 17 32 31 32 33 0 9 -18 1 -31
-15z"/>
</g>
</svg>
