<?xml version="1.0" standalone="no"?>
<!DOCTYPE svg PUBLIC "-//W3C//DTD SVG 20010904//EN"
 "http://www.w3.org/TR/2001/REC-SVG-20010904/DTD/svg10.dtd">
<svg version="1.0" xmlns="http://www.w3.org/2000/svg"
 width="600.000000pt" height="348.000000pt" viewBox="0 0 600.000000 348.000000"
 preserveAspectRatio="xMidYMid meet">

<g transform="translate(0.000000,348.000000) scale(0.100000,-0.100000)"
fill="#000000" stroke="none">
<path d="M775 3309 c-130 -25 -155 -31 -150 -39 3 -4 -4 -6 -15 -3 -16 4 -20
0 -21 -18 -1 -13 -1 -27 0 -31 0 -5 -3 -8 -7 -8 -17 0 -48 -179 -57 -328 -3
-50 -8 -114 -11 -142 -3 -29 0 -58 7 -72 l12 -23 -22 20 -22 19 6 -29 c4 -17
16 -42 26 -57 11 -16 15 -28 10 -28 -5 0 -16 9 -24 20 -13 18 -15 19 -21 5 -3
-9 -6 -26 -6 -38 0 -28 -39 -191 -56 -237 -7 -19 -16 -53 -19 -75 -3 -22 -12
-69 -20 -105 -31 -146 -45 -230 -51 -327 -6 -88 -9 -100 -21 -87 -26 26 -79
-20 -55 -49 7 -8 6 -16 -3 -24 -11 -10 -14 -10 -18 0 -2 6 -7 -10 -10 -37 -7
-49 -6 -53 37 -111 6 -8 -6 -75 -32 -186 -23 -96 -42 -187 -42 -204 0 -24 -2
-27 -11 -15 -8 11 -9 -6 -5 -63 5 -85 35 -149 76 -162 11 -3 20 -10 20 -15 0
-5 10 -12 23 -15 12 -4 31 -15 42 -25 34 -30 253 -90 328 -90 21 0 47 -4 57
-10 49 -26 284 -50 675 -70 312 -16 643 -53 706 -79 13 -6 62 -17 109 -26 99
-19 114 -24 325 -103 88 -33 187 -67 220 -76 252 -65 667 -113 1191 -137 234
-11 643 -8 724 5 19 3 85 14 145 23 61 9 112 19 115 23 3 3 19 12 35 20 18 10
30 24 31 37 1 12 4 29 8 38 4 12 0 18 -13 22 -11 3 -22 11 -25 19 -4 11 -62
42 -106 56 -8 3 21 13 65 23 179 39 417 130 585 223 19 11 60 31 90 45 30 13
76 43 102 66 54 48 106 144 89 165 -8 9 -6 18 4 32 16 21 20 59 6 50 -5 -3 -8
2 -7 11 1 20 -21 29 -27 11 -2 -7 -2 -1 0 14 2 14 -1 29 -6 33 -6 3 -11 1 -11
-4 0 -6 -3 -11 -7 -11 -5 0 -9 32 -10 70 -3 80 -11 100 -61 144 -19 17 -40 36
-46 42 -19 19 -79 43 -121 49 -22 3 -72 13 -111 21 -39 8 -75 14 -80 13 -5 -1
-11 0 -14 1 -3 1 -31 3 -62 5 -32 1 -76 12 -100 24 -25 11 -51 21 -60 21 -9 0
-29 7 -44 15 -16 8 -39 15 -51 15 -16 0 -21 5 -17 15 7 18 -34 29 -83 22 -31
-5 -35 -4 -30 13 4 15 0 20 -13 20 -23 0 -292 90 -305 101 -5 5 -18 9 -30 10
-14 0 -15 2 -5 6 8 3 23 14 34 25 20 18 20 18 -14 14 -19 -3 -44 -5 -55 -5
-16 -1 -17 -3 -6 -10 11 -7 9 -10 -10 -13 -13 -2 -36 -1 -52 1 l-27 3 21 19
c12 11 27 19 33 19 6 0 5 5 -2 12 -10 10 -15 10 -22 -2 -8 -13 -10 -12 -10 3
0 11 -8 17 -22 17 -13 1 -41 9 -63 20 -22 11 -45 19 -51 20 -33 1 -359 159
-330 160 18 0 18 1 1 26 -10 15 -42 52 -72 83 -30 31 -67 72 -81 91 -15 19
-59 71 -98 116 -50 55 -70 84 -64 94 11 17 2 40 -16 40 -8 0 -14 6 -14 13 0 7
-15 20 -33 30 -18 10 -41 31 -51 48 -9 16 -21 29 -27 29 -5 0 -9 7 -9 15 0 8
-17 26 -39 40 -52 35 -86 109 -58 127 7 4 6 12 -3 23 -11 14 -25 16 -61 12
-39 -5 -48 -3 -51 11 -3 9 -18 24 -33 32 -37 20 -155 141 -178 184 -9 18 -28
43 -42 56 -20 19 -28 21 -54 12 -16 -6 -31 -7 -33 -4 -2 4 -36 35 -76 70 -72
61 -131 97 -185 113 -28 8 -116 -4 -164 -22 -25 -9 -25 -10 -8 -37 9 -15 -4
-5 -29 21 -40 43 -48 48 -75 42 -41 -9 -139 -69 -186 -115 -32 -31 -64 -47
-160 -80 -219 -75 -383 -94 -560 -65 -94 16 -119 24 -175 58 -60 38 -151 107
-175 133 -37 40 -157 88 -245 98 -25 2 -67 0 -95 -5z m915 -373 c0 -2 -7 -7
-16 -10 -8 -3 -12 -2 -9 4 6 10 25 14 25 6z m-160 -36 c0 -5 -5 -10 -11 -10
-5 0 -7 5 -4 10 3 6 8 10 11 10 2 0 4 -4 4 -10z m170 -35 c0 -25 -48 -63 -75
-60 -14 1 -25 -2 -25 -8 0 -6 -3 -8 -6 -5 -3 4 0 16 6 28 10 18 14 20 21 9 7
-11 10 -9 15 8 4 13 10 20 15 18 4 -3 14 1 21 9 17 20 28 20 28 1z m-306 -134
c3 -4 -27 -18 -67 -29 -86 -25 -159 -38 -137 -24 8 5 35 13 60 17 25 4 61 16
80 26 38 21 56 24 64 10z m-269 -59 c-3 -3 -11 0 -18 7 -9 10 -8 11 6 5 10 -3
15 -9 12 -12z m42 2 c-3 -3 -12 -4 -19 -1 -8 3 -5 6 6 6 11 1 17 -2 13 -5z
m926 -471 c-7 -2 -21 -2 -30 0 -10 3 -4 5 12 5 17 0 24 -2 18 -5z m-73 -7 c0
-2 -7 -7 -16 -10 -8 -3 -12 -2 -9 4 6 10 25 14 25 6z m70 -16 c0 -5 -4 -10
-10 -10 -5 0 -10 5 -10 10 0 6 5 10 10 10 6 0 10 -4 10 -10z m-110 -3 c0 -2
-12 -14 -27 -28 l-28 -24 24 28 c23 25 31 32 31 24z m113 -24 c3 -5 -13 -7
-35 -5 -30 3 -48 -1 -70 -18 -17 -13 -27 -16 -22 -9 5 8 9 17 10 22 1 4 2 8 3
10 3 7 110 7 114 0z m-217 -55 c-9 -12 -16 -19 -16 -15 0 11 24 47 28 42 2 -2
-3 -14 -12 -27z m186 -6 c-2 -12 2 -22 8 -22 6 0 8 -5 5 -10 -11 -18 -36 10
-30 31 4 11 2 19 -4 19 -6 0 -11 -10 -11 -22 -1 -22 -1 -22 -14 -5 -8 11 -17
14 -20 8 -4 -5 -2 -12 3 -16 6 -3 8 -12 4 -20 -3 -9 0 -22 6 -29 7 -9 8 -17 3
-20 -11 -7 -26 22 -23 43 1 7 -2 10 -8 6 -7 -4 -8 2 -2 17 16 45 89 63 83 20z
m8 -62 c0 -5 -4 -10 -10 -10 -5 0 -10 5 -10 10 0 6 5 10 10 10 6 0 10 -4 10
-10z m-33 -32 c-3 -8 -6 -5 -6 6 -1 11 2 17 5 13 3 -3 4 -12 1 -19z m-7 -92
c0 -11 -19 -15 -25 -6 -3 5 1 10 9 10 9 0 16 -2 16 -4z m330 -140 c0 -3 -4 -8
-10 -11 -5 -3 -10 -1 -10 4 0 6 5 11 10 11 6 0 10 -2 10 -4z m-316 -28 c-3 -4
-11 -5 -19 -1 -21 7 -19 12 4 10 11 0 18 -5 15 -9z m251 -34 c-16 -14 -38 -30
-49 -36 -18 -10 -18 -9 0 16 11 14 23 26 27 26 5 0 15 7 24 15 8 9 18 13 22
10 3 -4 -7 -18 -24 -31z m-1984 -38 c15 -16 10 -29 -6 -16 -8 7 -14 24 -14 39
1 20 2 22 6 6 3 -11 9 -24 14 -29z m1906 -12 c-3 -3 -12 -4 -19 -1 -8 3 -5 6
6 6 11 1 17 -2 13 -5z m-1837 -44 c14 -11 21 -20 15 -20 -5 0 -21 9 -35 20
-14 11 -20 20 -15 20 6 0 21 -9 35 -20z m4427 -36 c-3 -3 -12 -4 -19 -1 -8 3
-5 6 6 6 11 1 17 -2 13 -5z m-4312 -14 c3 -6 -1 -7 -9 -4 -18 7 -21 14 -7 14
6 0 13 -4 16 -10z m135 -50 c0 -5 -13 -2 -30 6 -16 9 -30 17 -30 19 0 2 14 -1
30 -6 17 -6 30 -15 30 -19z m108 -35 c-7 -7 -67 8 -63 16 3 4 19 3 36 -3 16
-6 29 -12 27 -13z m147 -25 c17 -7 16 -9 -10 -9 -16 0 -39 4 -50 9 -17 7 -16
9 10 9 17 0 39 -4 50 -9z m1220 -418 c-3 -3 -11 0 -18 7 -9 10 -8 11 6 5 10
-3 15 -9 12 -12z m3640 -61 c-3 -6 -14 -11 -23 -11 -15 1 -15 2 2 15 21 16 32
13 21 -4z m-90 -31 c-3 -5 -12 -10 -18 -10 -7 0 -6 4 3 10 19 12 23 12 15 0z
m-3255 -40 c8 -5 11 -10 5 -10 -5 0 -17 5 -25 10 -8 5 -10 10 -5 10 6 0 17 -5
25 -10z m1327 -256 c-3 -3 -12 -4 -19 -1 -8 3 -5 6 6 6 11 1 17 -2 13 -5z"/>
<path d="M4716 1671 c13 -12 74 -31 98 -30 12 0 -6 9 -39 19 -69 22 -73 23
-59 11z"/>
<path d="M4848 1633 c7 -3 16 -2 19 1 4 3 -2 6 -13 5 -11 0 -14 -3 -6 -6z"/>
</g>
</svg>
