<?xml version="1.0" standalone="no"?>
<!DOCTYPE svg PUBLIC "-//W3C//DTD SVG 20010904//EN"
 "http://www.w3.org/TR/2001/REC-SVG-20010904/DTD/svg10.dtd">
<svg version="1.0" xmlns="http://www.w3.org/2000/svg"
 width="500.000000pt" height="500.000000pt" viewBox="0 0 500.000000 500.000000"
 preserveAspectRatio="xMidYMid meet">

<g transform="translate(0.000000,500.000000) scale(0.100000,-0.100000)"
fill="#000000" stroke="none">
<path d="M247 1794 c-31 -31 -57 -62 -57 -70 0 -8 -4 -14 -9 -14 -5 0 -11 -10
-14 -22 -3 -13 -17 -55 -31 -95 -14 -39 -40 -131 -56 -205 -58 -253 -65 -445
-18 -510 13 -18 32 -58 42 -88 10 -30 27 -67 37 -82 11 -14 19 -29 19 -32 0
-10 -93 23 -101 36 -5 8 -14 -1 -27 -31 -18 -38 -18 -46 -5 -71 8 -16 16 -39
18 -52 3 -13 9 -24 15 -26 6 -2 8 -8 4 -13 -3 -5 1 -9 8 -9 7 -1 0 -7 -17 -16
-22 -11 -24 -13 -7 -10 12 2 20 0 17 -4 -3 -5 0 -10 7 -13 7 -2 5 -3 -4 -2
-19 3 -33 -22 -15 -28 9 -3 8 -9 -3 -22 -8 -11 -10 -16 -3 -11 21 12 41 -6 32
-29 -6 -17 -8 -17 -8 -2 -1 9 -5 17 -11 17 -14 0 -13 -87 2 -92 13 -5 18 -58
6 -58 -4 0 -8 -7 -8 -16 0 -14 3 -14 16 -4 8 8 14 9 13 4 -1 -5 -1 -19 0 -31
5 -95 277 -143 916 -159 240 -6 277 -5 330 10 33 10 74 26 91 37 28 17 52 19
243 19 116 0 307 -7 424 -15 116 -8 244 -17 282 -19 45 -3 61 -2 45 4 -14 4
-42 8 -62 9 -21 1 -38 6 -38 11 0 6 -7 10 -15 10 -8 0 -24 6 -35 12 -17 11
-22 10 -29 0 -6 -10 -11 -10 -21 3 -9 11 -22 14 -38 10 -13 -3 -21 -2 -19 3 3
4 -11 6 -31 4 -29 -3 -34 -1 -22 8 12 9 10 10 -10 8 -14 -1 -35 4 -48 10 -12
7 -36 14 -52 15 -17 1 -30 6 -30 11 0 4 -12 5 -27 2 -19 -4 -23 -3 -14 3 17
11 -46 22 -136 24 -33 1 -59 5 -57 8 5 9 -44 21 -56 14 -5 -3 -11 -1 -14 4 -4
5 -27 8 -52 5 -26 -2 -43 0 -39 5 3 6 -7 10 -22 10 -16 0 -41 4 -58 10 -23 8
-12 9 50 5 148 -8 351 -45 640 -115 515 -124 545 -128 910 -140 512 -17 863
-2 1169 52 220 38 471 106 571 155 49 23 107 67 106 78 -3 21 1 26 12 20 6 -4
9 -4 5 0 -3 4 0 29 8 54 7 26 14 55 14 65 0 15 -4 14 -27 -7 -15 -14 -29 -23
-33 -20 -3 3 4 12 14 20 11 8 16 14 12 14 -5 0 -4 6 1 13 6 6 13 22 16 35 8
32 -15 27 -35 -8 -17 -30 -106 -81 -138 -79 -13 1 -13 1 0 6 22 8 102 74 96
80 -2 3 2 20 10 38 8 19 14 53 14 75 0 25 4 39 10 35 9 -6 -22 83 -38 109 -16
27 -47 56 -59 56 -8 0 -11 10 -8 33 3 17 2 25 -2 17 -8 -19 -33 -44 -33 -33 0
4 4 14 9 22 5 8 7 20 4 27 -4 10 -10 8 -23 -8 -17 -21 -20 -21 -82 -10 -36 7
-79 12 -97 12 -19 0 -31 5 -31 13 0 8 -11 12 -31 11 -17 -1 -57 7 -88 17 -36
13 -68 18 -91 14 -26 -4 -31 -3 -20 4 11 8 4 11 -31 11 -25 0 -48 3 -52 6 -3
3 -45 8 -94 11 -48 2 -93 9 -99 14 -8 7 -14 6 -19 -1 -5 -8 -11 -8 -21 1 -8 6
-14 9 -14 6 0 -3 -38 5 -85 18 -47 13 -85 21 -85 18 0 -3 -6 0 -14 6 -8 7 -34
14 -58 17 -64 7 -114 22 -127 38 -7 8 -35 20 -63 26 -34 9 -46 15 -37 21 8 5
12 9 9 10 -25 4 -48 13 -135 51 -55 24 -119 50 -142 57 -23 8 -40 18 -37 22 3
5 -4 9 -15 9 -10 0 -34 8 -53 17 -18 9 -42 21 -53 26 -11 6 -31 17 -45 26 -17
11 -22 12 -16 3 4 -8 -10 -2 -33 12 -22 14 -45 26 -51 26 -5 0 -10 5 -10 11 0
14 -70 43 -99 40 -15 -2 -21 1 -16 8 3 6 -1 14 -10 17 -9 4 -14 12 -12 18 2 6
1 20 -4 31 -7 18 -8 18 -8 2 -1 -10 -6 -15 -11 -12 -6 4 -8 11 -5 16 4 5 2 9
-3 9 -5 0 -17 -27 -27 -60 -10 -33 -22 -60 -27 -60 -4 0 -9 -12 -9 -27 -1 -16
-3 -21 -6 -12 -2 9 1 35 6 60 7 30 7 46 -1 50 -7 4 -7 9 1 13 16 10 3 26 -15
19 -8 -3 -13 -12 -10 -20 3 -8 2 -12 -3 -8 -12 7 -26 -51 -22 -96 2 -32 -3
-41 -40 -73 -23 -20 -48 -36 -56 -36 -7 0 -73 20 -147 45 -75 25 -150 45 -168
45 -37 0 -340 41 -533 71 -348 56 -512 94 -816 189 -257 81 -482 142 -528 144
-31 1 -37 4 -33 18 4 18 -22 68 -36 68 -4 0 -33 -25 -65 -56z m133 -148 c0 -2
-7 -6 -15 -10 -8 -3 -14 -1 -12 4 1 5 -7 16 -18 25 -18 15 -18 15 13 0 17 -8
32 -17 32 -19z m-93 2 c-3 -8 -6 -5 -6 6 -1 11 2 17 5 13 3 -3 4 -12 1 -19z
m141 -22 c25 -12 89 -36 482 -177 132 -47 184 -68 170 -69 -3 0 -106 36 -229
80 -218 78 -262 91 -231 69 10 -7 11 -9 2 -7 -8 2 -13 7 -12 12 2 11 -20 26
-38 26 -7 0 -10 -4 -7 -10 3 -6 -1 -7 -10 -3 -14 5 -14 8 -3 15 9 7 7 8 -10 5
-12 -3 -20 -1 -16 4 3 5 1 9 -5 9 -5 0 -17 3 -27 7 -13 5 -15 3 -9 -7 5 -9 4
-11 -4 -6 -6 4 -9 12 -6 17 6 9 -12 13 -50 11 -12 0 -15 1 -6 5 10 4 8 9 -10
19 -32 18 -16 18 19 0z m-168 -116 c-20 -66 -20 -55 3 55 7 37 13 51 15 35 1
-14 -7 -54 -18 -90z m325 0 c3 -6 -1 -7 -9 -4 -18 7 -21 14 -7 14 6 0 13 -4
16 -10z m75 -30 c0 -5 -2 -10 -4 -10 -3 0 -8 5 -11 10 -3 6 -1 10 4 10 6 0 11
-4 11 -10z m517 -131 c79 -31 397 -146 466 -169 21 -6 36 -14 34 -16 -2 -2
-24 3 -47 11 -24 9 -51 13 -59 10 -9 -3 -12 -3 -8 1 4 4 -41 25 -100 46 -60
22 -156 57 -216 79 -59 22 -113 37 -120 33 -6 -4 -8 -3 -4 1 4 5 -3 15 -15 22
-39 21 -12 14 69 -18z m-960 -11 c-3 -8 -6 -5 -6 6 -1 11 2 17 5 13 3 -3 4
-12 1 -19z m2488 -38 c-9 -41 -17 -33 -9 9 4 17 9 30 11 27 3 -2 2 -19 -2 -36z
m-1765 26 c0 -3 -4 -8 -10 -11 -5 -3 -10 -1 -10 4 0 6 5 11 10 11 6 0 10 -2
10 -4z m440 -106 c0 -5 -5 -10 -11 -10 -5 0 -7 5 -4 10 3 6 8 10 11 10 2 0 4
-4 4 -10z m-1140 -30 c0 -5 -2 -10 -4 -10 -3 0 -8 5 -11 10 -3 6 -1 10 4 10 6
0 11 -4 11 -10z m1220 0 c0 -5 -4 -10 -10 -10 -5 0 -10 5 -10 10 0 6 5 10 10
10 6 0 10 -4 10 -10z m-86 -26 c3 -8 2 -12 -4 -9 -6 3 -10 10 -10 16 0 14 7
11 14 -7z m376 -19 c19 -7 28 -13 20 -13 -8 0 -31 6 -50 13 -19 7 -28 13 -20
13 8 0 31 -6 50 -13z m958 -10 c-3 -3 -9 2 -12 12 -6 14 -5 15 5 6 7 -7 10
-15 7 -18z m-1103 5 c3 -5 1 -10 -4 -10 -6 0 -11 5 -11 10 0 6 2 10 4 10 3 0
8 -4 11 -10z m80 -30 c3 -5 1 -10 -4 -10 -6 0 -11 5 -11 10 0 6 2 10 4 10 3 0
8 -4 11 -10z m180 0 c13 -5 14 -9 5 -9 -8 0 -24 4 -35 9 -13 5 -14 9 -5 9 8 0
24 -4 35 -9z m85 -25 c19 -7 28 -13 20 -13 -8 0 -31 6 -50 13 -19 7 -28 13
-20 13 8 0 31 -6 50 -13z m-1793 -17 c-3 -8 -6 -5 -6 6 -1 11 2 17 5 13 3 -3
4 -12 1 -19z m1506 -13 c-3 -9 -8 -14 -10 -11 -3 3 -2 9 2 15 9 16 15 13 8 -4z
m172 5 c3 -5 1 -10 -4 -10 -6 0 -11 5 -11 10 0 6 2 10 4 10 3 0 8 -4 11 -10z
m215 -5 c19 -7 28 -13 20 -13 -8 0 -31 6 -50 13 -19 7 -28 13 -20 13 8 0 31
-6 50 -13z m70 -19 c0 -2 -9 -6 -20 -9 -11 -3 -18 -1 -14 4 5 9 34 13 34 5z
m105 -31 c23 -11 24 -13 5 -7 -14 4 -43 6 -65 6 -29 -1 -35 0 -20 6 29 12 46
11 80 -5z m-135 -15 c0 -5 -2 -10 -4 -10 -3 0 -8 5 -11 10 -3 6 -1 10 4 10 6
0 11 -4 11 -10z m197 -6 c-3 -3 -12 -4 -19 -1 -8 3 -5 6 6 6 11 1 17 -2 13 -5z
m70 -20 c-3 -3 -12 -4 -19 -1 -8 3 -5 6 6 6 11 1 17 -2 13 -5z m80 -20 c-3 -3
-12 -4 -19 -1 -8 3 -5 6 6 6 11 1 17 -2 13 -5z m70 -20 c-3 -3 -12 -4 -19 -1
-8 3 -5 6 6 6 11 1 17 -2 13 -5z m113 -14 c17 -6 9 -7 -25 -3 -27 3 -52 7 -54
9 -8 7 54 2 79 -6z m207 -46 c-3 -3 -12 -4 -19 -1 -8 3 -5 6 6 6 11 1 17 -2
13 -5z m1913 -28 c0 -2 -7 -7 -16 -10 -8 -3 -12 -2 -9 4 6 10 25 14 25 6z
m-1613 -22 c-3 -3 -12 -4 -19 -1 -8 3 -5 6 6 6 11 1 17 -2 13 -5z m-2687 -8
c0 -2 -8 -10 -17 -17 -16 -13 -17 -12 -4 4 13 16 21 21 21 13z m2910 -46 c0
-5 -2 -10 -4 -10 -3 0 -8 5 -11 10 -3 6 -1 10 4 10 6 0 11 -4 11 -10z m360 0
c8 -5 11 -10 5 -10 -5 0 -17 5 -25 10 -8 5 -10 10 -5 10 6 0 17 -5 25 -10z
m230 -10 c0 -5 -8 -10 -17 -10 -15 0 -16 2 -3 10 19 12 20 12 20 0z m77 -6
c-3 -3 -12 -4 -19 -1 -8 3 -5 6 6 6 11 1 17 -2 13 -5z m156 -1 c-7 -2 -19 -2
-25 0 -7 3 -2 5 12 5 14 0 19 -2 13 -5z m134 1 c-3 -3 -12 -4 -19 -1 -8 3 -5
6 6 6 11 1 17 -2 13 -5z m-4127 -39 c7 -9 8 -15 2 -15 -5 0 -12 7 -16 15 -3 8
-4 15 -2 15 2 0 9 -7 16 -15z m34 -1 c3 -8 2 -12 -4 -9 -6 3 -10 10 -10 16 0
14 7 11 14 -7z m3586 -38 c0 -2 -7 -7 -16 -10 -8 -3 -12 -2 -9 4 6 10 25 14
25 6z m-270 -36 c1 8 2 17 2 20 0 3 8 6 19 6 24 0 24 -7 -1 -29 -25 -21 -40
-14 -39 16 1 20 2 20 9 -3 5 -14 9 -18 10 -10z m-32 -11 c-2 -6 -7 -10 -11
-10 -4 1 -15 1 -24 2 -15 0 -15 2 2 9 28 12 37 12 33 -1z m172 -7 c0 -5 -12
-14 -27 -21 l-28 -12 25 21 c29 22 30 23 30 12z m-72 -14 c8 -10 3 -13 -21
-14 -28 -1 -29 0 -12 12 23 17 20 17 33 2z m832 -58 c-16 -10 -8 -13 25 -11
14 1 21 -5 22 -19 1 -12 -4 -20 -13 -20 -8 0 -17 -7 -20 -15 -4 -8 -15 -15
-25 -15 -10 0 -19 7 -19 15 0 8 -4 15 -10 15 -5 0 -10 7 -10 16 0 9 5 12 11 8
7 -4 10 -1 7 7 -3 8 5 19 16 25 24 12 37 7 16 -6z m56 9 c4 -8 9 -7 15 2 7 11
9 11 9 1 0 -15 31 -12 42 3 5 6 8 5 8 -2 0 -9 10 -11 31 -6 25 5 31 3 27 -8
-3 -8 -11 -13 -18 -11 -7 2 -17 -3 -22 -10 -6 -10 -10 -10 -19 2 -8 12 -9 11
-4 -7 3 -12 1 -24 -5 -28 -5 -3 -10 2 -10 11 0 15 -3 15 -23 -4 -31 -30 -38
-28 -30 10 5 23 2 34 -12 45 -11 7 -14 13 -8 13 7 0 15 -5 19 -11z m-1006 -9
c0 -5 -4 -10 -10 -10 -5 0 -10 5 -10 10 0 6 5 10 10 10 6 0 10 -4 10 -10z
m750 -7 c0 -3 -7 -3 -15 0 -8 4 -17 2 -20 -3 -4 -6 -11 -10 -18 -10 -6 0 -2 6
8 14 17 12 45 12 45 -1z m-860 -9 c0 -8 -19 -13 -24 -6 -3 5 1 9 9 9 8 0 15
-2 15 -3z m58 -19 c-3 -3 -9 2 -12 12 -6 14 -5 15 5 6 7 -7 10 -15 7 -18z
m824 3 c-21 -21 -13 -32 9 -12 21 19 21 18 37 -1 10 -12 25 -19 36 -17 14 3
15 6 6 12 -7 4 -11 13 -9 19 3 6 9 7 18 2 9 -6 12 -18 7 -37 -6 -22 -9 -25
-17 -13 -8 12 -10 12 -19 -1 -7 -12 -10 -12 -10 -1 0 8 -6 11 -16 7 -12 -4
-15 -2 -11 9 4 8 2 17 -3 20 -5 3 -12 -4 -15 -16 -4 -12 -12 -18 -21 -15 -9 3
-14 -1 -14 -12 0 -15 -2 -15 -10 -2 -8 13 -10 13 -10 -2 0 -14 -7 -16 -37 -12
-21 2 -40 9 -42 15 -1 5 -10 2 -18 -8 -8 -10 -13 -13 -10 -8 2 6 7 18 10 28 5
14 11 16 26 8 14 -8 21 -7 25 2 5 9 7 9 12 0 9 -20 24 -15 24 8 0 17 3 19 13
10 11 -8 17 -5 27 14 7 14 16 23 19 20 2 -3 -1 -11 -7 -17z m-112 2 c0 -5 -5
-10 -11 -10 -5 0 -7 5 -4 10 3 6 8 10 11 10 2 0 4 -4 4 -10z m-594 -27 c-10
-10 -19 5 -10 18 6 11 8 11 12 0 2 -7 1 -15 -2 -18z m344 2 c0 -3 -9 -16 -20
-27 -13 -15 -17 -25 -10 -32 12 -12 13 -26 1 -26 -18 0 -20 31 -3 60 15 26 32
40 32 25z m500 -14 c0 -6 -4 -13 -10 -16 -5 -3 -10 1 -10 9 0 9 5 16 10 16 6
0 10 -4 10 -9z m-306 -7 c8 -3 12 -12 10 -19 -3 -8 -12 -11 -21 -8 -12 5 -12
7 -1 14 10 7 9 9 -4 9 -9 0 -20 -9 -23 -20 -3 -11 -14 -20 -23 -20 -15 0 -15
2 -2 10 8 5 11 10 5 10 -11 1 24 30 36 30 4 0 14 -3 23 -6z m-264 -14 c0 -5
-2 -10 -4 -10 -3 0 -8 5 -11 10 -3 6 -1 10 4 10 6 0 11 -4 11 -10z m180 1 c0
-17 -21 -24 -33 -11 -9 10 -9 11 1 6 6 -4 12 -2 12 3 0 6 5 11 10 11 6 0 10
-4 10 -9z m-73 -33 c-3 -7 -5 -2 -5 12 0 14 2 19 5 13 2 -7 2 -19 0 -25z m-20
0 c-3 -8 -6 -5 -6 6 -1 11 2 17 5 13 3 -3 4 -12 1 -19z m-257 -4 c0 -8 -5 -12
-10 -9 -6 4 -8 11 -5 16 9 14 15 11 15 -7z m105 -30 c-8 -16 -15 -23 -15 -16
0 17 20 55 26 49 2 -2 -2 -17 -11 -33z m56 9 c-12 -20 -14 -14 -5 12 4 9 9 14
11 11 3 -2 0 -13 -6 -23z m-210 -36 c-10 -9 -11 -8 -5 6 3 10 9 15 12 12 3 -3
0 -11 -7 -18z m919 -107 c0 -5 -2 -10 -4 -10 -3 0 -8 5 -11 10 -3 6 -1 10 4
10 6 0 11 -4 11 -10z m-45 -10 c-3 -5 -24 -13 -45 -16 -22 -4 -37 -10 -34 -15
3 -5 -2 -6 -11 -3 -22 9 -11 17 38 30 57 15 59 16 52 4z m-225 -50 c0 -5 -7
-10 -15 -10 -8 0 -15 5 -15 10 0 6 7 10 15 10 8 0 15 -4 15 -10z m-130 -19 c0
-5 -9 -7 -20 -4 -11 3 -20 7 -20 9 0 2 9 4 20 4 11 0 20 -4 20 -9z m-160 -11
c0 -5 -2 -10 -4 -10 -3 0 -8 5 -11 10 -3 6 -1 10 4 10 6 0 11 -4 11 -10z m75
0 c-3 -5 -11 -10 -16 -10 -6 0 -7 5 -4 10 3 6 11 10 16 10 6 0 7 -4 4 -10z
m-170 -10 c3 -5 -1 -10 -9 -10 -9 0 -16 5 -16 10 0 6 4 10 9 10 6 0 13 -4 16
-10z m49 1 c4 -5 -3 -7 -14 -4 -23 6 -26 13 -6 13 8 0 17 -4 20 -9z"/>
<path d="M4598 963 c7 -3 16 -2 19 1 4 3 -2 6 -13 5 -11 0 -14 -3 -6 -6z"/>
<path d="M4677 934 c46 -23 79 -64 50 -64 -6 0 -8 -3 -5 -6 8 -7 46 17 53 34
2 7 0 10 -5 7 -6 -3 -10 -2 -10 3 0 12 -92 52 -117 51 -10 0 5 -11 34 -25z"/>
<path d="M2468 58 c-8 -4 4 -8 30 -8 23 0 42 2 42 4 0 8 -60 12 -72 4z"/>
</g>
</svg>
